<svg xmlns="http://www.w3.org/2000/svg" version="1.1" width="300" height="300.0" style="width: 100%; height: 100%;"><line x1="1.0" y1="1.0" x2="54.61697013908858" y2="54.61697013908856" style="stroke:#7856FA;stroke-width:1"></line><line x1="1.0" y1="1.0" x2="75.5" y2="1.0" style="stroke:#7856FA;stroke-width:1"></line><line x1="54.61697013908858" y1="54.61697013908856" x2="75.5" y2="1.0" style="stroke:#7856FA;stroke-width:1"></line><line x1="1.0" y1="1.0" x2="54.61697013908858" y2="54.61697013908856" style="stroke:#7856FA;stroke-width:1"></line><line x1="1.0" y1="1.0" x2="1.0" y2="75.5" style="stroke:#7856FA;stroke-width:1"></line><line x1="54.61697013908858" y1="54.61697013908856" x2="1.0" y2="75.5" style="stroke:#7856FA;stroke-width:1"></line><line x1="299.0" y1="299.0" x2="245.38302986091142" y2="245.38302986091142" style="stroke:#7856FA;stroke-width:1"></line><line x1="299.0" y1="299.0" x2="299.0" y2="224.5" style="stroke:#7856FA;stroke-width:1"></line><line x1="245.38302986091142" y1="245.38302986091142" x2="299.0" y2="224.5" style="stroke:#7856FA;stroke-width:1"></line><line x1="299.0" y1="299.0" x2="245.38302986091142" y2="245.38302986091142" style="stroke:#7856FA;stroke-width:1"></line><line x1="299.0" y1="299.0" x2="224.5" y2="299.0" style="stroke:#7856FA;stroke-width:1"></line><line x1="245.38302986091142" y1="245.38302986091142" x2="224.5" y2="299.0" style="stroke:#7856FA;stroke-width:1"></line><line x1="150.0" y1="1.0" x2="75.5" y2="1.0" style="stroke:#7856FA;stroke-width:1"></line><line x1="150.0" y1="1.0" x2="121.81326475793837" y2="71.5502620501516" style="stroke:#7856FA;stroke-width:1"></line><line x1="75.5" y1="1.0" x2="121.81326475793837" y2="71.5502620501516" style="stroke:#7856FA;stroke-width:1"></line><line x1="1.0" y1="150.0" x2="1.0" y2="75.5" style="stroke:#7856FA;stroke-width:1"></line><line x1="1.0" y1="150.0" x2="71.5502620501516" y2="121.8132647579384" style="stroke:#7856FA;stroke-width:1"></line><line x1="1.0" y1="75.5" x2="71.5502620501516" y2="121.8132647579384" style="stroke:#7856FA;stroke-width:1"></line><line x1="299.0" y1="150.0" x2="299.0" y2="224.5" style="stroke:#7856FA;stroke-width:1"></line><line x1="299.0" y1="150.0" x2="228.44973794984833" y2="178.18673524206164" style="stroke:#7856FA;stroke-width:1"></line><line x1="299.0" y1="224.5" x2="228.44973794984833" y2="178.18673524206164" style="stroke:#7856FA;stroke-width:1"></line><line x1="150.0" y1="299.0" x2="224.5" y2="299.0" style="stroke:#7856FA;stroke-width:1"></line><line x1="150.0" y1="299.0" x2="178.18673524206167" y2="228.44973794984836" style="stroke:#7856FA;stroke-width:1"></line><line x1="224.5" y1="299.0" x2="178.18673524206167" y2="228.44973794984836" style="stroke:#7856FA;stroke-width:1"></line><line x1="150.0" y1="150.0" x2="121.81326475793837" y2="71.5502620501516" style="stroke:#7856FA;stroke-width:1"></line><line x1="150.0" y1="150.0" x2="191.56265466788165" y2="108.43734533211835" style="stroke:#7856FA;stroke-width:1"></line><line x1="121.81326475793837" y1="71.5502620501516" x2="191.56265466788165" y2="108.43734533211835" style="stroke:#7856FA;stroke-width:1"></line><line x1="150.0" y1="150.0" x2="178.18673524206167" y2="228.44973794984836" style="stroke:#7856FA;stroke-width:1"></line><line x1="150.0" y1="150.0" x2="108.43734533211834" y2="191.56265466788162" style="stroke:#7856FA;stroke-width:1"></line><line x1="178.18673524206167" y1="228.44973794984836" x2="108.43734533211834" y2="191.56265466788162" style="stroke:#7856FA;stroke-width:1"></line><line x1="150.0" y1="150.0" x2="121.81326475793837" y2="71.5502620501516" style="stroke:#7856FA;stroke-width:1"></line><line x1="150.0" y1="150.0" x2="71.5502620501516" y2="121.8132647579384" style="stroke:#7856FA;stroke-width:1"></line><line x1="121.81326475793837" y1="71.5502620501516" x2="71.5502620501516" y2="121.8132647579384" style="stroke:#7856FA;stroke-width:1"></line><line x1="54.61697013908858" y1="54.61697013908856" x2="121.81326475793837" y2="71.5502620501516" style="stroke:#7856FA;stroke-width:1"></line><line x1="54.61697013908858" y1="54.61697013908856" x2="71.5502620501516" y2="121.8132647579384" style="stroke:#7856FA;stroke-width:1"></line><line x1="121.81326475793837" y1="71.5502620501516" x2="71.5502620501516" y2="121.8132647579384" style="stroke:#7856FA;stroke-width:1"></line><line x1="150.0" y1="150.0" x2="228.44973794984833" y2="178.18673524206164" style="stroke:#7856FA;stroke-width:1"></line><line x1="150.0" y1="150.0" x2="178.18673524206167" y2="228.44973794984836" style="stroke:#7856FA;stroke-width:1"></line><line x1="228.44973794984833" y1="178.18673524206164" x2="178.18673524206167" y2="228.44973794984836" style="stroke:#7856FA;stroke-width:1"></line><line x1="245.38302986091142" y1="245.38302986091142" x2="228.44973794984833" y2="178.18673524206164" style="stroke:#7856FA;stroke-width:1"></line><line x1="245.38302986091142" y1="245.38302986091142" x2="178.18673524206167" y2="228.44973794984836" style="stroke:#7856FA;stroke-width:1"></line><line x1="228.44973794984833" y1="178.18673524206164" x2="178.18673524206167" y2="228.44973794984836" style="stroke:#7856FA;stroke-width:1"></line><line x1="54.61697013908858" y1="54.61697013908856" x2="75.5" y2="1.0" style="stroke:#7856FA;stroke-width:1"></line><line x1="54.61697013908858" y1="54.61697013908856" x2="121.81326475793837" y2="71.5502620501516" style="stroke:#7856FA;stroke-width:1"></line><line x1="75.5" y1="1.0" x2="121.81326475793837" y2="71.5502620501516" style="stroke:#7856FA;stroke-width:1"></line><line x1="54.61697013908858" y1="54.61697013908856" x2="1.0" y2="75.5" style="stroke:#7856FA;stroke-width:1"></line><line x1="54.61697013908858" y1="54.61697013908856" x2="71.5502620501516" y2="121.8132647579384" style="stroke:#7856FA;stroke-width:1"></line><line x1="1.0" y1="75.5" x2="71.5502620501516" y2="121.8132647579384" style="stroke:#7856FA;stroke-width:1"></line><line x1="245.38302986091142" y1="245.38302986091142" x2="299.0" y2="224.5" style="stroke:#7856FA;stroke-width:1"></line><line x1="245.38302986091142" y1="245.38302986091142" x2="228.44973794984833" y2="178.18673524206164" style="stroke:#7856FA;stroke-width:1"></line><line x1="299.0" y1="224.5" x2="228.44973794984833" y2="178.18673524206164" style="stroke:#7856FA;stroke-width:1"></line><line x1="245.38302986091142" y1="245.38302986091142" x2="224.5" y2="299.0" style="stroke:#7856FA;stroke-width:1"></line><line x1="245.38302986091142" y1="245.38302986091142" x2="178.18673524206167" y2="228.44973794984836" style="stroke:#7856FA;stroke-width:1"></line><line x1="224.5" y1="299.0" x2="178.18673524206167" y2="228.44973794984836" style="stroke:#7856FA;stroke-width:1"></line><line x1="150.0" y1="150.0" x2="228.44973794984833" y2="178.18673524206164" style="stroke:#7856FA;stroke-width:1"></line><line x1="150.0" y1="150.0" x2="191.56265466788165" y2="108.43734533211835" style="stroke:#7856FA;stroke-width:1"></line><line x1="228.44973794984833" y1="178.18673524206164" x2="191.56265466788165" y2="108.43734533211835" style="stroke:#7856FA;stroke-width:1"></line><line x1="150.0" y1="150.0" x2="71.5502620501516" y2="121.8132647579384" style="stroke:#7856FA;stroke-width:1"></line><line x1="150.0" y1="150.0" x2="108.43734533211834" y2="191.56265466788162" style="stroke:#7856FA;stroke-width:1"></line><line x1="71.5502620501516" y1="121.8132647579384" x2="108.43734533211834" y2="191.56265466788162" style="stroke:#7856FA;stroke-width:1"></line><line x1="224.5" y1="1.0" x2="260.66416723192793" y2="39.335832768072045" style="stroke:#7856FA;stroke-width:1"></line><line x1="224.5" y1="1.0" x2="217.25146150593494" y2="55.343140613616775" style="stroke:#7856FA;stroke-width:1"></line><line x1="260.66416723192793" y1="39.335832768072045" x2="217.25146150593494" y2="55.343140613616775" style="stroke:#7856FA;stroke-width:1"></line><line x1="1.0" y1="224.5" x2="39.33583276807205" y2="260.66416723192793" style="stroke:#7856FA;stroke-width:1"></line><line x1="1.0" y1="224.5" x2="55.343140613616804" y2="217.2514615059349" style="stroke:#7856FA;stroke-width:1"></line><line x1="39.33583276807205" y1="260.66416723192793" x2="55.343140613616804" y2="217.2514615059349" style="stroke:#7856FA;stroke-width:1"></line><line x1="191.56265466788165" y1="108.43734533211835" x2="217.25146150593494" y2="55.343140613616775" style="stroke:#7856FA;stroke-width:1"></line><line x1="191.56265466788165" y1="108.43734533211835" x2="244.65685938638322" y2="82.74853849406506" style="stroke:#7856FA;stroke-width:1"></line><line x1="217.25146150593494" y1="55.343140613616775" x2="244.65685938638322" y2="82.74853849406506" style="stroke:#7856FA;stroke-width:1"></line><line x1="108.43734533211834" y1="191.56265466788162" x2="55.343140613616804" y2="217.2514615059349" style="stroke:#7856FA;stroke-width:1"></line><line x1="108.43734533211834" y1="191.56265466788162" x2="82.74853849406512" y2="244.6568593863832" style="stroke:#7856FA;stroke-width:1"></line><line x1="55.343140613616804" y1="217.2514615059349" x2="82.74853849406512" y2="244.6568593863832" style="stroke:#7856FA;stroke-width:1"></line><line x1="299.0" y1="75.5" x2="260.66416723192793" y2="39.335832768072045" style="stroke:#7856FA;stroke-width:1"></line><line x1="299.0" y1="75.5" x2="244.65685938638322" y2="82.74853849406506" style="stroke:#7856FA;stroke-width:1"></line><line x1="260.66416723192793" y1="39.335832768072045" x2="244.65685938638322" y2="82.74853849406506" style="stroke:#7856FA;stroke-width:1"></line><line x1="75.5" y1="299.0" x2="39.33583276807205" y2="260.66416723192793" style="stroke:#7856FA;stroke-width:1"></line><line x1="75.5" y1="299.0" x2="82.74853849406512" y2="244.6568593863832" style="stroke:#7856FA;stroke-width:1"></line><line x1="39.33583276807205" y1="260.66416723192793" x2="82.74853849406512" y2="244.6568593863832" style="stroke:#7856FA;stroke-width:1"></line><line x1="260.66416723192793" y1="39.335832768072045" x2="217.25146150593494" y2="55.343140613616775" style="stroke:#7856FA;stroke-width:1"></line><line x1="260.66416723192793" y1="39.335832768072045" x2="244.65685938638322" y2="82.74853849406506" style="stroke:#7856FA;stroke-width:1"></line><line x1="217.25146150593494" y1="55.343140613616775" x2="244.65685938638322" y2="82.74853849406506" style="stroke:#7856FA;stroke-width:1"></line><line x1="39.33583276807205" y1="260.66416723192793" x2="55.343140613616804" y2="217.2514615059349" style="stroke:#7856FA;stroke-width:1"></line><line x1="39.33583276807205" y1="260.66416723192793" x2="82.74853849406512" y2="244.6568593863832" style="stroke:#7856FA;stroke-width:1"></line><line x1="55.343140613616804" y1="217.2514615059349" x2="82.74853849406512" y2="244.6568593863832" style="stroke:#7856FA;stroke-width:1"></line><line x1="150.0" y1="1.0" x2="224.5" y2="1.0" style="stroke:#7856FA;stroke-width:1"></line><line x1="150.0" y1="1.0" x2="176.57758819728292" y2="47.3954926446552" style="stroke:#7856FA;stroke-width:1"></line><line x1="224.5" y1="1.0" x2="176.57758819728292" y2="47.3954926446552" style="stroke:#7856FA;stroke-width:1"></line><line x1="1.0" y1="150.0" x2="1.0" y2="224.5" style="stroke:#7856FA;stroke-width:1"></line><line x1="1.0" y1="150.0" x2="47.395492644655185" y2="176.57758819728292" style="stroke:#7856FA;stroke-width:1"></line><line x1="1.0" y1="224.5" x2="47.395492644655185" y2="176.57758819728292" style="stroke:#7856FA;stroke-width:1"></line><line x1="299.0" y1="150.0" x2="299.0" y2="75.5" style="stroke:#7856FA;stroke-width:1"></line><line x1="299.0" y1="150.0" x2="252.60450735534482" y2="123.42241180271708" style="stroke:#7856FA;stroke-width:1"></line><line x1="299.0" y1="75.5" x2="252.60450735534482" y2="123.42241180271708" style="stroke:#7856FA;stroke-width:1"></line><line x1="150.0" y1="299.0" x2="75.5" y2="299.0" style="stroke:#7856FA;stroke-width:1"></line><line x1="150.0" y1="299.0" x2="123.42241180271706" y2="252.60450735534482" style="stroke:#7856FA;stroke-width:1"></line><line x1="75.5" y1="299.0" x2="123.42241180271706" y2="252.60450735534482" style="stroke:#7856FA;stroke-width:1"></line><line x1="224.5" y1="1.0" x2="176.57758819728292" y2="47.3954926446552" style="stroke:#7856FA;stroke-width:1"></line><line x1="224.5" y1="1.0" x2="217.25146150593494" y2="55.343140613616775" style="stroke:#7856FA;stroke-width:1"></line><line x1="176.57758819728292" y1="47.3954926446552" x2="217.25146150593494" y2="55.343140613616775" style="stroke:#7856FA;stroke-width:1"></line><line x1="1.0" y1="224.5" x2="47.395492644655185" y2="176.57758819728292" style="stroke:#7856FA;stroke-width:1"></line><line x1="1.0" y1="224.5" x2="55.343140613616804" y2="217.2514615059349" style="stroke:#7856FA;stroke-width:1"></line><line x1="47.395492644655185" y1="176.57758819728292" x2="55.343140613616804" y2="217.2514615059349" style="stroke:#7856FA;stroke-width:1"></line><line x1="299.0" y1="75.5" x2="252.60450735534482" y2="123.42241180271708" style="stroke:#7856FA;stroke-width:1"></line><line x1="299.0" y1="75.5" x2="244.65685938638322" y2="82.74853849406506" style="stroke:#7856FA;stroke-width:1"></line><line x1="252.60450735534482" y1="123.42241180271708" x2="244.65685938638322" y2="82.74853849406506" style="stroke:#7856FA;stroke-width:1"></line><line x1="75.5" y1="299.0" x2="123.42241180271706" y2="252.60450735534482" style="stroke:#7856FA;stroke-width:1"></line><line x1="75.5" y1="299.0" x2="82.74853849406512" y2="244.6568593863832" style="stroke:#7856FA;stroke-width:1"></line><line x1="123.42241180271706" y1="252.60450735534482" x2="82.74853849406512" y2="244.6568593863832" style="stroke:#7856FA;stroke-width:1"></line><line x1="191.56265466788165" y1="108.43734533211835" x2="176.57758819728292" y2="47.3954926446552" style="stroke:#7856FA;stroke-width:1"></line><line x1="191.56265466788165" y1="108.43734533211835" x2="217.25146150593494" y2="55.343140613616775" style="stroke:#7856FA;stroke-width:1"></line><line x1="176.57758819728292" y1="47.3954926446552" x2="217.25146150593494" y2="55.343140613616775" style="stroke:#7856FA;stroke-width:1"></line><line x1="108.43734533211834" y1="191.56265466788162" x2="47.395492644655185" y2="176.57758819728292" style="stroke:#7856FA;stroke-width:1"></line><line x1="108.43734533211834" y1="191.56265466788162" x2="55.343140613616804" y2="217.2514615059349" style="stroke:#7856FA;stroke-width:1"></line><line x1="47.395492644655185" y1="176.57758819728292" x2="55.343140613616804" y2="217.2514615059349" style="stroke:#7856FA;stroke-width:1"></line><line x1="191.56265466788165" y1="108.43734533211835" x2="252.60450735534482" y2="123.42241180271708" style="stroke:#7856FA;stroke-width:1"></line><line x1="191.56265466788165" y1="108.43734533211835" x2="244.65685938638322" y2="82.74853849406506" style="stroke:#7856FA;stroke-width:1"></line><line x1="252.60450735534482" y1="123.42241180271708" x2="244.65685938638322" y2="82.74853849406506" style="stroke:#7856FA;stroke-width:1"></line><line x1="108.43734533211834" y1="191.56265466788162" x2="123.42241180271706" y2="252.60450735534482" style="stroke:#7856FA;stroke-width:1"></line><line x1="108.43734533211834" y1="191.56265466788162" x2="82.74853849406512" y2="244.6568593863832" style="stroke:#7856FA;stroke-width:1"></line><line x1="123.42241180271706" y1="252.60450735534482" x2="82.74853849406512" y2="244.6568593863832" style="stroke:#7856FA;stroke-width:1"></line><line x1="150.0" y1="1.0" x2="121.81326475793837" y2="71.5502620501516" style="stroke:#7856FA;stroke-width:1"></line><line x1="150.0" y1="1.0" x2="176.57758819728292" y2="47.3954926446552" style="stroke:#7856FA;stroke-width:1"></line><line x1="121.81326475793837" y1="71.5502620501516" x2="176.57758819728292" y2="47.3954926446552" style="stroke:#7856FA;stroke-width:1"></line><line x1="1.0" y1="150.0" x2="71.5502620501516" y2="121.8132647579384" style="stroke:#7856FA;stroke-width:1"></line><line x1="1.0" y1="150.0" x2="47.395492644655185" y2="176.57758819728292" style="stroke:#7856FA;stroke-width:1"></line><line x1="71.5502620501516" y1="121.8132647579384" x2="47.395492644655185" y2="176.57758819728292" style="stroke:#7856FA;stroke-width:1"></line><line x1="299.0" y1="1.0" x2="224.5" y2="1.0" style="stroke:#7856FA;stroke-width:1"></line><line x1="299.0" y1="1.0" x2="260.66416723192793" y2="39.335832768072045" style="stroke:#7856FA;stroke-width:1"></line><line x1="224.5" y1="1.0" x2="260.66416723192793" y2="39.335832768072045" style="stroke:#7856FA;stroke-width:1"></line><line x1="1.0" y1="299.0" x2="1.0" y2="224.5" style="stroke:#7856FA;stroke-width:1"></line><line x1="1.0" y1="299.0" x2="39.33583276807205" y2="260.66416723192793" style="stroke:#7856FA;stroke-width:1"></line><line x1="1.0" y1="224.5" x2="39.33583276807205" y2="260.66416723192793" style="stroke:#7856FA;stroke-width:1"></line><line x1="299.0" y1="150.0" x2="228.44973794984833" y2="178.18673524206164" style="stroke:#7856FA;stroke-width:1"></line><line x1="299.0" y1="150.0" x2="252.60450735534482" y2="123.42241180271708" style="stroke:#7856FA;stroke-width:1"></line><line x1="228.44973794984833" y1="178.18673524206164" x2="252.60450735534482" y2="123.42241180271708" style="stroke:#7856FA;stroke-width:1"></line><line x1="150.0" y1="299.0" x2="178.18673524206167" y2="228.44973794984836" style="stroke:#7856FA;stroke-width:1"></line><line x1="150.0" y1="299.0" x2="123.42241180271706" y2="252.60450735534482" style="stroke:#7856FA;stroke-width:1"></line><line x1="178.18673524206167" y1="228.44973794984836" x2="123.42241180271706" y2="252.60450735534482" style="stroke:#7856FA;stroke-width:1"></line><line x1="121.81326475793837" y1="71.5502620501516" x2="191.56265466788165" y2="108.43734533211835" style="stroke:#7856FA;stroke-width:1"></line><line x1="121.81326475793837" y1="71.5502620501516" x2="176.57758819728292" y2="47.3954926446552" style="stroke:#7856FA;stroke-width:1"></line><line x1="191.56265466788165" y1="108.43734533211835" x2="176.57758819728292" y2="47.3954926446552" style="stroke:#7856FA;stroke-width:1"></line><line x1="71.5502620501516" y1="121.8132647579384" x2="108.43734533211834" y2="191.56265466788162" style="stroke:#7856FA;stroke-width:1"></line><line x1="71.5502620501516" y1="121.8132647579384" x2="47.395492644655185" y2="176.57758819728292" style="stroke:#7856FA;stroke-width:1"></line><line x1="108.43734533211834" y1="191.56265466788162" x2="47.395492644655185" y2="176.57758819728292" style="stroke:#7856FA;stroke-width:1"></line><line x1="299.0" y1="1.0" x2="299.0" y2="75.5" style="stroke:#7856FA;stroke-width:1"></line><line x1="299.0" y1="1.0" x2="260.66416723192793" y2="39.335832768072045" style="stroke:#7856FA;stroke-width:1"></line><line x1="299.0" y1="75.5" x2="260.66416723192793" y2="39.335832768072045" style="stroke:#7856FA;stroke-width:1"></line><line x1="1.0" y1="299.0" x2="75.5" y2="299.0" style="stroke:#7856FA;stroke-width:1"></line><line x1="1.0" y1="299.0" x2="39.33583276807205" y2="260.66416723192793" style="stroke:#7856FA;stroke-width:1"></line><line x1="75.5" y1="299.0" x2="39.33583276807205" y2="260.66416723192793" style="stroke:#7856FA;stroke-width:1"></line><line x1="228.44973794984833" y1="178.18673524206164" x2="191.56265466788165" y2="108.43734533211835" style="stroke:#7856FA;stroke-width:1"></line><line x1="228.44973794984833" y1="178.18673524206164" x2="252.60450735534482" y2="123.42241180271708" style="stroke:#7856FA;stroke-width:1"></line><line x1="191.56265466788165" y1="108.43734533211835" x2="252.60450735534482" y2="123.42241180271708" style="stroke:#7856FA;stroke-width:1"></line><line x1="178.18673524206167" y1="228.44973794984836" x2="108.43734533211834" y2="191.56265466788162" style="stroke:#7856FA;stroke-width:1"></line><line x1="178.18673524206167" y1="228.44973794984836" x2="123.42241180271706" y2="252.60450735534482" style="stroke:#7856FA;stroke-width:1"></line><line x1="108.43734533211834" y1="191.56265466788162" x2="123.42241180271706" y2="252.60450735534482" style="stroke:#7856FA;stroke-width:1"></line></svg>
