<svg xmlns="http://www.w3.org/2000/svg" version="1.1" width="300" height="300.0" style="width: 100%; height: 100%;"><line x1="1.0" y1="1.0" x2="14.404242534772145" y2="14.40424253477213" style="stroke:#7856FA;stroke-width:1"></line><line x1="1.0" y1="1.0" x2="19.625" y2="1.0" style="stroke:#7856FA;stroke-width:1"></line><line x1="54.61697013908858" y1="54.61697013908856" x2="41.212727604316434" y2="41.21272760431643" style="stroke:#7856FA;stroke-width:1"></line><line x1="54.61697013908858" y1="54.61697013908856" x2="59.837727604316434" y2="41.21272760431643" style="stroke:#7856FA;stroke-width:1"></line><line x1="75.5" y1="1.0" x2="56.875" y2="1.0" style="stroke:#7856FA;stroke-width:1"></line><line x1="75.5" y1="1.0" x2="70.27924253477215" y2="14.40424253477213" style="stroke:#7856FA;stroke-width:1"></line><line x1="27.80848506954429" y1="27.80848506954426" x2="14.404242534772145" y2="14.40424253477213" style="stroke:#7856FA;stroke-width:1"></line><line x1="27.80848506954429" y1="27.80848506954426" x2="41.212727604316434" y2="41.21272760431643" style="stroke:#7856FA;stroke-width:1"></line><line x1="38.25" y1="1.0" x2="19.625" y2="1.0" style="stroke:#7856FA;stroke-width:1"></line><line x1="38.25" y1="1.0" x2="56.875" y2="1.0" style="stroke:#7856FA;stroke-width:1"></line><line x1="65.05848506954429" y1="27.80848506954426" x2="59.837727604316434" y2="41.21272760431643" style="stroke:#7856FA;stroke-width:1"></line><line x1="65.05848506954429" y1="27.80848506954426" x2="70.27924253477215" y2="14.40424253477213" style="stroke:#7856FA;stroke-width:1"></line><line x1="1.0" y1="1.0" x2="14.404242534772145" y2="14.40424253477213" style="stroke:#7856FA;stroke-width:1"></line><line x1="1.0" y1="1.0" x2="1.0" y2="19.625" style="stroke:#7856FA;stroke-width:1"></line><line x1="54.61697013908858" y1="54.61697013908856" x2="41.212727604316434" y2="41.21272760431643" style="stroke:#7856FA;stroke-width:1"></line><line x1="54.61697013908858" y1="54.61697013908856" x2="41.212727604316434" y2="59.83772760431643" style="stroke:#7856FA;stroke-width:1"></line><line x1="1.0" y1="75.5" x2="1.0" y2="56.875" style="stroke:#7856FA;stroke-width:1"></line><line x1="1.0" y1="75.5" x2="14.404242534772145" y2="70.27924253477214" style="stroke:#7856FA;stroke-width:1"></line><line x1="27.80848506954429" y1="27.80848506954426" x2="14.404242534772145" y2="14.40424253477213" style="stroke:#7856FA;stroke-width:1"></line><line x1="27.80848506954429" y1="27.80848506954426" x2="41.212727604316434" y2="41.21272760431643" style="stroke:#7856FA;stroke-width:1"></line><line x1="1.0" y1="38.25" x2="1.0" y2="19.625" style="stroke:#7856FA;stroke-width:1"></line><line x1="1.0" y1="38.25" x2="1.0" y2="56.875" style="stroke:#7856FA;stroke-width:1"></line><line x1="27.80848506954429" y1="65.05848506954426" x2="41.212727604316434" y2="59.83772760431643" style="stroke:#7856FA;stroke-width:1"></line><line x1="27.80848506954429" y1="65.05848506954426" x2="14.404242534772145" y2="70.27924253477214" style="stroke:#7856FA;stroke-width:1"></line><line x1="299.0" y1="299.0" x2="285.59575746522785" y2="285.59575746522785" style="stroke:#7856FA;stroke-width:1"></line><line x1="299.0" y1="299.0" x2="299.0" y2="280.375" style="stroke:#7856FA;stroke-width:1"></line><line x1="245.38302986091142" y1="245.38302986091142" x2="258.78727239568354" y2="258.7872723956836" style="stroke:#7856FA;stroke-width:1"></line><line x1="245.38302986091142" y1="245.38302986091142" x2="258.78727239568354" y2="240.16227239568357" style="stroke:#7856FA;stroke-width:1"></line><line x1="299.0" y1="224.5" x2="299.0" y2="243.125" style="stroke:#7856FA;stroke-width:1"></line><line x1="299.0" y1="224.5" x2="285.59575746522785" y2="229.72075746522788" style="stroke:#7856FA;stroke-width:1"></line><line x1="272.1915149304557" y1="272.1915149304557" x2="285.59575746522785" y2="285.59575746522785" style="stroke:#7856FA;stroke-width:1"></line><line x1="272.1915149304557" y1="272.1915149304557" x2="258.78727239568354" y2="258.7872723956836" style="stroke:#7856FA;stroke-width:1"></line><line x1="299.0" y1="261.75" x2="299.0" y2="280.375" style="stroke:#7856FA;stroke-width:1"></line><line x1="299.0" y1="261.75" x2="299.0" y2="243.125" style="stroke:#7856FA;stroke-width:1"></line><line x1="272.1915149304557" y1="234.9415149304557" x2="258.78727239568354" y2="240.16227239568357" style="stroke:#7856FA;stroke-width:1"></line><line x1="272.1915149304557" y1="234.9415149304557" x2="285.59575746522785" y2="229.72075746522788" style="stroke:#7856FA;stroke-width:1"></line><line x1="299.0" y1="299.0" x2="285.59575746522785" y2="285.59575746522785" style="stroke:#7856FA;stroke-width:1"></line><line x1="299.0" y1="299.0" x2="280.375" y2="299.0" style="stroke:#7856FA;stroke-width:1"></line><line x1="245.38302986091142" y1="245.38302986091142" x2="258.78727239568354" y2="258.7872723956836" style="stroke:#7856FA;stroke-width:1"></line><line x1="245.38302986091142" y1="245.38302986091142" x2="240.16227239568354" y2="258.7872723956836" style="stroke:#7856FA;stroke-width:1"></line><line x1="224.5" y1="299.0" x2="243.125" y2="299.0" style="stroke:#7856FA;stroke-width:1"></line><line x1="224.5" y1="299.0" x2="229.72075746522788" y2="285.59575746522785" style="stroke:#7856FA;stroke-width:1"></line><line x1="272.1915149304557" y1="272.1915149304557" x2="285.59575746522785" y2="285.59575746522785" style="stroke:#7856FA;stroke-width:1"></line><line x1="272.1915149304557" y1="272.1915149304557" x2="258.78727239568354" y2="258.7872723956836" style="stroke:#7856FA;stroke-width:1"></line><line x1="261.75" y1="299.0" x2="280.375" y2="299.0" style="stroke:#7856FA;stroke-width:1"></line><line x1="261.75" y1="299.0" x2="243.125" y2="299.0" style="stroke:#7856FA;stroke-width:1"></line><line x1="234.9415149304557" y1="272.1915149304557" x2="240.16227239568354" y2="258.7872723956836" style="stroke:#7856FA;stroke-width:1"></line><line x1="234.9415149304557" y1="272.1915149304557" x2="229.72075746522788" y2="285.59575746522785" style="stroke:#7856FA;stroke-width:1"></line><line x1="150.0" y1="1.0" x2="131.375" y2="1.0" style="stroke:#7856FA;stroke-width:1"></line><line x1="150.0" y1="1.0" x2="142.9533161894846" y2="18.637565512537893" style="stroke:#7856FA;stroke-width:1"></line><line x1="75.5" y1="1.0" x2="94.125" y2="1.0" style="stroke:#7856FA;stroke-width:1"></line><line x1="75.5" y1="1.0" x2="87.0783161894846" y2="18.637565512537893" style="stroke:#7856FA;stroke-width:1"></line><line x1="121.81326475793837" y1="71.5502620501516" x2="128.85994856845377" y2="53.91269653761371" style="stroke:#7856FA;stroke-width:1"></line><line x1="121.81326475793837" y1="71.5502620501516" x2="110.23494856845377" y2="53.91269653761371" style="stroke:#7856FA;stroke-width:1"></line><line x1="112.75" y1="1.0" x2="131.375" y2="1.0" style="stroke:#7856FA;stroke-width:1"></line><line x1="112.75" y1="1.0" x2="94.125" y2="1.0" style="stroke:#7856FA;stroke-width:1"></line><line x1="135.9066323789692" y1="36.27513102507579" x2="142.9533161894846" y2="18.637565512537893" style="stroke:#7856FA;stroke-width:1"></line><line x1="135.9066323789692" y1="36.27513102507579" x2="128.85994856845377" y2="53.91269653761371" style="stroke:#7856FA;stroke-width:1"></line><line x1="98.65663237896918" y1="36.27513102507579" x2="87.0783161894846" y2="18.637565512537893" style="stroke:#7856FA;stroke-width:1"></line><line x1="98.65663237896918" y1="36.27513102507579" x2="110.23494856845377" y2="53.91269653761371" style="stroke:#7856FA;stroke-width:1"></line><line x1="1.0" y1="150.0" x2="1.0" y2="131.375" style="stroke:#7856FA;stroke-width:1"></line><line x1="1.0" y1="150.0" x2="18.6375655125379" y2="142.9533161894846" style="stroke:#7856FA;stroke-width:1"></line><line x1="1.0" y1="75.5" x2="1.0" y2="94.125" style="stroke:#7856FA;stroke-width:1"></line><line x1="1.0" y1="75.5" x2="18.6375655125379" y2="87.0783161894846" style="stroke:#7856FA;stroke-width:1"></line><line x1="71.5502620501516" y1="121.8132647579384" x2="53.912696537613705" y2="128.8599485684538" style="stroke:#7856FA;stroke-width:1"></line><line x1="71.5502620501516" y1="121.8132647579384" x2="53.912696537613705" y2="110.2349485684538" style="stroke:#7856FA;stroke-width:1"></line><line x1="1.0" y1="112.75" x2="1.0" y2="131.375" style="stroke:#7856FA;stroke-width:1"></line><line x1="1.0" y1="112.75" x2="1.0" y2="94.125" style="stroke:#7856FA;stroke-width:1"></line><line x1="36.2751310250758" y1="135.9066323789692" x2="18.6375655125379" y2="142.9533161894846" style="stroke:#7856FA;stroke-width:1"></line><line x1="36.2751310250758" y1="135.9066323789692" x2="53.912696537613705" y2="128.8599485684538" style="stroke:#7856FA;stroke-width:1"></line><line x1="36.2751310250758" y1="98.6566323789692" x2="18.6375655125379" y2="87.0783161894846" style="stroke:#7856FA;stroke-width:1"></line><line x1="36.2751310250758" y1="98.6566323789692" x2="53.912696537613705" y2="110.2349485684538" style="stroke:#7856FA;stroke-width:1"></line><line x1="299.0" y1="150.0" x2="299.0" y2="168.625" style="stroke:#7856FA;stroke-width:1"></line><line x1="299.0" y1="150.0" x2="281.36243448746205" y2="157.0466838105154" style="stroke:#7856FA;stroke-width:1"></line><line x1="299.0" y1="224.5" x2="299.0" y2="205.875" style="stroke:#7856FA;stroke-width:1"></line><line x1="299.0" y1="224.5" x2="281.36243448746205" y2="212.9216838105154" style="stroke:#7856FA;stroke-width:1"></line><line x1="228.44973794984833" y1="178.18673524206164" x2="246.08730346238625" y2="171.14005143154623" style="stroke:#7856FA;stroke-width:1"></line><line x1="228.44973794984833" y1="178.18673524206164" x2="246.08730346238625" y2="189.76505143154623" style="stroke:#7856FA;stroke-width:1"></line><line x1="299.0" y1="187.25" x2="299.0" y2="168.625" style="stroke:#7856FA;stroke-width:1"></line><line x1="299.0" y1="187.25" x2="299.0" y2="205.875" style="stroke:#7856FA;stroke-width:1"></line><line x1="263.72486897492416" y1="164.0933676210308" x2="281.36243448746205" y2="157.0466838105154" style="stroke:#7856FA;stroke-width:1"></line><line x1="263.72486897492416" y1="164.0933676210308" x2="246.08730346238625" y2="171.14005143154623" style="stroke:#7856FA;stroke-width:1"></line><line x1="263.72486897492416" y1="201.3433676210308" x2="281.36243448746205" y2="212.9216838105154" style="stroke:#7856FA;stroke-width:1"></line><line x1="263.72486897492416" y1="201.3433676210308" x2="246.08730346238625" y2="189.76505143154623" style="stroke:#7856FA;stroke-width:1"></line><line x1="150.0" y1="299.0" x2="168.625" y2="299.0" style="stroke:#7856FA;stroke-width:1"></line><line x1="150.0" y1="299.0" x2="157.04668381051545" y2="281.3624344874621" style="stroke:#7856FA;stroke-width:1"></line><line x1="224.5" y1="299.0" x2="205.875" y2="299.0" style="stroke:#7856FA;stroke-width:1"></line><line x1="224.5" y1="299.0" x2="212.92168381051545" y2="281.3624344874621" style="stroke:#7856FA;stroke-width:1"></line><line x1="178.18673524206167" y1="228.44973794984836" x2="171.14005143154623" y2="246.08730346238627" style="stroke:#7856FA;stroke-width:1"></line><line x1="178.18673524206167" y1="228.44973794984836" x2="189.76505143154623" y2="246.08730346238627" style="stroke:#7856FA;stroke-width:1"></line><line x1="187.25" y1="299.0" x2="168.625" y2="299.0" style="stroke:#7856FA;stroke-width:1"></line><line x1="187.25" y1="299.0" x2="205.875" y2="299.0" style="stroke:#7856FA;stroke-width:1"></line><line x1="164.09336762103084" y1="263.72486897492416" x2="157.04668381051545" y2="281.3624344874621" style="stroke:#7856FA;stroke-width:1"></line><line x1="164.09336762103084" y1="263.72486897492416" x2="171.14005143154623" y2="246.08730346238627" style="stroke:#7856FA;stroke-width:1"></line><line x1="201.34336762103084" y1="263.72486897492416" x2="212.92168381051545" y2="281.3624344874621" style="stroke:#7856FA;stroke-width:1"></line><line x1="201.34336762103084" y1="263.72486897492416" x2="189.76505143154623" y2="246.08730346238627" style="stroke:#7856FA;stroke-width:1"></line><line x1="150.0" y1="150.0" x2="142.9533161894846" y2="130.3875655125379" style="stroke:#7856FA;stroke-width:1"></line><line x1="150.0" y1="150.0" x2="160.39066366697043" y2="139.60933633302957" style="stroke:#7856FA;stroke-width:1"></line><line x1="121.81326475793837" y1="71.5502620501516" x2="128.85994856845377" y2="91.16269653761371" style="stroke:#7856FA;stroke-width:1"></line><line x1="121.81326475793837" y1="71.5502620501516" x2="139.2506122354242" y2="80.7720328706433" style="stroke:#7856FA;stroke-width:1"></line><line x1="191.56265466788165" y1="108.43734533211835" x2="181.17199100091122" y2="118.82800899908878" style="stroke:#7856FA;stroke-width:1"></line><line x1="191.56265466788165" y1="108.43734533211835" x2="174.12530719039583" y2="99.21557451162667" style="stroke:#7856FA;stroke-width:1"></line><line x1="135.9066323789692" y1="110.77513102507578" x2="142.9533161894846" y2="130.3875655125379" style="stroke:#7856FA;stroke-width:1"></line><line x1="135.9066323789692" y1="110.77513102507578" x2="128.85994856845377" y2="91.16269653761371" style="stroke:#7856FA;stroke-width:1"></line><line x1="170.78132733394082" y1="129.21867266605918" x2="160.39066366697043" y2="139.60933633302957" style="stroke:#7856FA;stroke-width:1"></line><line x1="170.78132733394082" y1="129.21867266605918" x2="181.17199100091122" y2="118.82800899908878" style="stroke:#7856FA;stroke-width:1"></line><line x1="156.68795971291001" y1="89.99380369113499" x2="139.2506122354242" y2="80.7720328706433" style="stroke:#7856FA;stroke-width:1"></line><line x1="156.68795971291001" y1="89.99380369113499" x2="174.12530719039583" y2="99.21557451162667" style="stroke:#7856FA;stroke-width:1"></line><line x1="150.0" y1="150.0" x2="157.04668381051545" y2="169.6124344874621" style="stroke:#7856FA;stroke-width:1"></line><line x1="150.0" y1="150.0" x2="139.60933633302957" y2="160.3906636669704" style="stroke:#7856FA;stroke-width:1"></line><line x1="178.18673524206167" y1="228.44973794984836" x2="171.14005143154623" y2="208.83730346238627" style="stroke:#7856FA;stroke-width:1"></line><line x1="178.18673524206167" y1="228.44973794984836" x2="160.74938776457586" y2="219.2279671293567" style="stroke:#7856FA;stroke-width:1"></line><line x1="108.43734533211834" y1="191.56265466788162" x2="118.82800899908877" y2="181.17199100091122" style="stroke:#7856FA;stroke-width:1"></line><line x1="108.43734533211834" y1="191.56265466788162" x2="125.87469280960418" y2="200.78442548837333" style="stroke:#7856FA;stroke-width:1"></line><line x1="164.09336762103084" y1="189.2248689749242" x2="157.04668381051545" y2="169.6124344874621" style="stroke:#7856FA;stroke-width:1"></line><line x1="164.09336762103084" y1="189.2248689749242" x2="171.14005143154623" y2="208.83730346238627" style="stroke:#7856FA;stroke-width:1"></line><line x1="129.21867266605918" y1="170.7813273339408" x2="139.60933633302957" y2="160.3906636669704" style="stroke:#7856FA;stroke-width:1"></line><line x1="129.21867266605918" y1="170.7813273339408" x2="118.82800899908877" y2="181.17199100091122" style="stroke:#7856FA;stroke-width:1"></line><line x1="143.31204028708999" y1="210.006196308865" x2="160.74938776457586" y2="219.2279671293567" style="stroke:#7856FA;stroke-width:1"></line><line x1="143.31204028708999" y1="210.006196308865" x2="125.87469280960418" y2="200.78442548837333" style="stroke:#7856FA;stroke-width:1"></line><line x1="150.0" y1="150.0" x2="142.9533161894846" y2="130.3875655125379" style="stroke:#7856FA;stroke-width:1"></line><line x1="150.0" y1="150.0" x2="130.3875655125379" y2="142.9533161894846" style="stroke:#7856FA;stroke-width:1"></line><line x1="121.81326475793837" y1="71.5502620501516" x2="128.85994856845377" y2="91.16269653761371" style="stroke:#7856FA;stroke-width:1"></line><line x1="121.81326475793837" y1="71.5502620501516" x2="109.24751408099168" y2="84.11601272709831" style="stroke:#7856FA;stroke-width:1"></line><line x1="71.5502620501516" y1="121.8132647579384" x2="91.16269653761371" y2="128.8599485684538" style="stroke:#7856FA;stroke-width:1"></line><line x1="71.5502620501516" y1="121.8132647579384" x2="84.1160127270983" y2="109.24751408099169" style="stroke:#7856FA;stroke-width:1"></line><line x1="135.9066323789692" y1="110.77513102507578" x2="142.9533161894846" y2="130.3875655125379" style="stroke:#7856FA;stroke-width:1"></line><line x1="135.9066323789692" y1="110.77513102507578" x2="128.85994856845377" y2="91.16269653761371" style="stroke:#7856FA;stroke-width:1"></line><line x1="110.77513102507581" y1="135.9066323789692" x2="130.3875655125379" y2="142.9533161894846" style="stroke:#7856FA;stroke-width:1"></line><line x1="110.77513102507581" y1="135.9066323789692" x2="91.16269653761371" y2="128.8599485684538" style="stroke:#7856FA;stroke-width:1"></line><line x1="96.68176340404499" y1="96.68176340404499" x2="109.24751408099168" y2="84.11601272709831" style="stroke:#7856FA;stroke-width:1"></line><line x1="96.68176340404499" y1="96.68176340404499" x2="84.1160127270983" y2="109.24751408099169" style="stroke:#7856FA;stroke-width:1"></line><line x1="54.61697013908858" y1="54.61697013908856" x2="71.41604379380102" y2="58.85029311685432" style="stroke:#7856FA;stroke-width:1"></line><line x1="54.61697013908858" y1="54.61697013908856" x2="58.85029311685434" y2="71.41604379380102" style="stroke:#7856FA;stroke-width:1"></line><line x1="121.81326475793837" y1="71.5502620501516" x2="105.01419110322593" y2="67.31693907238585" style="stroke:#7856FA;stroke-width:1"></line><line x1="121.81326475793837" y1="71.5502620501516" x2="109.24751408099168" y2="84.11601272709831" style="stroke:#7856FA;stroke-width:1"></line><line x1="71.5502620501516" y1="121.8132647579384" x2="67.31693907238585" y2="105.01419110322593" style="stroke:#7856FA;stroke-width:1"></line><line x1="71.5502620501516" y1="121.8132647579384" x2="84.1160127270983" y2="109.24751408099169" style="stroke:#7856FA;stroke-width:1"></line><line x1="88.21511744851348" y1="63.08361609462008" x2="71.41604379380102" y2="58.85029311685432" style="stroke:#7856FA;stroke-width:1"></line><line x1="88.21511744851348" y1="63.08361609462008" x2="105.01419110322593" y2="67.31693907238585" style="stroke:#7856FA;stroke-width:1"></line><line x1="63.0836160946201" y1="88.21511744851347" x2="58.85029311685434" y2="71.41604379380102" style="stroke:#7856FA;stroke-width:1"></line><line x1="63.0836160946201" y1="88.21511744851347" x2="67.31693907238585" y2="105.01419110322593" style="stroke:#7856FA;stroke-width:1"></line><line x1="96.68176340404499" y1="96.68176340404499" x2="109.24751408099168" y2="84.11601272709831" style="stroke:#7856FA;stroke-width:1"></line><line x1="96.68176340404499" y1="96.68176340404499" x2="84.1160127270983" y2="109.24751408099169" style="stroke:#7856FA;stroke-width:1"></line><line x1="150.0" y1="150.0" x2="169.61243448746208" y2="157.0466838105154" style="stroke:#7856FA;stroke-width:1"></line><line x1="150.0" y1="150.0" x2="157.04668381051545" y2="169.6124344874621" style="stroke:#7856FA;stroke-width:1"></line><line x1="228.44973794984833" y1="178.18673524206164" x2="208.83730346238625" y2="171.14005143154623" style="stroke:#7856FA;stroke-width:1"></line><line x1="228.44973794984833" y1="178.18673524206164" x2="215.88398727290166" y2="190.75248591900834" style="stroke:#7856FA;stroke-width:1"></line><line x1="178.18673524206167" y1="228.44973794984836" x2="171.14005143154623" y2="208.83730346238627" style="stroke:#7856FA;stroke-width:1"></line><line x1="178.18673524206167" y1="228.44973794984836" x2="190.75248591900834" y2="215.8839872729017" style="stroke:#7856FA;stroke-width:1"></line><line x1="189.22486897492414" y1="164.0933676210308" x2="169.61243448746208" y2="157.0466838105154" style="stroke:#7856FA;stroke-width:1"></line><line x1="189.22486897492414" y1="164.0933676210308" x2="208.83730346238625" y2="171.14005143154623" style="stroke:#7856FA;stroke-width:1"></line><line x1="164.09336762103084" y1="189.2248689749242" x2="157.04668381051545" y2="169.6124344874621" style="stroke:#7856FA;stroke-width:1"></line><line x1="164.09336762103084" y1="189.2248689749242" x2="171.14005143154623" y2="208.83730346238627" style="stroke:#7856FA;stroke-width:1"></line><line x1="203.318236595955" y1="203.318236595955" x2="215.88398727290166" y2="190.75248591900834" style="stroke:#7856FA;stroke-width:1"></line><line x1="203.318236595955" y1="203.318236595955" x2="190.75248591900834" y2="215.8839872729017" style="stroke:#7856FA;stroke-width:1"></line><line x1="245.38302986091142" y1="245.38302986091142" x2="241.14970688314565" y2="228.58395620619896" style="stroke:#7856FA;stroke-width:1"></line><line x1="245.38302986091142" y1="245.38302986091142" x2="228.58395620619896" y2="241.14970688314565" style="stroke:#7856FA;stroke-width:1"></line><line x1="228.44973794984833" y1="178.18673524206164" x2="232.6830609276141" y2="194.98580889677407" style="stroke:#7856FA;stroke-width:1"></line><line x1="228.44973794984833" y1="178.18673524206164" x2="215.88398727290166" y2="190.7524859190083" style="stroke:#7856FA;stroke-width:1"></line><line x1="178.18673524206167" y1="228.44973794984836" x2="194.9858088967741" y2="232.68306092761412" style="stroke:#7856FA;stroke-width:1"></line><line x1="178.18673524206167" y1="228.44973794984836" x2="190.75248591900834" y2="215.8839872729017" style="stroke:#7856FA;stroke-width:1"></line><line x1="236.9163839053799" y1="211.78488255148653" x2="241.14970688314565" y2="228.58395620619896" style="stroke:#7856FA;stroke-width:1"></line><line x1="236.9163839053799" y1="211.78488255148653" x2="232.6830609276141" y2="194.98580889677407" style="stroke:#7856FA;stroke-width:1"></line><line x1="211.78488255148653" y1="236.9163839053799" x2="228.58395620619896" y2="241.14970688314565" style="stroke:#7856FA;stroke-width:1"></line><line x1="211.78488255148653" y1="236.9163839053799" x2="194.9858088967741" y2="232.68306092761412" style="stroke:#7856FA;stroke-width:1"></line><line x1="203.318236595955" y1="203.318236595955" x2="215.88398727290166" y2="190.7524859190083" style="stroke:#7856FA;stroke-width:1"></line><line x1="203.318236595955" y1="203.318236595955" x2="190.75248591900834" y2="215.8839872729017" style="stroke:#7856FA;stroke-width:1"></line><line x1="54.61697013908858" y1="54.61697013908856" x2="59.837727604316434" y2="41.21272760431643" style="stroke:#7856FA;stroke-width:1"></line><line x1="54.61697013908858" y1="54.61697013908856" x2="71.41604379380102" y2="58.85029311685432" style="stroke:#7856FA;stroke-width:1"></line><line x1="75.5" y1="1.0" x2="70.27924253477215" y2="14.40424253477213" style="stroke:#7856FA;stroke-width:1"></line><line x1="75.5" y1="1.0" x2="87.0783161894846" y2="18.637565512537893" style="stroke:#7856FA;stroke-width:1"></line><line x1="121.81326475793837" y1="71.5502620501516" x2="105.01419110322593" y2="67.31693907238585" style="stroke:#7856FA;stroke-width:1"></line><line x1="121.81326475793837" y1="71.5502620501516" x2="110.23494856845377" y2="53.91269653761371" style="stroke:#7856FA;stroke-width:1"></line><line x1="65.05848506954429" y1="27.80848506954426" x2="59.837727604316434" y2="41.21272760431643" style="stroke:#7856FA;stroke-width:1"></line><line x1="65.05848506954429" y1="27.80848506954426" x2="70.27924253477215" y2="14.40424253477213" style="stroke:#7856FA;stroke-width:1"></line><line x1="88.21511744851348" y1="63.08361609462008" x2="71.41604379380102" y2="58.85029311685432" style="stroke:#7856FA;stroke-width:1"></line><line x1="88.21511744851348" y1="63.08361609462008" x2="105.01419110322593" y2="67.31693907238585" style="stroke:#7856FA;stroke-width:1"></line><line x1="98.65663237896918" y1="36.27513102507579" x2="87.0783161894846" y2="18.637565512537893" style="stroke:#7856FA;stroke-width:1"></line><line x1="98.65663237896918" y1="36.27513102507579" x2="110.23494856845377" y2="53.91269653761371" style="stroke:#7856FA;stroke-width:1"></line><line x1="54.61697013908858" y1="54.61697013908856" x2="41.212727604316434" y2="59.83772760431643" style="stroke:#7856FA;stroke-width:1"></line><line x1="54.61697013908858" y1="54.61697013908856" x2="58.85029311685434" y2="71.41604379380102" style="stroke:#7856FA;stroke-width:1"></line><line x1="1.0" y1="75.5" x2="14.404242534772148" y2="70.27924253477214" style="stroke:#7856FA;stroke-width:1"></line><line x1="1.0" y1="75.5" x2="18.6375655125379" y2="87.0783161894846" style="stroke:#7856FA;stroke-width:1"></line><line x1="71.5502620501516" y1="121.8132647579384" x2="67.31693907238585" y2="105.01419110322593" style="stroke:#7856FA;stroke-width:1"></line><line x1="71.5502620501516" y1="121.8132647579384" x2="53.912696537613705" y2="110.2349485684538" style="stroke:#7856FA;stroke-width:1"></line><line x1="27.80848506954429" y1="65.05848506954426" x2="41.212727604316434" y2="59.83772760431643" style="stroke:#7856FA;stroke-width:1"></line><line x1="27.80848506954429" y1="65.05848506954426" x2="14.404242534772148" y2="70.27924253477214" style="stroke:#7856FA;stroke-width:1"></line><line x1="63.0836160946201" y1="88.21511744851347" x2="58.85029311685434" y2="71.41604379380102" style="stroke:#7856FA;stroke-width:1"></line><line x1="63.0836160946201" y1="88.21511744851347" x2="67.31693907238585" y2="105.01419110322593" style="stroke:#7856FA;stroke-width:1"></line><line x1="36.2751310250758" y1="98.6566323789692" x2="18.6375655125379" y2="87.0783161894846" style="stroke:#7856FA;stroke-width:1"></line><line x1="36.2751310250758" y1="98.6566323789692" x2="53.912696537613705" y2="110.2349485684538" style="stroke:#7856FA;stroke-width:1"></line><line x1="245.38302986091142" y1="245.38302986091142" x2="258.78727239568354" y2="240.16227239568357" style="stroke:#7856FA;stroke-width:1"></line><line x1="245.38302986091142" y1="245.38302986091142" x2="241.14970688314565" y2="228.58395620619896" style="stroke:#7856FA;stroke-width:1"></line><line x1="299.0" y1="224.5" x2="285.59575746522785" y2="229.72075746522788" style="stroke:#7856FA;stroke-width:1"></line><line x1="299.0" y1="224.5" x2="281.36243448746205" y2="212.9216838105154" style="stroke:#7856FA;stroke-width:1"></line><line x1="228.44973794984833" y1="178.18673524206164" x2="232.6830609276141" y2="194.98580889677407" style="stroke:#7856FA;stroke-width:1"></line><line x1="228.44973794984833" y1="178.18673524206164" x2="246.08730346238625" y2="189.76505143154623" style="stroke:#7856FA;stroke-width:1"></line><line x1="272.1915149304557" y1="234.9415149304557" x2="258.78727239568354" y2="240.16227239568357" style="stroke:#7856FA;stroke-width:1"></line><line x1="272.1915149304557" y1="234.9415149304557" x2="285.59575746522785" y2="229.72075746522788" style="stroke:#7856FA;stroke-width:1"></line><line x1="236.9163839053799" y1="211.78488255148653" x2="241.14970688314565" y2="228.58395620619896" style="stroke:#7856FA;stroke-width:1"></line><line x1="236.9163839053799" y1="211.78488255148653" x2="232.6830609276141" y2="194.98580889677407" style="stroke:#7856FA;stroke-width:1"></line><line x1="263.72486897492416" y1="201.3433676210308" x2="281.36243448746205" y2="212.9216838105154" style="stroke:#7856FA;stroke-width:1"></line><line x1="263.72486897492416" y1="201.3433676210308" x2="246.08730346238625" y2="189.76505143154623" style="stroke:#7856FA;stroke-width:1"></line><line x1="245.38302986091142" y1="245.38302986091142" x2="240.16227239568354" y2="258.7872723956836" style="stroke:#7856FA;stroke-width:1"></line><line x1="245.38302986091142" y1="245.38302986091142" x2="228.58395620619896" y2="241.14970688314565" style="stroke:#7856FA;stroke-width:1"></line><line x1="224.5" y1="299.0" x2="229.72075746522788" y2="285.59575746522785" style="stroke:#7856FA;stroke-width:1"></line><line x1="224.5" y1="299.0" x2="212.92168381051545" y2="281.3624344874621" style="stroke:#7856FA;stroke-width:1"></line><line x1="178.18673524206167" y1="228.44973794984836" x2="194.9858088967741" y2="232.68306092761412" style="stroke:#7856FA;stroke-width:1"></line><line x1="178.18673524206167" y1="228.44973794984836" x2="189.76505143154623" y2="246.08730346238627" style="stroke:#7856FA;stroke-width:1"></line><line x1="234.9415149304557" y1="272.1915149304557" x2="240.16227239568354" y2="258.7872723956836" style="stroke:#7856FA;stroke-width:1"></line><line x1="234.9415149304557" y1="272.1915149304557" x2="229.72075746522788" y2="285.59575746522785" style="stroke:#7856FA;stroke-width:1"></line><line x1="211.78488255148653" y1="236.9163839053799" x2="228.58395620619896" y2="241.14970688314565" style="stroke:#7856FA;stroke-width:1"></line><line x1="211.78488255148653" y1="236.9163839053799" x2="194.9858088967741" y2="232.68306092761412" style="stroke:#7856FA;stroke-width:1"></line><line x1="201.34336762103084" y1="263.72486897492416" x2="212.92168381051545" y2="281.3624344874621" style="stroke:#7856FA;stroke-width:1"></line><line x1="201.34336762103084" y1="263.72486897492416" x2="189.76505143154623" y2="246.08730346238627" style="stroke:#7856FA;stroke-width:1"></line><line x1="150.0" y1="150.0" x2="169.61243448746208" y2="157.0466838105154" style="stroke:#7856FA;stroke-width:1"></line><line x1="150.0" y1="150.0" x2="160.39066366697043" y2="139.60933633302957" style="stroke:#7856FA;stroke-width:1"></line><line x1="228.44973794984833" y1="178.18673524206164" x2="208.83730346238625" y2="171.14005143154623" style="stroke:#7856FA;stroke-width:1"></line><line x1="228.44973794984833" y1="178.18673524206164" x2="219.22796712935664" y2="160.7493877645758" style="stroke:#7856FA;stroke-width:1"></line><line x1="191.56265466788165" y1="108.43734533211835" x2="181.17199100091122" y2="118.82800899908878" style="stroke:#7856FA;stroke-width:1"></line><line x1="191.56265466788165" y1="108.43734533211835" x2="200.78442548837333" y2="125.87469280960418" style="stroke:#7856FA;stroke-width:1"></line><line x1="189.22486897492414" y1="164.0933676210308" x2="169.61243448746208" y2="157.0466838105154" style="stroke:#7856FA;stroke-width:1"></line><line x1="189.22486897492414" y1="164.0933676210308" x2="208.83730346238625" y2="171.14005143154623" style="stroke:#7856FA;stroke-width:1"></line><line x1="170.78132733394082" y1="129.21867266605918" x2="160.39066366697043" y2="139.60933633302957" style="stroke:#7856FA;stroke-width:1"></line><line x1="170.78132733394082" y1="129.21867266605918" x2="181.17199100091122" y2="118.82800899908878" style="stroke:#7856FA;stroke-width:1"></line><line x1="210.006196308865" y1="143.31204028708999" x2="219.22796712935664" y2="160.7493877645758" style="stroke:#7856FA;stroke-width:1"></line><line x1="210.006196308865" y1="143.31204028708999" x2="200.78442548837333" y2="125.87469280960418" style="stroke:#7856FA;stroke-width:1"></line><line x1="150.0" y1="150.0" x2="130.3875655125379" y2="142.9533161894846" style="stroke:#7856FA;stroke-width:1"></line><line x1="150.0" y1="150.0" x2="139.60933633302957" y2="160.3906636669704" style="stroke:#7856FA;stroke-width:1"></line><line x1="71.5502620501516" y1="121.8132647579384" x2="91.16269653761371" y2="128.8599485684538" style="stroke:#7856FA;stroke-width:1"></line><line x1="71.5502620501516" y1="121.8132647579384" x2="80.7720328706433" y2="139.25061223542423" style="stroke:#7856FA;stroke-width:1"></line><line x1="108.43734533211834" y1="191.56265466788162" x2="118.82800899908877" y2="181.17199100091122" style="stroke:#7856FA;stroke-width:1"></line><line x1="108.43734533211834" y1="191.56265466788162" x2="99.21557451162666" y2="174.12530719039583" style="stroke:#7856FA;stroke-width:1"></line><line x1="110.77513102507581" y1="135.9066323789692" x2="130.3875655125379" y2="142.9533161894846" style="stroke:#7856FA;stroke-width:1"></line><line x1="110.77513102507581" y1="135.9066323789692" x2="91.16269653761371" y2="128.8599485684538" style="stroke:#7856FA;stroke-width:1"></line><line x1="129.21867266605918" y1="170.7813273339408" x2="139.60933633302957" y2="160.3906636669704" style="stroke:#7856FA;stroke-width:1"></line><line x1="129.21867266605918" y1="170.7813273339408" x2="118.82800899908877" y2="181.17199100091122" style="stroke:#7856FA;stroke-width:1"></line><line x1="89.99380369113499" y1="156.68795971291001" x2="80.7720328706433" y2="139.25061223542423" style="stroke:#7856FA;stroke-width:1"></line><line x1="89.99380369113499" y1="156.68795971291001" x2="99.21557451162666" y2="174.12530719039583" style="stroke:#7856FA;stroke-width:1"></line><line x1="224.5" y1="1.0" x2="233.54104180798197" y2="10.583958192017995" style="stroke:#7856FA;stroke-width:1"></line><line x1="224.5" y1="1.0" x2="222.68786537648373" y2="14.585785153404178" style="stroke:#7856FA;stroke-width:1"></line><line x1="260.66416723192793" y1="39.335832768072045" x2="251.62312542394596" y2="29.75187457605405" style="stroke:#7856FA;stroke-width:1"></line><line x1="260.66416723192793" y1="39.335832768072045" x2="249.8109908004297" y2="43.337659729458224" style="stroke:#7856FA;stroke-width:1"></line><line x1="217.25146150593494" y1="55.343140613616775" x2="219.0635961294512" y2="41.7573554602126" style="stroke:#7856FA;stroke-width:1"></line><line x1="217.25146150593494" y1="55.343140613616775" x2="228.10463793743318" y2="51.341313652230596" style="stroke:#7856FA;stroke-width:1"></line><line x1="242.58208361596394" y1="20.167916384036022" x2="233.54104180798197" y2="10.583958192017995" style="stroke:#7856FA;stroke-width:1"></line><line x1="242.58208361596394" y1="20.167916384036022" x2="251.62312542394596" y2="29.75187457605405" style="stroke:#7856FA;stroke-width:1"></line><line x1="220.87573075296746" y1="28.171570306808388" x2="222.68786537648373" y2="14.585785153404178" style="stroke:#7856FA;stroke-width:1"></line><line x1="220.87573075296746" y1="28.171570306808388" x2="219.0635961294512" y2="41.7573554602126" style="stroke:#7856FA;stroke-width:1"></line><line x1="238.95781436893142" y1="47.33948669084441" x2="249.8109908004297" y2="43.337659729458224" style="stroke:#7856FA;stroke-width:1"></line><line x1="238.95781436893142" y1="47.33948669084441" x2="228.10463793743318" y2="51.341313652230596" style="stroke:#7856FA;stroke-width:1"></line><line x1="1.0" y1="224.5" x2="10.583958192018013" y2="233.541041807982" style="stroke:#7856FA;stroke-width:1"></line><line x1="1.0" y1="224.5" x2="14.585785153404201" y2="222.68786537648373" style="stroke:#7856FA;stroke-width:1"></line><line x1="39.33583276807205" y1="260.66416723192793" x2="29.751874576054043" y2="251.62312542394596" style="stroke:#7856FA;stroke-width:1"></line><line x1="39.33583276807205" y1="260.66416723192793" x2="43.337659729458245" y2="249.8109908004297" style="stroke:#7856FA;stroke-width:1"></line><line x1="55.343140613616804" y1="217.2514615059349" x2="41.7573554602126" y2="219.06359612945116" style="stroke:#7856FA;stroke-width:1"></line><line x1="55.343140613616804" y1="217.2514615059349" x2="51.34131365223061" y2="228.10463793743315" style="stroke:#7856FA;stroke-width:1"></line><line x1="20.167916384036026" y1="242.58208361596397" x2="10.583958192018013" y2="233.541041807982" style="stroke:#7856FA;stroke-width:1"></line><line x1="20.167916384036026" y1="242.58208361596397" x2="29.751874576054043" y2="251.62312542394596" style="stroke:#7856FA;stroke-width:1"></line><line x1="28.171570306808402" y1="220.87573075296746" x2="14.585785153404201" y2="222.68786537648373" style="stroke:#7856FA;stroke-width:1"></line><line x1="28.171570306808402" y1="220.87573075296746" x2="41.7573554602126" y2="219.06359612945116" style="stroke:#7856FA;stroke-width:1"></line><line x1="47.339486690844424" y1="238.95781436893142" x2="43.337659729458245" y2="249.8109908004297" style="stroke:#7856FA;stroke-width:1"></line><line x1="47.339486690844424" y1="238.95781436893142" x2="51.34131365223061" y2="228.10463793743315" style="stroke:#7856FA;stroke-width:1"></line><line x1="191.56265466788165" y1="108.43734533211835" x2="197.98485637739495" y2="95.16379415249295" style="stroke:#7856FA;stroke-width:1"></line><line x1="191.56265466788165" y1="108.43734533211835" x2="204.83620584750705" y2="102.01514362260505" style="stroke:#7856FA;stroke-width:1"></line><line x1="217.25146150593494" y1="55.343140613616775" x2="210.8292597964216" y2="68.61669179324218" style="stroke:#7856FA;stroke-width:1"></line><line x1="217.25146150593494" y1="55.343140613616775" x2="224.102810976047" y2="62.194490083728866" style="stroke:#7856FA;stroke-width:1"></line><line x1="244.65685938638322" y1="82.74853849406506" x2="231.38330820675782" y2="89.17074020357838" style="stroke:#7856FA;stroke-width:1"></line><line x1="244.65685938638322" y1="82.74853849406506" x2="237.80550991627115" y2="75.89718902395298" style="stroke:#7856FA;stroke-width:1"></line><line x1="204.4070580869083" y1="81.89024297286758" x2="197.98485637739495" y2="95.16379415249295" style="stroke:#7856FA;stroke-width:1"></line><line x1="204.4070580869083" y1="81.89024297286758" x2="210.8292597964216" y2="68.61669179324218" style="stroke:#7856FA;stroke-width:1"></line><line x1="218.10975702713242" y1="95.59294191309169" x2="204.83620584750705" y2="102.01514362260505" style="stroke:#7856FA;stroke-width:1"></line><line x1="218.10975702713242" y1="95.59294191309169" x2="231.38330820675782" y2="89.17074020357838" style="stroke:#7856FA;stroke-width:1"></line><line x1="230.95416044615908" y1="69.04583955384092" x2="224.102810976047" y2="62.194490083728866" style="stroke:#7856FA;stroke-width:1"></line><line x1="230.95416044615908" y1="69.04583955384092" x2="237.80550991627115" y2="75.89718902395298" style="stroke:#7856FA;stroke-width:1"></line><line x1="108.43734533211834" y1="191.56265466788162" x2="95.16379415249295" y2="197.98485637739495" style="stroke:#7856FA;stroke-width:1"></line><line x1="108.43734533211834" y1="191.56265466788162" x2="102.01514362260505" y2="204.83620584750702" style="stroke:#7856FA;stroke-width:1"></line><line x1="55.343140613616804" y1="217.2514615059349" x2="68.61669179324218" y2="210.82925979642158" style="stroke:#7856FA;stroke-width:1"></line><line x1="55.343140613616804" y1="217.2514615059349" x2="62.19449008372888" y2="224.10281097604695" style="stroke:#7856FA;stroke-width:1"></line><line x1="82.74853849406512" y1="244.6568593863832" x2="89.17074020357842" y2="231.3833082067578" style="stroke:#7856FA;stroke-width:1"></line><line x1="82.74853849406512" y1="244.6568593863832" x2="75.89718902395305" y2="237.80550991627115" style="stroke:#7856FA;stroke-width:1"></line><line x1="81.89024297286757" y1="204.40705808690828" x2="95.16379415249295" y2="197.98485637739495" style="stroke:#7856FA;stroke-width:1"></line><line x1="81.89024297286757" y1="204.40705808690828" x2="68.61669179324218" y2="210.82925979642158" style="stroke:#7856FA;stroke-width:1"></line><line x1="95.59294191309174" y1="218.10975702713242" x2="102.01514362260505" y2="204.83620584750702" style="stroke:#7856FA;stroke-width:1"></line><line x1="95.59294191309174" y1="218.10975702713242" x2="89.17074020357842" y2="231.3833082067578" style="stroke:#7856FA;stroke-width:1"></line><line x1="69.04583955384095" y1="230.95416044615905" x2="62.19449008372888" y2="224.10281097604695" style="stroke:#7856FA;stroke-width:1"></line><line x1="69.04583955384095" y1="230.95416044615905" x2="75.89718902395305" y2="237.80550991627115" style="stroke:#7856FA;stroke-width:1"></line><line x1="299.0" y1="75.5" x2="289.41604180798197" y2="66.45895819201799" style="stroke:#7856FA;stroke-width:1"></line><line x1="299.0" y1="75.5" x2="285.4142148465958" y2="77.31213462351627" style="stroke:#7856FA;stroke-width:1"></line><line x1="260.66416723192793" y1="39.335832768072045" x2="270.24812542394596" y2="48.37687457605405" style="stroke:#7856FA;stroke-width:1"></line><line x1="260.66416723192793" y1="39.335832768072045" x2="256.66234027054173" y2="50.189009199570314" style="stroke:#7856FA;stroke-width:1"></line><line x1="244.65685938638322" y1="82.74853849406506" x2="258.2426445397874" y2="80.9364038705488" style="stroke:#7856FA;stroke-width:1"></line><line x1="244.65685938638322" y1="82.74853849406506" x2="248.65868634776942" y2="71.89536206256679" style="stroke:#7856FA;stroke-width:1"></line><line x1="279.83208361596394" y1="57.41791638403602" x2="289.41604180798197" y2="66.45895819201799" style="stroke:#7856FA;stroke-width:1"></line><line x1="279.83208361596394" y1="57.41791638403602" x2="270.24812542394596" y2="48.37687457605405" style="stroke:#7856FA;stroke-width:1"></line><line x1="271.8284296931916" y1="79.12426924703253" x2="285.4142148465958" y2="77.31213462351627" style="stroke:#7856FA;stroke-width:1"></line><line x1="271.8284296931916" y1="79.12426924703253" x2="258.2426445397874" y2="80.9364038705488" style="stroke:#7856FA;stroke-width:1"></line><line x1="252.6605133091556" y1="61.042185631068556" x2="256.66234027054173" y2="50.189009199570314" style="stroke:#7856FA;stroke-width:1"></line><line x1="252.6605133091556" y1="61.042185631068556" x2="248.65868634776942" y2="71.89536206256679" style="stroke:#7856FA;stroke-width:1"></line><line x1="75.5" y1="299.0" x2="66.45895819201802" y2="289.41604180798197" style="stroke:#7856FA;stroke-width:1"></line><line x1="75.5" y1="299.0" x2="77.31213462351629" y2="285.41421484659577" style="stroke:#7856FA;stroke-width:1"></line><line x1="39.33583276807205" y1="260.66416723192793" x2="48.37687457605404" y2="270.24812542394596" style="stroke:#7856FA;stroke-width:1"></line><line x1="39.33583276807205" y1="260.66416723192793" x2="50.189009199570314" y2="256.6623402705418" style="stroke:#7856FA;stroke-width:1"></line><line x1="82.74853849406512" y1="244.6568593863832" x2="80.93640387054883" y2="258.2426445397874" style="stroke:#7856FA;stroke-width:1"></line><line x1="82.74853849406512" y1="244.6568593863832" x2="71.89536206256685" y2="248.65868634776942" style="stroke:#7856FA;stroke-width:1"></line><line x1="57.41791638403602" y1="279.832083615964" x2="66.45895819201802" y2="289.41604180798197" style="stroke:#7856FA;stroke-width:1"></line><line x1="57.41791638403602" y1="279.832083615964" x2="48.37687457605404" y2="270.24812542394596" style="stroke:#7856FA;stroke-width:1"></line><line x1="79.12426924703257" y1="271.8284296931916" x2="77.31213462351629" y2="285.41421484659577" style="stroke:#7856FA;stroke-width:1"></line><line x1="79.12426924703257" y1="271.8284296931916" x2="80.93640387054883" y2="258.2426445397874" style="stroke:#7856FA;stroke-width:1"></line><line x1="61.04218563106859" y1="252.6605133091556" x2="50.189009199570314" y2="256.6623402705418" style="stroke:#7856FA;stroke-width:1"></line><line x1="61.04218563106859" y1="252.6605133091556" x2="71.89536206256685" y2="248.65868634776942" style="stroke:#7856FA;stroke-width:1"></line><line x1="260.66416723192793" y1="39.335832768072045" x2="249.8109908004297" y2="43.337659729458224" style="stroke:#7856FA;stroke-width:1"></line><line x1="260.66416723192793" y1="39.335832768072045" x2="256.66234027054173" y2="50.189009199570314" style="stroke:#7856FA;stroke-width:1"></line><line x1="217.25146150593494" y1="55.343140613616775" x2="228.10463793743318" y2="51.341313652230596" style="stroke:#7856FA;stroke-width:1"></line><line x1="217.25146150593494" y1="55.343140613616775" x2="224.102810976047" y2="62.194490083728866" style="stroke:#7856FA;stroke-width:1"></line><line x1="244.65685938638322" y1="82.74853849406506" x2="248.65868634776942" y2="71.89536206256679" style="stroke:#7856FA;stroke-width:1"></line><line x1="244.65685938638322" y1="82.74853849406506" x2="237.80550991627115" y2="75.89718902395298" style="stroke:#7856FA;stroke-width:1"></line><line x1="238.95781436893142" y1="47.33948669084441" x2="249.8109908004297" y2="43.337659729458224" style="stroke:#7856FA;stroke-width:1"></line><line x1="238.95781436893142" y1="47.33948669084441" x2="228.10463793743318" y2="51.341313652230596" style="stroke:#7856FA;stroke-width:1"></line><line x1="252.6605133091556" y1="61.042185631068556" x2="256.66234027054173" y2="50.189009199570314" style="stroke:#7856FA;stroke-width:1"></line><line x1="252.6605133091556" y1="61.042185631068556" x2="248.65868634776942" y2="71.89536206256679" style="stroke:#7856FA;stroke-width:1"></line><line x1="230.95416044615908" y1="69.04583955384092" x2="224.102810976047" y2="62.194490083728866" style="stroke:#7856FA;stroke-width:1"></line><line x1="230.95416044615908" y1="69.04583955384092" x2="237.80550991627115" y2="75.89718902395298" style="stroke:#7856FA;stroke-width:1"></line><line x1="39.33583276807205" y1="260.66416723192793" x2="43.337659729458245" y2="249.8109908004297" style="stroke:#7856FA;stroke-width:1"></line><line x1="39.33583276807205" y1="260.66416723192793" x2="50.189009199570314" y2="256.6623402705418" style="stroke:#7856FA;stroke-width:1"></line><line x1="55.343140613616804" y1="217.2514615059349" x2="51.34131365223061" y2="228.10463793743315" style="stroke:#7856FA;stroke-width:1"></line><line x1="55.343140613616804" y1="217.2514615059349" x2="62.19449008372888" y2="224.10281097604695" style="stroke:#7856FA;stroke-width:1"></line><line x1="82.74853849406512" y1="244.6568593863832" x2="71.89536206256685" y2="248.65868634776936" style="stroke:#7856FA;stroke-width:1"></line><line x1="82.74853849406512" y1="244.6568593863832" x2="75.89718902395305" y2="237.80550991627115" style="stroke:#7856FA;stroke-width:1"></line><line x1="47.339486690844424" y1="238.95781436893142" x2="43.337659729458245" y2="249.8109908004297" style="stroke:#7856FA;stroke-width:1"></line><line x1="47.339486690844424" y1="238.95781436893142" x2="51.34131365223061" y2="228.10463793743315" style="stroke:#7856FA;stroke-width:1"></line><line x1="61.04218563106859" y1="252.6605133091556" x2="50.189009199570314" y2="256.6623402705418" style="stroke:#7856FA;stroke-width:1"></line><line x1="61.04218563106859" y1="252.6605133091556" x2="71.89536206256685" y2="248.65868634776936" style="stroke:#7856FA;stroke-width:1"></line><line x1="69.04583955384095" y1="230.95416044615905" x2="62.19449008372888" y2="224.10281097604695" style="stroke:#7856FA;stroke-width:1"></line><line x1="69.04583955384095" y1="230.95416044615905" x2="75.89718902395305" y2="237.80550991627115" style="stroke:#7856FA;stroke-width:1"></line><line x1="150.0" y1="1.0" x2="168.625" y2="1.0" style="stroke:#7856FA;stroke-width:1"></line><line x1="150.0" y1="1.0" x2="156.6443970493207" y2="12.598873161163818" style="stroke:#7856FA;stroke-width:1"></line><line x1="224.5" y1="1.0" x2="205.875" y2="1.0" style="stroke:#7856FA;stroke-width:1"></line><line x1="224.5" y1="1.0" x2="212.5193970493207" y2="12.598873161163818" style="stroke:#7856FA;stroke-width:1"></line><line x1="176.57758819728292" y1="47.3954926446552" x2="169.93319114796222" y2="35.796619483491384" style="stroke:#7856FA;stroke-width:1"></line><line x1="176.57758819728292" y1="47.3954926446552" x2="188.55819114796222" y2="35.796619483491384" style="stroke:#7856FA;stroke-width:1"></line><line x1="187.25" y1="1.0" x2="168.625" y2="1.0" style="stroke:#7856FA;stroke-width:1"></line><line x1="187.25" y1="1.0" x2="205.875" y2="1.0" style="stroke:#7856FA;stroke-width:1"></line><line x1="163.28879409864146" y1="24.1977463223276" x2="156.6443970493207" y2="12.598873161163818" style="stroke:#7856FA;stroke-width:1"></line><line x1="163.28879409864146" y1="24.1977463223276" x2="169.93319114796222" y2="35.796619483491384" style="stroke:#7856FA;stroke-width:1"></line><line x1="200.53879409864146" y1="24.1977463223276" x2="212.5193970493207" y2="12.598873161163818" style="stroke:#7856FA;stroke-width:1"></line><line x1="200.53879409864146" y1="24.1977463223276" x2="188.55819114796222" y2="35.796619483491384" style="stroke:#7856FA;stroke-width:1"></line><line x1="1.0" y1="150.0" x2="1.0" y2="168.625" style="stroke:#7856FA;stroke-width:1"></line><line x1="1.0" y1="150.0" x2="12.598873161163796" y2="156.6443970493207" style="stroke:#7856FA;stroke-width:1"></line><line x1="1.0" y1="224.5" x2="1.0" y2="205.875" style="stroke:#7856FA;stroke-width:1"></line><line x1="1.0" y1="224.5" x2="12.598873161163796" y2="212.5193970493207" style="stroke:#7856FA;stroke-width:1"></line><line x1="47.395492644655185" y1="176.57758819728292" x2="35.79661948349139" y2="169.93319114796222" style="stroke:#7856FA;stroke-width:1"></line><line x1="47.395492644655185" y1="176.57758819728292" x2="35.79661948349139" y2="188.55819114796222" style="stroke:#7856FA;stroke-width:1"></line><line x1="1.0" y1="187.25" x2="1.0" y2="168.625" style="stroke:#7856FA;stroke-width:1"></line><line x1="1.0" y1="187.25" x2="1.0" y2="205.875" style="stroke:#7856FA;stroke-width:1"></line><line x1="24.197746322327593" y1="163.28879409864146" x2="12.598873161163796" y2="156.6443970493207" style="stroke:#7856FA;stroke-width:1"></line><line x1="24.197746322327593" y1="163.28879409864146" x2="35.79661948349139" y2="169.93319114796222" style="stroke:#7856FA;stroke-width:1"></line><line x1="24.197746322327593" y1="200.53879409864146" x2="12.598873161163796" y2="212.5193970493207" style="stroke:#7856FA;stroke-width:1"></line><line x1="24.197746322327593" y1="200.53879409864146" x2="35.79661948349139" y2="188.55819114796222" style="stroke:#7856FA;stroke-width:1"></line><line x1="299.0" y1="150.0" x2="299.0" y2="131.375" style="stroke:#7856FA;stroke-width:1"></line><line x1="299.0" y1="150.0" x2="287.4011268388362" y2="143.3556029506793" style="stroke:#7856FA;stroke-width:1"></line><line x1="299.0" y1="75.5" x2="299.0" y2="94.125" style="stroke:#7856FA;stroke-width:1"></line><line x1="299.0" y1="75.5" x2="287.4011268388362" y2="87.48060295067928" style="stroke:#7856FA;stroke-width:1"></line><line x1="252.60450735534482" y1="123.42241180271708" x2="264.2033805165086" y2="130.06680885203778" style="stroke:#7856FA;stroke-width:1"></line><line x1="252.60450735534482" y1="123.42241180271708" x2="264.2033805165086" y2="111.4418088520378" style="stroke:#7856FA;stroke-width:1"></line><line x1="299.0" y1="112.75" x2="299.0" y2="131.375" style="stroke:#7856FA;stroke-width:1"></line><line x1="299.0" y1="112.75" x2="299.0" y2="94.125" style="stroke:#7856FA;stroke-width:1"></line><line x1="275.8022536776724" y1="136.71120590135854" x2="287.4011268388362" y2="143.3556029506793" style="stroke:#7856FA;stroke-width:1"></line><line x1="275.8022536776724" y1="136.71120590135854" x2="264.2033805165086" y2="130.06680885203778" style="stroke:#7856FA;stroke-width:1"></line><line x1="275.8022536776724" y1="99.46120590135854" x2="287.4011268388362" y2="87.48060295067928" style="stroke:#7856FA;stroke-width:1"></line><line x1="275.8022536776724" y1="99.46120590135854" x2="264.2033805165086" y2="111.4418088520378" style="stroke:#7856FA;stroke-width:1"></line><line x1="150.0" y1="299.0" x2="131.375" y2="299.0" style="stroke:#7856FA;stroke-width:1"></line><line x1="150.0" y1="299.0" x2="143.35560295067927" y2="287.4011268388362" style="stroke:#7856FA;stroke-width:1"></line><line x1="75.5" y1="299.0" x2="94.125" y2="299.0" style="stroke:#7856FA;stroke-width:1"></line><line x1="75.5" y1="299.0" x2="87.48060295067927" y2="287.4011268388362" style="stroke:#7856FA;stroke-width:1"></line><line x1="123.42241180271706" y1="252.60450735534482" x2="130.06680885203778" y2="264.2033805165086" style="stroke:#7856FA;stroke-width:1"></line><line x1="123.42241180271706" y1="252.60450735534482" x2="111.4418088520378" y2="264.2033805165086" style="stroke:#7856FA;stroke-width:1"></line><line x1="112.75" y1="299.0" x2="131.375" y2="299.0" style="stroke:#7856FA;stroke-width:1"></line><line x1="112.75" y1="299.0" x2="94.125" y2="299.0" style="stroke:#7856FA;stroke-width:1"></line><line x1="136.71120590135854" y1="275.8022536776724" x2="143.35560295067927" y2="287.4011268388362" style="stroke:#7856FA;stroke-width:1"></line><line x1="136.71120590135854" y1="275.8022536776724" x2="130.06680885203778" y2="264.2033805165086" style="stroke:#7856FA;stroke-width:1"></line><line x1="99.46120590135854" y1="275.8022536776724" x2="87.48060295067927" y2="287.4011268388362" style="stroke:#7856FA;stroke-width:1"></line><line x1="99.46120590135854" y1="275.8022536776724" x2="111.4418088520378" y2="264.2033805165086" style="stroke:#7856FA;stroke-width:1"></line><line x1="224.5" y1="1.0" x2="212.5193970493207" y2="12.598873161163818" style="stroke:#7856FA;stroke-width:1"></line><line x1="224.5" y1="1.0" x2="222.68786537648373" y2="14.585785153404178" style="stroke:#7856FA;stroke-width:1"></line><line x1="176.57758819728292" y1="47.3954926446552" x2="188.55819114796222" y2="35.796619483491384" style="stroke:#7856FA;stroke-width:1"></line><line x1="176.57758819728292" y1="47.3954926446552" x2="186.74605652444595" y2="49.38240463689559" style="stroke:#7856FA;stroke-width:1"></line><line x1="217.25146150593494" y1="55.343140613616775" x2="219.0635961294512" y2="41.7573554602126" style="stroke:#7856FA;stroke-width:1"></line><line x1="217.25146150593494" y1="55.343140613616775" x2="207.08299317877191" y2="53.35622862137638" style="stroke:#7856FA;stroke-width:1"></line><line x1="200.53879409864146" y1="24.1977463223276" x2="212.5193970493207" y2="12.598873161163818" style="stroke:#7856FA;stroke-width:1"></line><line x1="200.53879409864146" y1="24.1977463223276" x2="188.55819114796222" y2="35.796619483491384" style="stroke:#7856FA;stroke-width:1"></line><line x1="220.87573075296746" y1="28.171570306808388" x2="222.68786537648373" y2="14.585785153404178" style="stroke:#7856FA;stroke-width:1"></line><line x1="220.87573075296746" y1="28.171570306808388" x2="219.0635961294512" y2="41.7573554602126" style="stroke:#7856FA;stroke-width:1"></line><line x1="196.91452485160892" y1="51.36931662913599" x2="186.74605652444595" y2="49.38240463689559" style="stroke:#7856FA;stroke-width:1"></line><line x1="196.91452485160892" y1="51.36931662913599" x2="207.08299317877191" y2="53.35622862137638" style="stroke:#7856FA;stroke-width:1"></line><line x1="1.0" y1="224.5" x2="12.598873161163796" y2="212.5193970493207" style="stroke:#7856FA;stroke-width:1"></line><line x1="1.0" y1="224.5" x2="14.585785153404201" y2="222.68786537648373" style="stroke:#7856FA;stroke-width:1"></line><line x1="47.395492644655185" y1="176.57758819728292" x2="35.79661948349139" y2="188.55819114796222" style="stroke:#7856FA;stroke-width:1"></line><line x1="47.395492644655185" y1="176.57758819728292" x2="49.382404636895586" y2="186.74605652444595" style="stroke:#7856FA;stroke-width:1"></line><line x1="55.343140613616804" y1="217.2514615059349" x2="41.7573554602126" y2="219.06359612945116" style="stroke:#7856FA;stroke-width:1"></line><line x1="55.343140613616804" y1="217.2514615059349" x2="53.356228621376395" y2="207.08299317877191" style="stroke:#7856FA;stroke-width:1"></line><line x1="24.197746322327593" y1="200.53879409864146" x2="12.598873161163796" y2="212.5193970493207" style="stroke:#7856FA;stroke-width:1"></line><line x1="24.197746322327593" y1="200.53879409864146" x2="35.79661948349139" y2="188.55819114796222" style="stroke:#7856FA;stroke-width:1"></line><line x1="28.171570306808402" y1="220.87573075296746" x2="14.585785153404201" y2="222.68786537648373" style="stroke:#7856FA;stroke-width:1"></line><line x1="28.171570306808402" y1="220.87573075296746" x2="41.7573554602126" y2="219.06359612945116" style="stroke:#7856FA;stroke-width:1"></line><line x1="51.36931662913599" y1="196.91452485160892" x2="49.382404636895586" y2="186.74605652444595" style="stroke:#7856FA;stroke-width:1"></line><line x1="51.36931662913599" y1="196.91452485160892" x2="53.356228621376395" y2="207.08299317877191" style="stroke:#7856FA;stroke-width:1"></line><line x1="299.0" y1="75.5" x2="287.4011268388362" y2="87.48060295067928" style="stroke:#7856FA;stroke-width:1"></line><line x1="299.0" y1="75.5" x2="285.4142148465958" y2="77.31213462351627" style="stroke:#7856FA;stroke-width:1"></line><line x1="252.60450735534482" y1="123.42241180271708" x2="264.2033805165086" y2="111.4418088520378" style="stroke:#7856FA;stroke-width:1"></line><line x1="252.60450735534482" y1="123.42241180271708" x2="250.61759536310444" y2="113.25394347555405" style="stroke:#7856FA;stroke-width:1"></line><line x1="244.65685938638322" y1="82.74853849406506" x2="258.2426445397874" y2="80.9364038705488" style="stroke:#7856FA;stroke-width:1"></line><line x1="244.65685938638322" y1="82.74853849406506" x2="246.64377137862363" y2="92.91700682122809" style="stroke:#7856FA;stroke-width:1"></line><line x1="275.8022536776724" y1="99.46120590135854" x2="287.4011268388362" y2="87.48060295067928" style="stroke:#7856FA;stroke-width:1"></line><line x1="275.8022536776724" y1="99.46120590135854" x2="264.2033805165086" y2="111.4418088520378" style="stroke:#7856FA;stroke-width:1"></line><line x1="271.8284296931916" y1="79.12426924703253" x2="285.4142148465958" y2="77.31213462351627" style="stroke:#7856FA;stroke-width:1"></line><line x1="271.8284296931916" y1="79.12426924703253" x2="258.2426445397874" y2="80.9364038705488" style="stroke:#7856FA;stroke-width:1"></line><line x1="248.630683370864" y1="103.08547514839107" x2="250.61759536310444" y2="113.25394347555405" style="stroke:#7856FA;stroke-width:1"></line><line x1="248.630683370864" y1="103.08547514839107" x2="246.64377137862363" y2="92.91700682122809" style="stroke:#7856FA;stroke-width:1"></line><line x1="75.5" y1="299.0" x2="87.48060295067927" y2="287.4011268388362" style="stroke:#7856FA;stroke-width:1"></line><line x1="75.5" y1="299.0" x2="77.31213462351629" y2="285.41421484659577" style="stroke:#7856FA;stroke-width:1"></line><line x1="123.42241180271706" y1="252.60450735534482" x2="111.4418088520378" y2="264.2033805165086" style="stroke:#7856FA;stroke-width:1"></line><line x1="123.42241180271706" y1="252.60450735534482" x2="113.25394347555408" y2="250.6175953631044" style="stroke:#7856FA;stroke-width:1"></line><line x1="82.74853849406512" y1="244.6568593863832" x2="80.93640387054883" y2="258.2426445397874" style="stroke:#7856FA;stroke-width:1"></line><line x1="82.74853849406512" y1="244.6568593863832" x2="92.9170068212281" y2="246.64377137862363" style="stroke:#7856FA;stroke-width:1"></line><line x1="99.46120590135854" y1="275.8022536776724" x2="87.48060295067927" y2="287.4011268388362" style="stroke:#7856FA;stroke-width:1"></line><line x1="99.46120590135854" y1="275.8022536776724" x2="111.4418088520378" y2="264.2033805165086" style="stroke:#7856FA;stroke-width:1"></line><line x1="79.12426924703257" y1="271.8284296931916" x2="77.31213462351629" y2="285.41421484659577" style="stroke:#7856FA;stroke-width:1"></line><line x1="79.12426924703257" y1="271.8284296931916" x2="80.93640387054883" y2="258.2426445397874" style="stroke:#7856FA;stroke-width:1"></line><line x1="103.08547514839108" y1="248.630683370864" x2="113.25394347555408" y2="250.6175953631044" style="stroke:#7856FA;stroke-width:1"></line><line x1="103.08547514839108" y1="248.630683370864" x2="92.9170068212281" y2="246.64377137862363" style="stroke:#7856FA;stroke-width:1"></line><line x1="191.56265466788165" y1="108.43734533211835" x2="187.81638805023198" y2="93.17688216025256" style="stroke:#7856FA;stroke-width:1"></line><line x1="191.56265466788165" y1="108.43734533211835" x2="197.98485637739495" y2="95.16379415249295" style="stroke:#7856FA;stroke-width:1"></line><line x1="176.57758819728292" y1="47.3954926446552" x2="180.3238548149326" y2="62.655955816521" style="stroke:#7856FA;stroke-width:1"></line><line x1="176.57758819728292" y1="47.3954926446552" x2="186.74605652444595" y2="49.38240463689559" style="stroke:#7856FA;stroke-width:1"></line><line x1="217.25146150593494" y1="55.343140613616775" x2="210.8292597964216" y2="68.61669179324218" style="stroke:#7856FA;stroke-width:1"></line><line x1="217.25146150593494" y1="55.343140613616775" x2="207.08299317877191" y2="53.35622862137638" style="stroke:#7856FA;stroke-width:1"></line><line x1="184.07012143258225" y1="77.9164189883868" x2="187.81638805023198" y2="93.17688216025256" style="stroke:#7856FA;stroke-width:1"></line><line x1="184.07012143258225" y1="77.9164189883868" x2="180.3238548149326" y2="62.655955816521" style="stroke:#7856FA;stroke-width:1"></line><line x1="204.4070580869083" y1="81.89024297286758" x2="197.98485637739495" y2="95.16379415249295" style="stroke:#7856FA;stroke-width:1"></line><line x1="204.4070580869083" y1="81.89024297286758" x2="210.8292597964216" y2="68.61669179324218" style="stroke:#7856FA;stroke-width:1"></line><line x1="196.91452485160892" y1="51.36931662913599" x2="186.74605652444595" y2="49.38240463689559" style="stroke:#7856FA;stroke-width:1"></line><line x1="196.91452485160892" y1="51.36931662913599" x2="207.08299317877191" y2="53.35622862137638" style="stroke:#7856FA;stroke-width:1"></line><line x1="108.43734533211834" y1="191.56265466788162" x2="93.17688216025256" y2="187.81638805023192" style="stroke:#7856FA;stroke-width:1"></line><line x1="108.43734533211834" y1="191.56265466788162" x2="95.16379415249295" y2="197.98485637739495" style="stroke:#7856FA;stroke-width:1"></line><line x1="47.395492644655185" y1="176.57758819728292" x2="62.65595581652097" y2="180.3238548149326" style="stroke:#7856FA;stroke-width:1"></line><line x1="47.395492644655185" y1="176.57758819728292" x2="49.382404636895586" y2="186.74605652444595" style="stroke:#7856FA;stroke-width:1"></line><line x1="55.343140613616804" y1="217.2514615059349" x2="68.61669179324218" y2="210.82925979642158" style="stroke:#7856FA;stroke-width:1"></line><line x1="55.343140613616804" y1="217.2514615059349" x2="53.356228621376395" y2="207.08299317877191" style="stroke:#7856FA;stroke-width:1"></line><line x1="77.91641898838677" y1="184.07012143258225" x2="93.17688216025256" y2="187.81638805023192" style="stroke:#7856FA;stroke-width:1"></line><line x1="77.91641898838677" y1="184.07012143258225" x2="62.65595581652097" y2="180.3238548149326" style="stroke:#7856FA;stroke-width:1"></line><line x1="81.89024297286757" y1="204.40705808690828" x2="95.16379415249295" y2="197.98485637739495" style="stroke:#7856FA;stroke-width:1"></line><line x1="81.89024297286757" y1="204.40705808690828" x2="68.61669179324218" y2="210.82925979642158" style="stroke:#7856FA;stroke-width:1"></line><line x1="51.36931662913599" y1="196.91452485160892" x2="49.382404636895586" y2="186.74605652444595" style="stroke:#7856FA;stroke-width:1"></line><line x1="51.36931662913599" y1="196.91452485160892" x2="53.356228621376395" y2="207.08299317877191" style="stroke:#7856FA;stroke-width:1"></line><line x1="191.56265466788165" y1="108.43734533211835" x2="206.82311783974743" y2="112.18361194976804" style="stroke:#7856FA;stroke-width:1"></line><line x1="191.56265466788165" y1="108.43734533211835" x2="204.83620584750705" y2="102.01514362260505" style="stroke:#7856FA;stroke-width:1"></line><line x1="252.60450735534482" y1="123.42241180271708" x2="237.34404418347904" y2="119.67614518506741" style="stroke:#7856FA;stroke-width:1"></line><line x1="252.60450735534482" y1="123.42241180271708" x2="250.61759536310444" y2="113.25394347555405" style="stroke:#7856FA;stroke-width:1"></line><line x1="244.65685938638322" y1="82.74853849406506" x2="231.38330820675782" y2="89.17074020357838" style="stroke:#7856FA;stroke-width:1"></line><line x1="244.65685938638322" y1="82.74853849406506" x2="246.64377137862363" y2="92.91700682122809" style="stroke:#7856FA;stroke-width:1"></line><line x1="222.08358101161323" y1="115.92987856741773" x2="206.82311783974743" y2="112.18361194976804" style="stroke:#7856FA;stroke-width:1"></line><line x1="222.08358101161323" y1="115.92987856741773" x2="237.34404418347904" y2="119.67614518506741" style="stroke:#7856FA;stroke-width:1"></line><line x1="218.10975702713242" y1="95.59294191309169" x2="204.83620584750705" y2="102.01514362260505" style="stroke:#7856FA;stroke-width:1"></line><line x1="218.10975702713242" y1="95.59294191309169" x2="231.38330820675782" y2="89.17074020357838" style="stroke:#7856FA;stroke-width:1"></line><line x1="248.630683370864" y1="103.08547514839107" x2="250.61759536310444" y2="113.25394347555405" style="stroke:#7856FA;stroke-width:1"></line><line x1="248.630683370864" y1="103.08547514839107" x2="246.64377137862363" y2="92.91700682122809" style="stroke:#7856FA;stroke-width:1"></line><line x1="108.43734533211834" y1="191.56265466788162" x2="112.18361194976804" y2="206.8231178397474" style="stroke:#7856FA;stroke-width:1"></line><line x1="108.43734533211834" y1="191.56265466788162" x2="102.01514362260505" y2="204.83620584750702" style="stroke:#7856FA;stroke-width:1"></line><line x1="123.42241180271706" y1="252.60450735534482" x2="119.67614518506737" y2="237.34404418347904" style="stroke:#7856FA;stroke-width:1"></line><line x1="123.42241180271706" y1="252.60450735534482" x2="113.25394347555408" y2="250.61759536310444" style="stroke:#7856FA;stroke-width:1"></line><line x1="82.74853849406512" y1="244.6568593863832" x2="89.17074020357842" y2="231.3833082067578" style="stroke:#7856FA;stroke-width:1"></line><line x1="82.74853849406512" y1="244.6568593863832" x2="92.9170068212281" y2="246.6437713786236" style="stroke:#7856FA;stroke-width:1"></line><line x1="115.9298785674177" y1="222.0835810116132" x2="112.18361194976804" y2="206.8231178397474" style="stroke:#7856FA;stroke-width:1"></line><line x1="115.9298785674177" y1="222.0835810116132" x2="119.67614518506737" y2="237.34404418347904" style="stroke:#7856FA;stroke-width:1"></line><line x1="95.59294191309174" y1="218.10975702713242" x2="102.01514362260505" y2="204.83620584750702" style="stroke:#7856FA;stroke-width:1"></line><line x1="95.59294191309174" y1="218.10975702713242" x2="89.17074020357842" y2="231.3833082067578" style="stroke:#7856FA;stroke-width:1"></line><line x1="103.08547514839108" y1="248.630683370864" x2="113.25394347555408" y2="250.61759536310444" style="stroke:#7856FA;stroke-width:1"></line><line x1="103.08547514839108" y1="248.630683370864" x2="92.9170068212281" y2="246.6437713786236" style="stroke:#7856FA;stroke-width:1"></line><line x1="150.0" y1="1.0" x2="142.9533161894846" y2="18.637565512537893" style="stroke:#7856FA;stroke-width:1"></line><line x1="150.0" y1="1.0" x2="156.6443970493207" y2="12.598873161163818" style="stroke:#7856FA;stroke-width:1"></line><line x1="121.81326475793837" y1="71.5502620501516" x2="128.85994856845377" y2="53.91269653761371" style="stroke:#7856FA;stroke-width:1"></line><line x1="121.81326475793837" y1="71.5502620501516" x2="135.5043456177745" y2="65.51156969877749" style="stroke:#7856FA;stroke-width:1"></line><line x1="176.57758819728292" y1="47.3954926446552" x2="169.93319114796222" y2="35.796619483491384" style="stroke:#7856FA;stroke-width:1"></line><line x1="176.57758819728292" y1="47.3954926446552" x2="162.88650733744677" y2="53.43418499602931" style="stroke:#7856FA;stroke-width:1"></line><line x1="135.9066323789692" y1="36.27513102507579" x2="142.9533161894846" y2="18.637565512537893" style="stroke:#7856FA;stroke-width:1"></line><line x1="135.9066323789692" y1="36.27513102507579" x2="128.85994856845377" y2="53.91269653761371" style="stroke:#7856FA;stroke-width:1"></line><line x1="163.28879409864146" y1="24.1977463223276" x2="156.6443970493207" y2="12.598873161163818" style="stroke:#7856FA;stroke-width:1"></line><line x1="163.28879409864146" y1="24.1977463223276" x2="169.93319114796222" y2="35.796619483491384" style="stroke:#7856FA;stroke-width:1"></line><line x1="149.19542647761065" y1="59.47287734740342" x2="135.5043456177745" y2="65.51156969877749" style="stroke:#7856FA;stroke-width:1"></line><line x1="149.19542647761065" y1="59.47287734740342" x2="162.88650733744677" y2="53.43418499602931" style="stroke:#7856FA;stroke-width:1"></line><line x1="1.0" y1="150.0" x2="18.6375655125379" y2="142.9533161894846" style="stroke:#7856FA;stroke-width:1"></line><line x1="1.0" y1="150.0" x2="12.598873161163796" y2="156.6443970493207" style="stroke:#7856FA;stroke-width:1"></line><line x1="71.5502620501516" y1="121.8132647579384" x2="53.912696537613705" y2="128.8599485684538" style="stroke:#7856FA;stroke-width:1"></line><line x1="71.5502620501516" y1="121.8132647579384" x2="65.51156969877749" y2="135.50434561777456" style="stroke:#7856FA;stroke-width:1"></line><line x1="47.395492644655185" y1="176.57758819728292" x2="35.79661948349139" y2="169.93319114796222" style="stroke:#7856FA;stroke-width:1"></line><line x1="47.395492644655185" y1="176.57758819728292" x2="53.434184996029295" y2="162.8865073374468" style="stroke:#7856FA;stroke-width:1"></line><line x1="36.2751310250758" y1="135.9066323789692" x2="18.6375655125379" y2="142.9533161894846" style="stroke:#7856FA;stroke-width:1"></line><line x1="36.2751310250758" y1="135.9066323789692" x2="53.912696537613705" y2="128.8599485684538" style="stroke:#7856FA;stroke-width:1"></line><line x1="24.197746322327593" y1="163.28879409864146" x2="12.598873161163796" y2="156.6443970493207" style="stroke:#7856FA;stroke-width:1"></line><line x1="24.197746322327593" y1="163.28879409864146" x2="35.79661948349139" y2="169.93319114796222" style="stroke:#7856FA;stroke-width:1"></line><line x1="59.4728773474034" y1="149.19542647761065" x2="65.51156969877749" y2="135.50434561777456" style="stroke:#7856FA;stroke-width:1"></line><line x1="59.4728773474034" y1="149.19542647761065" x2="53.434184996029295" y2="162.8865073374468" style="stroke:#7856FA;stroke-width:1"></line><line x1="299.0" y1="1.0" x2="280.375" y2="1.0" style="stroke:#7856FA;stroke-width:1"></line><line x1="299.0" y1="1.0" x2="289.41604180798197" y2="10.583958192017995" style="stroke:#7856FA;stroke-width:1"></line><line x1="224.5" y1="1.0" x2="243.125" y2="1.0" style="stroke:#7856FA;stroke-width:1"></line><line x1="224.5" y1="1.0" x2="233.54104180798197" y2="10.583958192017995" style="stroke:#7856FA;stroke-width:1"></line><line x1="260.66416723192793" y1="39.335832768072045" x2="270.24812542394596" y2="29.75187457605405" style="stroke:#7856FA;stroke-width:1"></line><line x1="260.66416723192793" y1="39.335832768072045" x2="251.62312542394596" y2="29.75187457605405" style="stroke:#7856FA;stroke-width:1"></line><line x1="261.75" y1="1.0" x2="280.375" y2="1.0" style="stroke:#7856FA;stroke-width:1"></line><line x1="261.75" y1="1.0" x2="243.125" y2="1.0" style="stroke:#7856FA;stroke-width:1"></line><line x1="279.83208361596394" y1="20.167916384036022" x2="289.41604180798197" y2="10.583958192017995" style="stroke:#7856FA;stroke-width:1"></line><line x1="279.83208361596394" y1="20.167916384036022" x2="270.24812542394596" y2="29.75187457605405" style="stroke:#7856FA;stroke-width:1"></line><line x1="242.58208361596394" y1="20.167916384036022" x2="233.54104180798197" y2="10.583958192017995" style="stroke:#7856FA;stroke-width:1"></line><line x1="242.58208361596394" y1="20.167916384036022" x2="251.62312542394596" y2="29.75187457605405" style="stroke:#7856FA;stroke-width:1"></line><line x1="1.0" y1="299.0" x2="1.0" y2="280.375" style="stroke:#7856FA;stroke-width:1"></line><line x1="1.0" y1="299.0" x2="10.583958192018013" y2="289.41604180798197" style="stroke:#7856FA;stroke-width:1"></line><line x1="1.0" y1="224.5" x2="1.0" y2="243.125" style="stroke:#7856FA;stroke-width:1"></line><line x1="1.0" y1="224.5" x2="10.583958192018013" y2="233.541041807982" style="stroke:#7856FA;stroke-width:1"></line><line x1="39.33583276807205" y1="260.66416723192793" x2="29.751874576054043" y2="270.24812542394596" style="stroke:#7856FA;stroke-width:1"></line><line x1="39.33583276807205" y1="260.66416723192793" x2="29.751874576054043" y2="251.62312542394596" style="stroke:#7856FA;stroke-width:1"></line><line x1="1.0" y1="261.75" x2="1.0" y2="280.375" style="stroke:#7856FA;stroke-width:1"></line><line x1="1.0" y1="261.75" x2="1.0" y2="243.125" style="stroke:#7856FA;stroke-width:1"></line><line x1="20.167916384036026" y1="279.832083615964" x2="10.583958192018013" y2="289.41604180798197" style="stroke:#7856FA;stroke-width:1"></line><line x1="20.167916384036026" y1="279.832083615964" x2="29.751874576054043" y2="270.24812542394596" style="stroke:#7856FA;stroke-width:1"></line><line x1="20.167916384036026" y1="242.58208361596397" x2="10.583958192018013" y2="233.541041807982" style="stroke:#7856FA;stroke-width:1"></line><line x1="20.167916384036026" y1="242.58208361596397" x2="29.751874576054043" y2="251.62312542394596" style="stroke:#7856FA;stroke-width:1"></line><line x1="299.0" y1="150.0" x2="281.36243448746205" y2="157.0466838105154" style="stroke:#7856FA;stroke-width:1"></line><line x1="299.0" y1="150.0" x2="287.4011268388362" y2="143.3556029506793" style="stroke:#7856FA;stroke-width:1"></line><line x1="228.44973794984833" y1="178.18673524206164" x2="246.08730346238625" y2="171.14005143154623" style="stroke:#7856FA;stroke-width:1"></line><line x1="228.44973794984833" y1="178.18673524206164" x2="234.48843030122242" y2="164.4956543822255" style="stroke:#7856FA;stroke-width:1"></line><line x1="252.60450735534482" y1="123.42241180271708" x2="264.2033805165086" y2="130.06680885203778" style="stroke:#7856FA;stroke-width:1"></line><line x1="252.60450735534482" y1="123.42241180271708" x2="246.56581500397073" y2="137.11349266255323" style="stroke:#7856FA;stroke-width:1"></line><line x1="263.72486897492416" y1="164.0933676210308" x2="281.36243448746205" y2="157.0466838105154" style="stroke:#7856FA;stroke-width:1"></line><line x1="263.72486897492416" y1="164.0933676210308" x2="246.08730346238625" y2="171.14005143154623" style="stroke:#7856FA;stroke-width:1"></line><line x1="275.8022536776724" y1="136.71120590135854" x2="287.4011268388362" y2="143.3556029506793" style="stroke:#7856FA;stroke-width:1"></line><line x1="275.8022536776724" y1="136.71120590135854" x2="264.2033805165086" y2="130.06680885203778" style="stroke:#7856FA;stroke-width:1"></line><line x1="240.52712265259657" y1="150.80457352238938" x2="234.48843030122242" y2="164.4956543822255" style="stroke:#7856FA;stroke-width:1"></line><line x1="240.52712265259657" y1="150.80457352238938" x2="246.56581500397073" y2="137.11349266255323" style="stroke:#7856FA;stroke-width:1"></line><line x1="150.0" y1="299.0" x2="157.04668381051545" y2="281.3624344874621" style="stroke:#7856FA;stroke-width:1"></line><line x1="150.0" y1="299.0" x2="143.35560295067927" y2="287.4011268388362" style="stroke:#7856FA;stroke-width:1"></line><line x1="178.18673524206167" y1="228.44973794984836" x2="171.14005143154623" y2="246.08730346238627" style="stroke:#7856FA;stroke-width:1"></line><line x1="178.18673524206167" y1="228.44973794984836" x2="164.49565438222552" y2="234.4884303012225" style="stroke:#7856FA;stroke-width:1"></line><line x1="123.42241180271706" y1="252.60450735534482" x2="130.06680885203778" y2="264.2033805165086" style="stroke:#7856FA;stroke-width:1"></line><line x1="123.42241180271706" y1="252.60450735534482" x2="137.1134926625532" y2="246.56581500397073" style="stroke:#7856FA;stroke-width:1"></line><line x1="164.09336762103084" y1="263.72486897492416" x2="157.04668381051545" y2="281.3624344874621" style="stroke:#7856FA;stroke-width:1"></line><line x1="164.09336762103084" y1="263.72486897492416" x2="171.14005143154623" y2="246.08730346238627" style="stroke:#7856FA;stroke-width:1"></line><line x1="136.71120590135854" y1="275.8022536776724" x2="143.35560295067927" y2="287.4011268388362" style="stroke:#7856FA;stroke-width:1"></line><line x1="136.71120590135854" y1="275.8022536776724" x2="130.06680885203778" y2="264.2033805165086" style="stroke:#7856FA;stroke-width:1"></line><line x1="150.80457352238938" y1="240.52712265259657" x2="164.49565438222552" y2="234.4884303012225" style="stroke:#7856FA;stroke-width:1"></line><line x1="150.80457352238938" y1="240.52712265259657" x2="137.1134926625532" y2="246.56581500397073" style="stroke:#7856FA;stroke-width:1"></line><line x1="121.81326475793837" y1="71.5502620501516" x2="139.2506122354242" y2="80.7720328706433" style="stroke:#7856FA;stroke-width:1"></line><line x1="121.81326475793837" y1="71.5502620501516" x2="135.5043456177745" y2="65.51156969877749" style="stroke:#7856FA;stroke-width:1"></line><line x1="191.56265466788165" y1="108.43734533211835" x2="174.12530719039583" y2="99.21557451162667" style="stroke:#7856FA;stroke-width:1"></line><line x1="191.56265466788165" y1="108.43734533211835" x2="187.81638805023198" y2="93.17688216025256" style="stroke:#7856FA;stroke-width:1"></line><line x1="176.57758819728292" y1="47.3954926446552" x2="162.88650733744677" y2="53.43418499602931" style="stroke:#7856FA;stroke-width:1"></line><line x1="176.57758819728292" y1="47.3954926446552" x2="180.3238548149326" y2="62.655955816521" style="stroke:#7856FA;stroke-width:1"></line><line x1="156.68795971291001" y1="89.99380369113499" x2="139.2506122354242" y2="80.7720328706433" style="stroke:#7856FA;stroke-width:1"></line><line x1="156.68795971291001" y1="89.99380369113499" x2="174.12530719039583" y2="99.21557451162667" style="stroke:#7856FA;stroke-width:1"></line><line x1="149.19542647761065" y1="59.47287734740342" x2="135.5043456177745" y2="65.51156969877749" style="stroke:#7856FA;stroke-width:1"></line><line x1="149.19542647761065" y1="59.47287734740342" x2="162.88650733744677" y2="53.43418499602931" style="stroke:#7856FA;stroke-width:1"></line><line x1="184.07012143258225" y1="77.9164189883868" x2="187.81638805023198" y2="93.17688216025256" style="stroke:#7856FA;stroke-width:1"></line><line x1="184.07012143258225" y1="77.9164189883868" x2="180.3238548149326" y2="62.655955816521" style="stroke:#7856FA;stroke-width:1"></line><line x1="71.5502620501516" y1="121.8132647579384" x2="80.7720328706433" y2="139.25061223542423" style="stroke:#7856FA;stroke-width:1"></line><line x1="71.5502620501516" y1="121.8132647579384" x2="65.51156969877749" y2="135.50434561777456" style="stroke:#7856FA;stroke-width:1"></line><line x1="108.43734533211834" y1="191.56265466788162" x2="99.21557451162666" y2="174.12530719039583" style="stroke:#7856FA;stroke-width:1"></line><line x1="108.43734533211834" y1="191.56265466788162" x2="93.17688216025256" y2="187.81638805023192" style="stroke:#7856FA;stroke-width:1"></line><line x1="47.395492644655185" y1="176.57758819728292" x2="53.434184996029295" y2="162.8865073374468" style="stroke:#7856FA;stroke-width:1"></line><line x1="47.395492644655185" y1="176.57758819728292" x2="62.65595581652097" y2="180.3238548149326" style="stroke:#7856FA;stroke-width:1"></line><line x1="89.99380369113499" y1="156.68795971291001" x2="80.7720328706433" y2="139.25061223542423" style="stroke:#7856FA;stroke-width:1"></line><line x1="89.99380369113499" y1="156.68795971291001" x2="99.21557451162666" y2="174.12530719039583" style="stroke:#7856FA;stroke-width:1"></line><line x1="59.4728773474034" y1="149.19542647761065" x2="65.51156969877749" y2="135.50434561777456" style="stroke:#7856FA;stroke-width:1"></line><line x1="59.4728773474034" y1="149.19542647761065" x2="53.434184996029295" y2="162.8865073374468" style="stroke:#7856FA;stroke-width:1"></line><line x1="77.91641898838677" y1="184.07012143258225" x2="93.17688216025256" y2="187.81638805023192" style="stroke:#7856FA;stroke-width:1"></line><line x1="77.91641898838677" y1="184.07012143258225" x2="62.65595581652097" y2="180.3238548149326" style="stroke:#7856FA;stroke-width:1"></line><line x1="299.0" y1="1.0" x2="299.0" y2="19.625" style="stroke:#7856FA;stroke-width:1"></line><line x1="299.0" y1="1.0" x2="289.41604180798197" y2="10.583958192017995" style="stroke:#7856FA;stroke-width:1"></line><line x1="299.0" y1="75.5" x2="299.0" y2="56.875" style="stroke:#7856FA;stroke-width:1"></line><line x1="299.0" y1="75.5" x2="289.41604180798197" y2="66.45895819201799" style="stroke:#7856FA;stroke-width:1"></line><line x1="260.66416723192793" y1="39.335832768072045" x2="270.24812542394596" y2="29.75187457605405" style="stroke:#7856FA;stroke-width:1"></line><line x1="260.66416723192793" y1="39.335832768072045" x2="270.24812542394596" y2="48.37687457605405" style="stroke:#7856FA;stroke-width:1"></line><line x1="299.0" y1="38.25" x2="299.0" y2="19.625" style="stroke:#7856FA;stroke-width:1"></line><line x1="299.0" y1="38.25" x2="299.0" y2="56.875" style="stroke:#7856FA;stroke-width:1"></line><line x1="279.83208361596394" y1="20.167916384036022" x2="289.41604180798197" y2="10.583958192017995" style="stroke:#7856FA;stroke-width:1"></line><line x1="279.83208361596394" y1="20.167916384036022" x2="270.24812542394596" y2="29.75187457605405" style="stroke:#7856FA;stroke-width:1"></line><line x1="279.83208361596394" y1="57.41791638403602" x2="289.41604180798197" y2="66.45895819201799" style="stroke:#7856FA;stroke-width:1"></line><line x1="279.83208361596394" y1="57.41791638403602" x2="270.24812542394596" y2="48.37687457605405" style="stroke:#7856FA;stroke-width:1"></line><line x1="1.0" y1="299.0" x2="19.625" y2="299.0" style="stroke:#7856FA;stroke-width:1"></line><line x1="1.0" y1="299.0" x2="10.583958192018013" y2="289.41604180798197" style="stroke:#7856FA;stroke-width:1"></line><line x1="75.5" y1="299.0" x2="56.875" y2="299.0" style="stroke:#7856FA;stroke-width:1"></line><line x1="75.5" y1="299.0" x2="66.45895819201802" y2="289.41604180798197" style="stroke:#7856FA;stroke-width:1"></line><line x1="39.33583276807205" y1="260.66416723192793" x2="29.751874576054043" y2="270.24812542394596" style="stroke:#7856FA;stroke-width:1"></line><line x1="39.33583276807205" y1="260.66416723192793" x2="48.37687457605404" y2="270.24812542394596" style="stroke:#7856FA;stroke-width:1"></line><line x1="38.25" y1="299.0" x2="19.625" y2="299.0" style="stroke:#7856FA;stroke-width:1"></line><line x1="38.25" y1="299.0" x2="56.875" y2="299.0" style="stroke:#7856FA;stroke-width:1"></line><line x1="20.167916384036026" y1="279.832083615964" x2="10.583958192018013" y2="289.41604180798197" style="stroke:#7856FA;stroke-width:1"></line><line x1="20.167916384036026" y1="279.832083615964" x2="29.751874576054043" y2="270.24812542394596" style="stroke:#7856FA;stroke-width:1"></line><line x1="57.41791638403602" y1="279.832083615964" x2="66.45895819201802" y2="289.41604180798197" style="stroke:#7856FA;stroke-width:1"></line><line x1="57.41791638403602" y1="279.832083615964" x2="48.37687457605404" y2="270.24812542394596" style="stroke:#7856FA;stroke-width:1"></line><line x1="228.44973794984833" y1="178.18673524206164" x2="219.22796712935664" y2="160.7493877645758" style="stroke:#7856FA;stroke-width:1"></line><line x1="228.44973794984833" y1="178.18673524206164" x2="234.48843030122242" y2="164.4956543822255" style="stroke:#7856FA;stroke-width:1"></line><line x1="191.56265466788165" y1="108.43734533211835" x2="200.78442548837333" y2="125.87469280960418" style="stroke:#7856FA;stroke-width:1"></line><line x1="191.56265466788165" y1="108.43734533211835" x2="206.82311783974743" y2="112.18361194976804" style="stroke:#7856FA;stroke-width:1"></line><line x1="252.60450735534482" y1="123.42241180271708" x2="246.56581500397073" y2="137.11349266255323" style="stroke:#7856FA;stroke-width:1"></line><line x1="252.60450735534482" y1="123.42241180271708" x2="237.34404418347904" y2="119.67614518506741" style="stroke:#7856FA;stroke-width:1"></line><line x1="210.006196308865" y1="143.31204028708999" x2="219.22796712935664" y2="160.7493877645758" style="stroke:#7856FA;stroke-width:1"></line><line x1="210.006196308865" y1="143.31204028708999" x2="200.78442548837333" y2="125.87469280960418" style="stroke:#7856FA;stroke-width:1"></line><line x1="240.52712265259657" y1="150.80457352238938" x2="234.48843030122242" y2="164.4956543822255" style="stroke:#7856FA;stroke-width:1"></line><line x1="240.52712265259657" y1="150.80457352238938" x2="246.56581500397073" y2="137.11349266255323" style="stroke:#7856FA;stroke-width:1"></line><line x1="222.08358101161323" y1="115.92987856741773" x2="206.82311783974743" y2="112.18361194976804" style="stroke:#7856FA;stroke-width:1"></line><line x1="222.08358101161323" y1="115.92987856741773" x2="237.34404418347904" y2="119.67614518506741" style="stroke:#7856FA;stroke-width:1"></line><line x1="178.18673524206167" y1="228.44973794984836" x2="160.74938776457586" y2="219.2279671293567" style="stroke:#7856FA;stroke-width:1"></line><line x1="178.18673524206167" y1="228.44973794984836" x2="164.49565438222552" y2="234.4884303012225" style="stroke:#7856FA;stroke-width:1"></line><line x1="108.43734533211834" y1="191.56265466788162" x2="125.87469280960418" y2="200.78442548837333" style="stroke:#7856FA;stroke-width:1"></line><line x1="108.43734533211834" y1="191.56265466788162" x2="112.18361194976804" y2="206.8231178397474" style="stroke:#7856FA;stroke-width:1"></line><line x1="123.42241180271706" y1="252.60450735534482" x2="137.1134926625532" y2="246.56581500397073" style="stroke:#7856FA;stroke-width:1"></line><line x1="123.42241180271706" y1="252.60450735534482" x2="119.67614518506737" y2="237.34404418347904" style="stroke:#7856FA;stroke-width:1"></line><line x1="143.31204028708999" y1="210.006196308865" x2="160.74938776457586" y2="219.2279671293567" style="stroke:#7856FA;stroke-width:1"></line><line x1="143.31204028708999" y1="210.006196308865" x2="125.87469280960418" y2="200.78442548837333" style="stroke:#7856FA;stroke-width:1"></line><line x1="150.80457352238938" y1="240.52712265259657" x2="164.49565438222552" y2="234.4884303012225" style="stroke:#7856FA;stroke-width:1"></line><line x1="150.80457352238938" y1="240.52712265259657" x2="137.1134926625532" y2="246.56581500397073" style="stroke:#7856FA;stroke-width:1"></line><line x1="115.9298785674177" y1="222.0835810116132" x2="112.18361194976804" y2="206.8231178397474" style="stroke:#7856FA;stroke-width:1"></line><line x1="115.9298785674177" y1="222.0835810116132" x2="119.67614518506737" y2="237.34404418347904" style="stroke:#7856FA;stroke-width:1"></line></svg>
