<svg xmlns="http://www.w3.org/2000/svg" version="1.1" width="300" height="300.0" style="width: 100%; height: 100%;"><line x1="42.72" y1="150.0" x2="58.92543173816163" y2="169.66394640477964" style="stroke:#7856FA;stroke-width:1"></line><line x1="42.72" y1="150.0" x2="63.580000000000005" y2="150.0" style="stroke:#7856FA;stroke-width:1"></line><line x1="58.92543173816163" y1="169.66394640477964" x2="63.580000000000005" y2="150.0" style="stroke:#7856FA;stroke-width:1"></line><line x1="93.8754401574621" y1="232.00539716356533" x2="110.54543469182184" y2="255.2175494254739" style="stroke:#7856FA;stroke-width:1"></line><line x1="93.8754401574621" y1="232.00539716356533" x2="130.84285714285716" y2="235.14285714285714" style="stroke:#7856FA;stroke-width:1"></line><line x1="110.54543469182184" y1="255.2175494254739" x2="130.84285714285716" y2="235.14285714285714" style="stroke:#7856FA;stroke-width:1"></line><line x1="46.18579428613036" y1="185.35916673115403" x2="61.19388971622047" y2="214.82328019256053" style="stroke:#7856FA;stroke-width:1"></line><line x1="46.18579428613036" y1="185.35916673115403" x2="72.43786222786288" y2="190.9006564016605" style="stroke:#7856FA;stroke-width:1"></line><line x1="61.19388971622047" y1="214.82328019256053" x2="72.43786222786288" y2="190.9006564016605" style="stroke:#7856FA;stroke-width:1"></line><line x1="110.54543469182184" y1="255.2175494254739" x2="130.84285714285716" y2="235.14285714285714" style="stroke:#7856FA;stroke-width:1"></line><line x1="110.54543469182184" y1="255.2175494254739" x2="137.22857142857143" y2="256.42857142857144" style="stroke:#7856FA;stroke-width:1"></line><line x1="130.84285714285716" y1="235.14285714285714" x2="137.22857142857143" y2="256.42857142857144" style="stroke:#7856FA;stroke-width:1"></line><line x1="93.42872270910986" y1="208.24985735787078" x2="93.8754401574621" y2="232.00539716356533" style="stroke:#7856FA;stroke-width:1"></line><line x1="93.42872270910986" y1="208.24985735787078" x2="124.45714285714286" y2="213.85714285714286" style="stroke:#7856FA;stroke-width:1"></line><line x1="93.8754401574621" y1="232.00539716356533" x2="124.45714285714286" y2="213.85714285714286" style="stroke:#7856FA;stroke-width:1"></line><line x1="93.8754401574621" y1="232.00539716356533" x2="124.45714285714286" y2="213.85714285714286" style="stroke:#7856FA;stroke-width:1"></line><line x1="93.8754401574621" y1="232.00539716356533" x2="130.84285714285716" y2="235.14285714285714" style="stroke:#7856FA;stroke-width:1"></line><line x1="124.45714285714286" y1="213.85714285714286" x2="130.84285714285716" y2="235.14285714285714" style="stroke:#7856FA;stroke-width:1"></line><line x1="123.2347529145844" y1="278.3954900113943" x2="137.22857142857143" y2="256.42857142857144" style="stroke:#7856FA;stroke-width:1"></line><line x1="123.2347529145844" y1="278.3954900113943" x2="143.6142857142857" y2="277.7142857142857" style="stroke:#7856FA;stroke-width:1"></line><line x1="137.22857142857143" y1="256.42857142857144" x2="143.6142857142857" y2="277.7142857142857" style="stroke:#7856FA;stroke-width:1"></line><line x1="60.449779960555176" y1="245.05794455388042" x2="61.19388971622047" y2="214.82328019256053" style="stroke:#7856FA;stroke-width:1"></line><line x1="60.449779960555176" y1="245.05794455388042" x2="93.8754401574621" y2="232.00539716356533" style="stroke:#7856FA;stroke-width:1"></line><line x1="61.19388971622047" y1="214.82328019256053" x2="93.8754401574621" y2="232.00539716356533" style="stroke:#7856FA;stroke-width:1"></line><line x1="22.987597384215423" y1="173.0812692279389" x2="42.72" y2="150.0" style="stroke:#7856FA;stroke-width:1"></line><line x1="22.987597384215423" y1="173.0812692279389" x2="46.18579428613036" y2="185.35916673115403" style="stroke:#7856FA;stroke-width:1"></line><line x1="42.72" y1="150.0" x2="46.18579428613036" y2="185.35916673115403" style="stroke:#7856FA;stroke-width:1"></line><line x1="30.924393460591226" y1="254.390032086293" x2="34.74263560281978" y2="228.65608479618115" style="stroke:#7856FA;stroke-width:1"></line><line x1="30.924393460591226" y1="254.390032086293" x2="60.449779960555176" y2="245.05794455388042" style="stroke:#7856FA;stroke-width:1"></line><line x1="34.74263560281978" y1="228.65608479618115" x2="60.449779960555176" y2="245.05794455388042" style="stroke:#7856FA;stroke-width:1"></line><line x1="1.0" y1="187.25" x2="1.0" y2="150.0" style="stroke:#7856FA;stroke-width:1"></line><line x1="1.0" y1="187.25" x2="22.987597384215423" y2="173.0812692279389" style="stroke:#7856FA;stroke-width:1"></line><line x1="1.0" y1="150.0" x2="22.987597384215423" y2="173.0812692279389" style="stroke:#7856FA;stroke-width:1"></line><line x1="22.987597384215423" y1="173.0812692279389" x2="27.00090448284673" y2="203.4318303188699" style="stroke:#7856FA;stroke-width:1"></line><line x1="22.987597384215423" y1="173.0812692279389" x2="46.18579428613036" y2="185.35916673115403" style="stroke:#7856FA;stroke-width:1"></line><line x1="27.00090448284673" y1="203.4318303188699" x2="46.18579428613036" y2="185.35916673115403" style="stroke:#7856FA;stroke-width:1"></line><line x1="1.0" y1="224.5" x2="1.0" y2="187.25" style="stroke:#7856FA;stroke-width:1"></line><line x1="1.0" y1="224.5" x2="27.00090448284673" y2="203.4318303188699" style="stroke:#7856FA;stroke-width:1"></line><line x1="1.0" y1="187.25" x2="27.00090448284673" y2="203.4318303188699" style="stroke:#7856FA;stroke-width:1"></line><line x1="1.0" y1="187.25" x2="22.987597384215423" y2="173.0812692279389" style="stroke:#7856FA;stroke-width:1"></line><line x1="1.0" y1="187.25" x2="27.00090448284673" y2="203.4318303188699" style="stroke:#7856FA;stroke-width:1"></line><line x1="22.987597384215423" y1="173.0812692279389" x2="27.00090448284673" y2="203.4318303188699" style="stroke:#7856FA;stroke-width:1"></line><line x1="1.0" y1="150.0" x2="21.86" y2="150.0" style="stroke:#7856FA;stroke-width:1"></line><line x1="1.0" y1="150.0" x2="22.987597384215423" y2="173.0812692279389" style="stroke:#7856FA;stroke-width:1"></line><line x1="21.86" y1="150.0" x2="22.987597384215423" y2="173.0812692279389" style="stroke:#7856FA;stroke-width:1"></line><line x1="27.00090448284673" y1="203.4318303188699" x2="46.18579428613036" y2="185.35916673115403" style="stroke:#7856FA;stroke-width:1"></line><line x1="27.00090448284673" y1="203.4318303188699" x2="61.19388971622047" y2="214.82328019256053" style="stroke:#7856FA;stroke-width:1"></line><line x1="46.18579428613036" y1="185.35916673115403" x2="61.19388971622047" y2="214.82328019256053" style="stroke:#7856FA;stroke-width:1"></line><line x1="21.86" y1="150.0" x2="22.987597384215423" y2="173.0812692279389" style="stroke:#7856FA;stroke-width:1"></line><line x1="21.86" y1="150.0" x2="42.72" y2="150.0" style="stroke:#7856FA;stroke-width:1"></line><line x1="22.987597384215423" y1="173.0812692279389" x2="42.72" y2="150.0" style="stroke:#7856FA;stroke-width:1"></line><line x1="21.266671032138383" y1="278.49498776345416" x2="38.25" y2="299.0" style="stroke:#7856FA;stroke-width:1"></line><line x1="21.266671032138383" y1="278.49498776345416" x2="44.357083654166395" y2="270.79518129792206" style="stroke:#7856FA;stroke-width:1"></line><line x1="38.25" y1="299.0" x2="44.357083654166395" y2="270.79518129792206" style="stroke:#7856FA;stroke-width:1"></line><line x1="112.75" y1="299.0" x2="123.2347529145844" y2="278.3954900113943" style="stroke:#7856FA;stroke-width:1"></line><line x1="112.75" y1="299.0" x2="150.0" y2="299.0" style="stroke:#7856FA;stroke-width:1"></line><line x1="123.2347529145844" y1="278.3954900113943" x2="150.0" y2="299.0" style="stroke:#7856FA;stroke-width:1"></line><line x1="44.357083654166395" y1="270.79518129792206" x2="60.449779960555176" y2="245.05794455388042" style="stroke:#7856FA;stroke-width:1"></line><line x1="44.357083654166395" y1="270.79518129792206" x2="65.80921426240229" y2="275.9808934062064" style="stroke:#7856FA;stroke-width:1"></line><line x1="60.449779960555176" y1="245.05794455388042" x2="65.80921426240229" y2="275.9808934062064" style="stroke:#7856FA;stroke-width:1"></line><line x1="95.10155180917347" y1="278.3423408778441" x2="110.54543469182184" y2="255.2175494254739" style="stroke:#7856FA;stroke-width:1"></line><line x1="95.10155180917347" y1="278.3423408778441" x2="123.2347529145844" y2="278.3954900113943" style="stroke:#7856FA;stroke-width:1"></line><line x1="110.54543469182184" y1="255.2175494254739" x2="123.2347529145844" y2="278.3954900113943" style="stroke:#7856FA;stroke-width:1"></line><line x1="38.25" y1="299.0" x2="65.80921426240229" y2="275.9808934062064" style="stroke:#7856FA;stroke-width:1"></line><line x1="38.25" y1="299.0" x2="75.5" y2="299.0" style="stroke:#7856FA;stroke-width:1"></line><line x1="65.80921426240229" y1="275.9808934062064" x2="75.5" y2="299.0" style="stroke:#7856FA;stroke-width:1"></line><line x1="75.5" y1="299.0" x2="95.10155180917347" y2="278.3423408778441" style="stroke:#7856FA;stroke-width:1"></line><line x1="75.5" y1="299.0" x2="112.75" y2="299.0" style="stroke:#7856FA;stroke-width:1"></line><line x1="95.10155180917347" y1="278.3423408778441" x2="112.75" y2="299.0" style="stroke:#7856FA;stroke-width:1"></line><line x1="38.25" y1="299.0" x2="44.357083654166395" y2="270.79518129792206" style="stroke:#7856FA;stroke-width:1"></line><line x1="38.25" y1="299.0" x2="65.80921426240229" y2="275.9808934062064" style="stroke:#7856FA;stroke-width:1"></line><line x1="44.357083654166395" y1="270.79518129792206" x2="65.80921426240229" y2="275.9808934062064" style="stroke:#7856FA;stroke-width:1"></line><line x1="95.10155180917347" y1="278.3423408778441" x2="112.75" y2="299.0" style="stroke:#7856FA;stroke-width:1"></line><line x1="95.10155180917347" y1="278.3423408778441" x2="123.2347529145844" y2="278.3954900113943" style="stroke:#7856FA;stroke-width:1"></line><line x1="112.75" y1="299.0" x2="123.2347529145844" y2="278.3954900113943" style="stroke:#7856FA;stroke-width:1"></line><line x1="60.449779960555176" y1="245.05794455388042" x2="84.41257216978711" y2="256.6775112222293" style="stroke:#7856FA;stroke-width:1"></line><line x1="60.449779960555176" y1="245.05794455388042" x2="93.8754401574621" y2="232.00539716356533" style="stroke:#7856FA;stroke-width:1"></line><line x1="84.41257216978711" y1="256.6775112222293" x2="93.8754401574621" y2="232.00539716356533" style="stroke:#7856FA;stroke-width:1"></line><line x1="84.41257216978711" y1="256.6775112222293" x2="93.8754401574621" y2="232.00539716356533" style="stroke:#7856FA;stroke-width:1"></line><line x1="84.41257216978711" y1="256.6775112222293" x2="110.54543469182184" y2="255.2175494254739" style="stroke:#7856FA;stroke-width:1"></line><line x1="93.8754401574621" y1="232.00539716356533" x2="110.54543469182184" y2="255.2175494254739" style="stroke:#7856FA;stroke-width:1"></line><line x1="60.449779960555176" y1="245.05794455388042" x2="65.80921426240229" y2="275.9808934062064" style="stroke:#7856FA;stroke-width:1"></line><line x1="60.449779960555176" y1="245.05794455388042" x2="84.41257216978711" y2="256.6775112222293" style="stroke:#7856FA;stroke-width:1"></line><line x1="65.80921426240229" y1="275.9808934062064" x2="84.41257216978711" y2="256.6775112222293" style="stroke:#7856FA;stroke-width:1"></line><line x1="84.41257216978711" y1="256.6775112222293" x2="95.10155180917347" y2="278.3423408778441" style="stroke:#7856FA;stroke-width:1"></line><line x1="84.41257216978711" y1="256.6775112222293" x2="110.54543469182184" y2="255.2175494254739" style="stroke:#7856FA;stroke-width:1"></line><line x1="95.10155180917347" y1="278.3423408778441" x2="110.54543469182184" y2="255.2175494254739" style="stroke:#7856FA;stroke-width:1"></line><line x1="65.80921426240229" y1="275.9808934062064" x2="84.41257216978711" y2="256.6775112222293" style="stroke:#7856FA;stroke-width:1"></line><line x1="65.80921426240229" y1="275.9808934062064" x2="95.10155180917347" y2="278.3423408778441" style="stroke:#7856FA;stroke-width:1"></line><line x1="84.41257216978711" y1="256.6775112222293" x2="95.10155180917347" y2="278.3423408778441" style="stroke:#7856FA;stroke-width:1"></line><line x1="65.80921426240229" y1="275.9808934062064" x2="75.5" y2="299.0" style="stroke:#7856FA;stroke-width:1"></line><line x1="65.80921426240229" y1="275.9808934062064" x2="95.10155180917347" y2="278.3423408778441" style="stroke:#7856FA;stroke-width:1"></line><line x1="75.5" y1="299.0" x2="95.10155180917347" y2="278.3423408778441" style="stroke:#7856FA;stroke-width:1"></line><line x1="123.2347529145844" y1="278.3954900113943" x2="143.6142857142857" y2="277.7142857142857" style="stroke:#7856FA;stroke-width:1"></line><line x1="123.2347529145844" y1="278.3954900113943" x2="150.0" y2="299.0" style="stroke:#7856FA;stroke-width:1"></line><line x1="143.6142857142857" y1="277.7142857142857" x2="150.0" y2="299.0" style="stroke:#7856FA;stroke-width:1"></line><line x1="110.54543469182184" y1="255.2175494254739" x2="123.2347529145844" y2="278.3954900113943" style="stroke:#7856FA;stroke-width:1"></line><line x1="110.54543469182184" y1="255.2175494254739" x2="137.22857142857143" y2="256.42857142857144" style="stroke:#7856FA;stroke-width:1"></line><line x1="123.2347529145844" y1="278.3954900113943" x2="137.22857142857143" y2="256.42857142857144" style="stroke:#7856FA;stroke-width:1"></line><line x1="30.924393460591226" y1="254.390032086293" x2="44.357083654166395" y2="270.79518129792206" style="stroke:#7856FA;stroke-width:1"></line><line x1="30.924393460591226" y1="254.390032086293" x2="60.449779960555176" y2="245.05794455388042" style="stroke:#7856FA;stroke-width:1"></line><line x1="44.357083654166395" y1="270.79518129792206" x2="60.449779960555176" y2="245.05794455388042" style="stroke:#7856FA;stroke-width:1"></line><line x1="1.0" y1="299.0" x2="1.0" y2="261.75" style="stroke:#7856FA;stroke-width:1"></line><line x1="1.0" y1="299.0" x2="21.266671032138383" y2="278.49498776345416" style="stroke:#7856FA;stroke-width:1"></line><line x1="1.0" y1="261.75" x2="21.266671032138383" y2="278.49498776345416" style="stroke:#7856FA;stroke-width:1"></line><line x1="1.0" y1="261.75" x2="15.95011587921594" y2="242.00032028754512" style="stroke:#7856FA;stroke-width:1"></line><line x1="1.0" y1="261.75" x2="30.924393460591226" y2="254.390032086293" style="stroke:#7856FA;stroke-width:1"></line><line x1="15.95011587921594" y1="242.00032028754512" x2="30.924393460591226" y2="254.390032086293" style="stroke:#7856FA;stroke-width:1"></line><line x1="1.0" y1="261.75" x2="1.0" y2="224.5" style="stroke:#7856FA;stroke-width:1"></line><line x1="1.0" y1="261.75" x2="15.95011587921594" y2="242.00032028754512" style="stroke:#7856FA;stroke-width:1"></line><line x1="1.0" y1="224.5" x2="15.95011587921594" y2="242.00032028754512" style="stroke:#7856FA;stroke-width:1"></line><line x1="1.0" y1="261.75" x2="21.266671032138383" y2="278.49498776345416" style="stroke:#7856FA;stroke-width:1"></line><line x1="1.0" y1="261.75" x2="30.924393460591226" y2="254.390032086293" style="stroke:#7856FA;stroke-width:1"></line><line x1="21.266671032138383" y1="278.49498776345416" x2="30.924393460591226" y2="254.390032086293" style="stroke:#7856FA;stroke-width:1"></line><line x1="34.74263560281978" y1="228.65608479618115" x2="60.449779960555176" y2="245.05794455388042" style="stroke:#7856FA;stroke-width:1"></line><line x1="34.74263560281978" y1="228.65608479618115" x2="61.19388971622047" y2="214.82328019256053" style="stroke:#7856FA;stroke-width:1"></line><line x1="60.449779960555176" y1="245.05794455388042" x2="61.19388971622047" y2="214.82328019256053" style="stroke:#7856FA;stroke-width:1"></line><line x1="15.95011587921594" y1="242.00032028754512" x2="30.924393460591226" y2="254.390032086293" style="stroke:#7856FA;stroke-width:1"></line><line x1="15.95011587921594" y1="242.00032028754512" x2="34.74263560281978" y2="228.65608479618115" style="stroke:#7856FA;stroke-width:1"></line><line x1="30.924393460591226" y1="254.390032086293" x2="34.74263560281978" y2="228.65608479618115" style="stroke:#7856FA;stroke-width:1"></line><line x1="1.0" y1="224.5" x2="15.95011587921594" y2="242.00032028754512" style="stroke:#7856FA;stroke-width:1"></line><line x1="1.0" y1="224.5" x2="34.74263560281978" y2="228.65608479618115" style="stroke:#7856FA;stroke-width:1"></line><line x1="15.95011587921594" y1="242.00032028754512" x2="34.74263560281978" y2="228.65608479618115" style="stroke:#7856FA;stroke-width:1"></line><line x1="27.00090448284673" y1="203.4318303188699" x2="34.74263560281978" y2="228.65608479618115" style="stroke:#7856FA;stroke-width:1"></line><line x1="27.00090448284673" y1="203.4318303188699" x2="61.19388971622047" y2="214.82328019256053" style="stroke:#7856FA;stroke-width:1"></line><line x1="34.74263560281978" y1="228.65608479618115" x2="61.19388971622047" y2="214.82328019256053" style="stroke:#7856FA;stroke-width:1"></line><line x1="1.0" y1="299.0" x2="21.266671032138383" y2="278.49498776345416" style="stroke:#7856FA;stroke-width:1"></line><line x1="1.0" y1="299.0" x2="38.25" y2="299.0" style="stroke:#7856FA;stroke-width:1"></line><line x1="21.266671032138383" y1="278.49498776345416" x2="38.25" y2="299.0" style="stroke:#7856FA;stroke-width:1"></line><line x1="1.0" y1="224.5" x2="27.00090448284673" y2="203.4318303188699" style="stroke:#7856FA;stroke-width:1"></line><line x1="1.0" y1="224.5" x2="34.74263560281978" y2="228.65608479618115" style="stroke:#7856FA;stroke-width:1"></line><line x1="27.00090448284673" y1="203.4318303188699" x2="34.74263560281978" y2="228.65608479618115" style="stroke:#7856FA;stroke-width:1"></line><line x1="21.266671032138383" y1="278.49498776345416" x2="30.924393460591226" y2="254.390032086293" style="stroke:#7856FA;stroke-width:1"></line><line x1="21.266671032138383" y1="278.49498776345416" x2="44.357083654166395" y2="270.79518129792206" style="stroke:#7856FA;stroke-width:1"></line><line x1="30.924393460591226" y1="254.390032086293" x2="44.357083654166395" y2="270.79518129792206" style="stroke:#7856FA;stroke-width:1"></line><line x1="89.78850847438714" y1="177.14812297897333" x2="94.18181515122896" y2="162.95640413192874" style="stroke:#7856FA;stroke-width:1"></line><line x1="89.78850847438714" y1="177.14812297897333" x2="111.68571428571428" y2="171.28571428571428" style="stroke:#7856FA;stroke-width:1"></line><line x1="94.18181515122896" y1="162.95640413192874" x2="111.68571428571428" y2="171.28571428571428" style="stroke:#7856FA;stroke-width:1"></line><line x1="72.43786222786288" y1="190.9006564016605" x2="75.92623376632966" y2="167.3453634221222" style="stroke:#7856FA;stroke-width:1"></line><line x1="72.43786222786288" y1="190.9006564016605" x2="89.78850847438714" y2="177.14812297897333" style="stroke:#7856FA;stroke-width:1"></line><line x1="75.92623376632966" y1="167.3453634221222" x2="89.78850847438714" y2="177.14812297897333" style="stroke:#7856FA;stroke-width:1"></line><line x1="75.92623376632966" y1="167.3453634221222" x2="84.44" y2="150.0" style="stroke:#7856FA;stroke-width:1"></line><line x1="75.92623376632966" y1="167.3453634221222" x2="94.18181515122896" y2="162.95640413192874" style="stroke:#7856FA;stroke-width:1"></line><line x1="84.44" y1="150.0" x2="94.18181515122896" y2="162.95640413192874" style="stroke:#7856FA;stroke-width:1"></line><line x1="75.92623376632966" y1="167.3453634221222" x2="89.78850847438714" y2="177.14812297897333" style="stroke:#7856FA;stroke-width:1"></line><line x1="75.92623376632966" y1="167.3453634221222" x2="94.18181515122896" y2="162.95640413192874" style="stroke:#7856FA;stroke-width:1"></line><line x1="89.78850847438714" y1="177.14812297897333" x2="94.18181515122896" y2="162.95640413192874" style="stroke:#7856FA;stroke-width:1"></line><line x1="63.580000000000005" y1="150.0" x2="75.92623376632966" y2="167.3453634221222" style="stroke:#7856FA;stroke-width:1"></line><line x1="63.580000000000005" y1="150.0" x2="84.44" y2="150.0" style="stroke:#7856FA;stroke-width:1"></line><line x1="75.92623376632966" y1="167.3453634221222" x2="84.44" y2="150.0" style="stroke:#7856FA;stroke-width:1"></line><line x1="93.42872270910986" y1="208.24985735787078" x2="118.07142857142857" y2="192.57142857142856" style="stroke:#7856FA;stroke-width:1"></line><line x1="93.42872270910986" y1="208.24985735787078" x2="124.45714285714286" y2="213.85714285714286" style="stroke:#7856FA;stroke-width:1"></line><line x1="118.07142857142857" y1="192.57142857142856" x2="124.45714285714286" y2="213.85714285714286" style="stroke:#7856FA;stroke-width:1"></line><line x1="97.34844834565233" y1="189.248221080804" x2="111.68571428571428" y2="171.28571428571428" style="stroke:#7856FA;stroke-width:1"></line><line x1="97.34844834565233" y1="189.248221080804" x2="118.07142857142857" y2="192.57142857142856" style="stroke:#7856FA;stroke-width:1"></line><line x1="111.68571428571428" y1="171.28571428571428" x2="118.07142857142857" y2="192.57142857142856" style="stroke:#7856FA;stroke-width:1"></line><line x1="58.92543173816163" y1="169.66394640477964" x2="63.580000000000005" y2="150.0" style="stroke:#7856FA;stroke-width:1"></line><line x1="58.92543173816163" y1="169.66394640477964" x2="75.92623376632966" y2="167.3453634221222" style="stroke:#7856FA;stroke-width:1"></line><line x1="63.580000000000005" y1="150.0" x2="75.92623376632966" y2="167.3453634221222" style="stroke:#7856FA;stroke-width:1"></line><line x1="93.42872270910986" y1="208.24985735787078" x2="97.34844834565233" y2="189.248221080804" style="stroke:#7856FA;stroke-width:1"></line><line x1="93.42872270910986" y1="208.24985735787078" x2="118.07142857142857" y2="192.57142857142856" style="stroke:#7856FA;stroke-width:1"></line><line x1="97.34844834565233" y1="189.248221080804" x2="118.07142857142857" y2="192.57142857142856" style="stroke:#7856FA;stroke-width:1"></line><line x1="89.78850847438714" y1="177.14812297897333" x2="97.34844834565233" y2="189.248221080804" style="stroke:#7856FA;stroke-width:1"></line><line x1="89.78850847438714" y1="177.14812297897333" x2="111.68571428571428" y2="171.28571428571428" style="stroke:#7856FA;stroke-width:1"></line><line x1="97.34844834565233" y1="189.248221080804" x2="111.68571428571428" y2="171.28571428571428" style="stroke:#7856FA;stroke-width:1"></line><line x1="58.92543173816163" y1="169.66394640477964" x2="72.43786222786288" y2="190.9006564016605" style="stroke:#7856FA;stroke-width:1"></line><line x1="58.92543173816163" y1="169.66394640477964" x2="75.92623376632966" y2="167.3453634221222" style="stroke:#7856FA;stroke-width:1"></line><line x1="72.43786222786288" y1="190.9006564016605" x2="75.92623376632966" y2="167.3453634221222" style="stroke:#7856FA;stroke-width:1"></line><line x1="72.43786222786288" y1="190.9006564016605" x2="93.42872270910986" y2="208.24985735787078" style="stroke:#7856FA;stroke-width:1"></line><line x1="72.43786222786288" y1="190.9006564016605" x2="97.34844834565233" y2="189.248221080804" style="stroke:#7856FA;stroke-width:1"></line><line x1="93.42872270910986" y1="208.24985735787078" x2="97.34844834565233" y2="189.248221080804" style="stroke:#7856FA;stroke-width:1"></line><line x1="72.43786222786288" y1="190.9006564016605" x2="89.78850847438714" y2="177.14812297897333" style="stroke:#7856FA;stroke-width:1"></line><line x1="72.43786222786288" y1="190.9006564016605" x2="97.34844834565233" y2="189.248221080804" style="stroke:#7856FA;stroke-width:1"></line><line x1="89.78850847438714" y1="177.14812297897333" x2="97.34844834565233" y2="189.248221080804" style="stroke:#7856FA;stroke-width:1"></line><line x1="94.18181515122896" y1="162.95640413192874" x2="105.3" y2="150.0" style="stroke:#7856FA;stroke-width:1"></line><line x1="94.18181515122896" y1="162.95640413192874" x2="111.68571428571428" y2="171.28571428571428" style="stroke:#7856FA;stroke-width:1"></line><line x1="105.3" y1="150.0" x2="111.68571428571428" y2="171.28571428571428" style="stroke:#7856FA;stroke-width:1"></line><line x1="61.19388971622047" y1="214.82328019256053" x2="93.42872270910986" y2="208.24985735787078" style="stroke:#7856FA;stroke-width:1"></line><line x1="61.19388971622047" y1="214.82328019256053" x2="93.8754401574621" y2="232.00539716356533" style="stroke:#7856FA;stroke-width:1"></line><line x1="93.42872270910986" y1="208.24985735787078" x2="93.8754401574621" y2="232.00539716356533" style="stroke:#7856FA;stroke-width:1"></line><line x1="42.72" y1="150.0" x2="46.18579428613036" y2="185.35916673115403" style="stroke:#7856FA;stroke-width:1"></line><line x1="42.72" y1="150.0" x2="58.92543173816163" y2="169.66394640477964" style="stroke:#7856FA;stroke-width:1"></line><line x1="46.18579428613036" y1="185.35916673115403" x2="58.92543173816163" y2="169.66394640477964" style="stroke:#7856FA;stroke-width:1"></line><line x1="84.44" y1="150.0" x2="94.18181515122896" y2="162.95640413192874" style="stroke:#7856FA;stroke-width:1"></line><line x1="84.44" y1="150.0" x2="105.3" y2="150.0" style="stroke:#7856FA;stroke-width:1"></line><line x1="94.18181515122896" y1="162.95640413192874" x2="105.3" y2="150.0" style="stroke:#7856FA;stroke-width:1"></line><line x1="61.19388971622047" y1="214.82328019256053" x2="72.43786222786288" y2="190.9006564016605" style="stroke:#7856FA;stroke-width:1"></line><line x1="61.19388971622047" y1="214.82328019256053" x2="93.42872270910986" y2="208.24985735787078" style="stroke:#7856FA;stroke-width:1"></line><line x1="72.43786222786288" y1="190.9006564016605" x2="93.42872270910986" y2="208.24985735787078" style="stroke:#7856FA;stroke-width:1"></line><line x1="46.18579428613036" y1="185.35916673115403" x2="58.92543173816163" y2="169.66394640477964" style="stroke:#7856FA;stroke-width:1"></line><line x1="46.18579428613036" y1="185.35916673115403" x2="72.43786222786288" y2="190.9006564016605" style="stroke:#7856FA;stroke-width:1"></line><line x1="58.92543173816163" y1="169.66394640477964" x2="72.43786222786288" y2="190.9006564016605" style="stroke:#7856FA;stroke-width:1"></line><line x1="42.72" y1="150.0" x2="52.71753112520094" y2="116.90102711731672" style="stroke:#7856FA;stroke-width:1"></line><line x1="42.72" y1="150.0" x2="63.580000000000005" y2="150.0" style="stroke:#7856FA;stroke-width:1"></line><line x1="52.71753112520094" y1="116.90102711731672" x2="63.580000000000005" y2="150.0" style="stroke:#7856FA;stroke-width:1"></line><line x1="63.580000000000005" y1="150.0" x2="82.52264668972202" y2="118.75958237259276" style="stroke:#7856FA;stroke-width:1"></line><line x1="63.580000000000005" y1="150.0" x2="84.44" y2="150.0" style="stroke:#7856FA;stroke-width:1"></line><line x1="82.52264668972202" y1="118.75958237259276" x2="84.44" y2="150.0" style="stroke:#7856FA;stroke-width:1"></line><line x1="130.84285714285716" y1="235.14285714285714" x2="137.22857142857143" y2="256.42857142857144" style="stroke:#7856FA;stroke-width:1"></line><line x1="130.84285714285716" y1="235.14285714285714" x2="164.97800469172685" y2="220.1606822304546" style="stroke:#7856FA;stroke-width:1"></line><line x1="137.22857142857143" y1="256.42857142857144" x2="164.97800469172685" y2="220.1606822304546" style="stroke:#7856FA;stroke-width:1"></line><line x1="21.86" y1="150.0" x2="25.095822478629906" y2="125.37628021743927" style="stroke:#7856FA;stroke-width:1"></line><line x1="21.86" y1="150.0" x2="42.72" y2="150.0" style="stroke:#7856FA;stroke-width:1"></line><line x1="25.095822478629906" y1="125.37628021743927" x2="42.72" y2="150.0" style="stroke:#7856FA;stroke-width:1"></line><line x1="137.22857142857143" y1="256.42857142857144" x2="143.6142857142857" y2="277.7142857142857" style="stroke:#7856FA;stroke-width:1"></line><line x1="137.22857142857143" y1="256.42857142857144" x2="167.75498448036168" y2="274.6526107024732" style="stroke:#7856FA;stroke-width:1"></line><line x1="143.6142857142857" y1="277.7142857142857" x2="167.75498448036168" y2="274.6526107024732" style="stroke:#7856FA;stroke-width:1"></line><line x1="124.45714285714286" y1="213.85714285714286" x2="158.98274031161557" y2="180.83529216319565" style="stroke:#7856FA;stroke-width:1"></line><line x1="124.45714285714286" y1="213.85714285714286" x2="164.97800469172685" y2="220.1606822304546" style="stroke:#7856FA;stroke-width:1"></line><line x1="158.98274031161557" y1="180.83529216319565" x2="164.97800469172685" y2="220.1606822304546" style="stroke:#7856FA;stroke-width:1"></line><line x1="124.45714285714286" y1="213.85714285714286" x2="130.84285714285716" y2="235.14285714285714" style="stroke:#7856FA;stroke-width:1"></line><line x1="124.45714285714286" y1="213.85714285714286" x2="164.97800469172685" y2="220.1606822304546" style="stroke:#7856FA;stroke-width:1"></line><line x1="130.84285714285716" y1="235.14285714285714" x2="164.97800469172685" y2="220.1606822304546" style="stroke:#7856FA;stroke-width:1"></line><line x1="170.42599554131502" y1="130.82219062331697" x2="194.9467065417515" y2="161.601583452153" style="stroke:#7856FA;stroke-width:1"></line><line x1="170.42599554131502" y1="130.82219062331697" x2="209.66446151085248" y2="126.04057599128807" style="stroke:#7856FA;stroke-width:1"></line><line x1="194.9467065417515" y1="161.601583452153" x2="209.66446151085248" y2="126.04057599128807" style="stroke:#7856FA;stroke-width:1"></line><line x1="30.482487040214256" y1="92.51229409276675" x2="52.71753112520094" y2="116.90102711731672" style="stroke:#7856FA;stroke-width:1"></line><line x1="30.482487040214256" y1="92.51229409276675" x2="64.95880865043578" y2="81.68125153060345" style="stroke:#7856FA;stroke-width:1"></line><line x1="52.71753112520094" y1="116.90102711731672" x2="64.95880865043578" y2="81.68125153060345" style="stroke:#7856FA;stroke-width:1"></line><line x1="75.5" y1="1.0" x2="115.12274879395311" y2="32.32061519584235" style="stroke:#7856FA;stroke-width:1"></line><line x1="75.5" y1="1.0" x2="150.0" y2="1.0" style="stroke:#7856FA;stroke-width:1"></line><line x1="115.12274879395311" y1="32.32061519584235" x2="150.0" y2="1.0" style="stroke:#7856FA;stroke-width:1"></line><line x1="115.12274879395311" y1="32.32061519584235" x2="150.0" y2="1.0" style="stroke:#7856FA;stroke-width:1"></line><line x1="115.12274879395311" y1="32.32061519584235" x2="155.53591906616865" y2="48.983994787783914" style="stroke:#7856FA;stroke-width:1"></line><line x1="150.0" y1="1.0" x2="155.53591906616865" y2="48.983994787783914" style="stroke:#7856FA;stroke-width:1"></line><line x1="115.12274879395311" y1="32.32061519584235" x2="126.85925097354554" y2="73.68482179204065" style="stroke:#7856FA;stroke-width:1"></line><line x1="115.12274879395311" y1="32.32061519584235" x2="155.53591906616865" y2="48.983994787783914" style="stroke:#7856FA;stroke-width:1"></line><line x1="126.85925097354554" y1="73.68482179204065" x2="155.53591906616865" y2="48.983994787783914" style="stroke:#7856FA;stroke-width:1"></line><line x1="118.07142857142857" y1="192.57142857142856" x2="138.05215485991067" y2="159.31661697525107" style="stroke:#7856FA;stroke-width:1"></line><line x1="118.07142857142857" y1="192.57142857142856" x2="158.98274031161557" y2="180.83529216319565" style="stroke:#7856FA;stroke-width:1"></line><line x1="138.05215485991067" y1="159.31661697525107" x2="158.98274031161557" y2="180.83529216319565" style="stroke:#7856FA;stroke-width:1"></line><line x1="170.42599554131502" y1="130.82219062331697" x2="191.33335975223784" y2="85.2057082133452" style="stroke:#7856FA;stroke-width:1"></line><line x1="170.42599554131502" y1="130.82219062331697" x2="209.66446151085248" y2="126.04057599128807" style="stroke:#7856FA;stroke-width:1"></line><line x1="191.33335975223784" y1="85.2057082133452" x2="209.66446151085248" y2="126.04057599128807" style="stroke:#7856FA;stroke-width:1"></line><line x1="137.22857142857143" y1="256.42857142857144" x2="164.97800469172685" y2="220.1606822304546" style="stroke:#7856FA;stroke-width:1"></line><line x1="137.22857142857143" y1="256.42857142857144" x2="181.42489667841383" y2="247.91343671551974" style="stroke:#7856FA;stroke-width:1"></line><line x1="164.97800469172685" y1="220.1606822304546" x2="181.42489667841383" y2="247.91343671551974" style="stroke:#7856FA;stroke-width:1"></line><line x1="118.07142857142857" y1="192.57142857142856" x2="124.45714285714286" y2="213.85714285714286" style="stroke:#7856FA;stroke-width:1"></line><line x1="118.07142857142857" y1="192.57142857142856" x2="158.98274031161557" y2="180.83529216319565" style="stroke:#7856FA;stroke-width:1"></line><line x1="124.45714285714286" y1="213.85714285714286" x2="158.98274031161557" y2="180.83529216319565" style="stroke:#7856FA;stroke-width:1"></line><line x1="52.71753112520094" y1="116.90102711731672" x2="63.580000000000005" y2="150.0" style="stroke:#7856FA;stroke-width:1"></line><line x1="52.71753112520094" y1="116.90102711731672" x2="82.52264668972202" y2="118.75958237259276" style="stroke:#7856FA;stroke-width:1"></line><line x1="63.580000000000005" y1="150.0" x2="82.52264668972202" y2="118.75958237259276" style="stroke:#7856FA;stroke-width:1"></line><line x1="150.0" y1="1.0" x2="189.4185017915601" y2="35.63893474891044" style="stroke:#7856FA;stroke-width:1"></line><line x1="150.0" y1="1.0" x2="224.5" y2="1.0" style="stroke:#7856FA;stroke-width:1"></line><line x1="189.4185017915601" y1="35.63893474891044" x2="224.5" y2="1.0" style="stroke:#7856FA;stroke-width:1"></line><line x1="150.0" y1="1.0" x2="155.53591906616865" y2="48.983994787783914" style="stroke:#7856FA;stroke-width:1"></line><line x1="150.0" y1="1.0" x2="189.4185017915601" y2="35.63893474891044" style="stroke:#7856FA;stroke-width:1"></line><line x1="155.53591906616865" y1="48.983994787783914" x2="189.4185017915601" y2="35.63893474891044" style="stroke:#7856FA;stroke-width:1"></line><line x1="155.53591906616865" y1="48.983994787783914" x2="189.4185017915601" y2="35.63893474891044" style="stroke:#7856FA;stroke-width:1"></line><line x1="155.53591906616865" y1="48.983994787783914" x2="191.33335975223784" y2="85.2057082133452" style="stroke:#7856FA;stroke-width:1"></line><line x1="189.4185017915601" y1="35.63893474891044" x2="191.33335975223784" y2="85.2057082133452" style="stroke:#7856FA;stroke-width:1"></line><line x1="191.33335975223784" y1="85.2057082133452" x2="209.66446151085248" y2="126.04057599128807" style="stroke:#7856FA;stroke-width:1"></line><line x1="191.33335975223784" y1="85.2057082133452" x2="234.4832753293578" y2="101.05928812367901" style="stroke:#7856FA;stroke-width:1"></line><line x1="209.66446151085248" y1="126.04057599128807" x2="234.4832753293578" y2="101.05928812367901" style="stroke:#7856FA;stroke-width:1"></line><line x1="261.75" y1="299.0" x2="271.52308739808535" y2="270.64064701654814" style="stroke:#7856FA;stroke-width:1"></line><line x1="261.75" y1="299.0" x2="299.0" y2="299.0" style="stroke:#7856FA;stroke-width:1"></line><line x1="271.52308739808535" y1="270.64064701654814" x2="299.0" y2="299.0" style="stroke:#7856FA;stroke-width:1"></line><line x1="271.52308739808535" y1="270.64064701654814" x2="299.0" y2="299.0" style="stroke:#7856FA;stroke-width:1"></line><line x1="271.52308739808535" y1="270.64064701654814" x2="299.0" y2="261.75" style="stroke:#7856FA;stroke-width:1"></line><line x1="299.0" y1="299.0" x2="299.0" y2="261.75" style="stroke:#7856FA;stroke-width:1"></line><line x1="1.0" y1="1.0" x2="24.380236574829798" y2="25.140027974013833" style="stroke:#7856FA;stroke-width:1"></line><line x1="1.0" y1="1.0" x2="38.25" y2="1.0" style="stroke:#7856FA;stroke-width:1"></line><line x1="24.380236574829798" y1="25.140027974013833" x2="38.25" y2="1.0" style="stroke:#7856FA;stroke-width:1"></line><line x1="261.75" y1="1.0" x2="273.5550415792685" y2="25.759103810574583" style="stroke:#7856FA;stroke-width:1"></line><line x1="261.75" y1="1.0" x2="299.0" y2="1.0" style="stroke:#7856FA;stroke-width:1"></line><line x1="273.5550415792685" y1="25.759103810574583" x2="299.0" y2="1.0" style="stroke:#7856FA;stroke-width:1"></line><line x1="273.5550415792685" y1="25.759103810574583" x2="299.0" y2="38.25" style="stroke:#7856FA;stroke-width:1"></line><line x1="273.5550415792685" y1="25.759103810574583" x2="299.0" y2="1.0" style="stroke:#7856FA;stroke-width:1"></line><line x1="299.0" y1="38.25" x2="299.0" y2="1.0" style="stroke:#7856FA;stroke-width:1"></line><line x1="243.0627505447516" y1="274.18712374093116" x2="244.85276940205867" y2="242.8672000909459" style="stroke:#7856FA;stroke-width:1"></line><line x1="243.0627505447516" y1="274.18712374093116" x2="271.52308739808535" y2="270.64064701654814" style="stroke:#7856FA;stroke-width:1"></line><line x1="244.85276940205867" y1="242.8672000909459" x2="271.52308739808535" y2="270.64064701654814" style="stroke:#7856FA;stroke-width:1"></line><line x1="244.85276940205867" y1="242.8672000909459" x2="271.52308739808535" y2="270.64064701654814" style="stroke:#7856FA;stroke-width:1"></line><line x1="244.85276940205867" y1="242.8672000909459" x2="274.42002867789535" y2="240.37870149887942" style="stroke:#7856FA;stroke-width:1"></line><line x1="271.52308739808535" y1="270.64064701654814" x2="274.42002867789535" y2="240.37870149887942" style="stroke:#7856FA;stroke-width:1"></line><line x1="24.380236574829798" y1="25.140027974013833" x2="35.79548680450128" y2="57.10737586958058" style="stroke:#7856FA;stroke-width:1"></line><line x1="24.380236574829798" y1="25.140027974013833" x2="51.407028315068544" y2="26.01017492102521" style="stroke:#7856FA;stroke-width:1"></line><line x1="35.79548680450128" y1="57.10737586958058" x2="51.407028315068544" y2="26.01017492102521" style="stroke:#7856FA;stroke-width:1"></line><line x1="245.66758884463297" y1="21.28072170473945" x2="248.47851295151548" y2="47.12513495867791" style="stroke:#7856FA;stroke-width:1"></line><line x1="245.66758884463297" y1="21.28072170473945" x2="273.5550415792685" y2="25.759103810574583" style="stroke:#7856FA;stroke-width:1"></line><line x1="248.47851295151548" y1="47.12513495867791" x2="273.5550415792685" y2="25.759103810574583" style="stroke:#7856FA;stroke-width:1"></line><line x1="248.47851295151548" y1="47.12513495867791" x2="273.5550415792685" y2="25.759103810574583" style="stroke:#7856FA;stroke-width:1"></line><line x1="248.47851295151548" y1="47.12513495867791" x2="276.15250831604345" y2="53.49911026319556" style="stroke:#7856FA;stroke-width:1"></line><line x1="273.5550415792685" y1="25.759103810574583" x2="276.15250831604345" y2="53.49911026319556" style="stroke:#7856FA;stroke-width:1"></line><line x1="224.5" y1="299.0" x2="243.0627505447516" y2="274.18712374093116" style="stroke:#7856FA;stroke-width:1"></line><line x1="224.5" y1="299.0" x2="261.75" y2="299.0" style="stroke:#7856FA;stroke-width:1"></line><line x1="243.0627505447516" y1="274.18712374093116" x2="261.75" y2="299.0" style="stroke:#7856FA;stroke-width:1"></line><line x1="274.42002867789535" y1="240.37870149887942" x2="299.0" y2="261.75" style="stroke:#7856FA;stroke-width:1"></line><line x1="274.42002867789535" y1="240.37870149887942" x2="299.0" y2="224.5" style="stroke:#7856FA;stroke-width:1"></line><line x1="299.0" y1="261.75" x2="299.0" y2="224.5" style="stroke:#7856FA;stroke-width:1"></line><line x1="38.25" y1="1.0" x2="51.407028315068544" y2="26.01017492102521" style="stroke:#7856FA;stroke-width:1"></line><line x1="38.25" y1="1.0" x2="75.5" y2="1.0" style="stroke:#7856FA;stroke-width:1"></line><line x1="51.407028315068544" y1="26.01017492102521" x2="75.5" y2="1.0" style="stroke:#7856FA;stroke-width:1"></line><line x1="224.5" y1="1.0" x2="245.66758884463297" y2="21.28072170473945" style="stroke:#7856FA;stroke-width:1"></line><line x1="224.5" y1="1.0" x2="261.75" y2="1.0" style="stroke:#7856FA;stroke-width:1"></line><line x1="245.66758884463297" y1="21.28072170473945" x2="261.75" y2="1.0" style="stroke:#7856FA;stroke-width:1"></line><line x1="276.15250831604345" y1="53.49911026319556" x2="299.0" y2="75.5" style="stroke:#7856FA;stroke-width:1"></line><line x1="276.15250831604345" y1="53.49911026319556" x2="299.0" y2="38.25" style="stroke:#7856FA;stroke-width:1"></line><line x1="299.0" y1="75.5" x2="299.0" y2="38.25" style="stroke:#7856FA;stroke-width:1"></line><line x1="243.0627505447516" y1="274.18712374093116" x2="261.75" y2="299.0" style="stroke:#7856FA;stroke-width:1"></line><line x1="243.0627505447516" y1="274.18712374093116" x2="271.52308739808535" y2="270.64064701654814" style="stroke:#7856FA;stroke-width:1"></line><line x1="261.75" y1="299.0" x2="271.52308739808535" y2="270.64064701654814" style="stroke:#7856FA;stroke-width:1"></line><line x1="271.52308739808535" y1="270.64064701654814" x2="274.42002867789535" y2="240.37870149887942" style="stroke:#7856FA;stroke-width:1"></line><line x1="271.52308739808535" y1="270.64064701654814" x2="299.0" y2="261.75" style="stroke:#7856FA;stroke-width:1"></line><line x1="274.42002867789535" y1="240.37870149887942" x2="299.0" y2="261.75" style="stroke:#7856FA;stroke-width:1"></line><line x1="24.380236574829798" y1="25.140027974013833" x2="38.25" y2="1.0" style="stroke:#7856FA;stroke-width:1"></line><line x1="24.380236574829798" y1="25.140027974013833" x2="51.407028315068544" y2="26.01017492102521" style="stroke:#7856FA;stroke-width:1"></line><line x1="38.25" y1="1.0" x2="51.407028315068544" y2="26.01017492102521" style="stroke:#7856FA;stroke-width:1"></line><line x1="245.66758884463297" y1="21.28072170473945" x2="261.75" y2="1.0" style="stroke:#7856FA;stroke-width:1"></line><line x1="245.66758884463297" y1="21.28072170473945" x2="273.5550415792685" y2="25.759103810574583" style="stroke:#7856FA;stroke-width:1"></line><line x1="261.75" y1="1.0" x2="273.5550415792685" y2="25.759103810574583" style="stroke:#7856FA;stroke-width:1"></line><line x1="273.5550415792685" y1="25.759103810574583" x2="276.15250831604345" y2="53.49911026319556" style="stroke:#7856FA;stroke-width:1"></line><line x1="273.5550415792685" y1="25.759103810574583" x2="299.0" y2="38.25" style="stroke:#7856FA;stroke-width:1"></line><line x1="276.15250831604345" y1="53.49911026319556" x2="299.0" y2="38.25" style="stroke:#7856FA;stroke-width:1"></line><line x1="164.97800469172685" y1="220.1606822304546" x2="181.42489667841383" y2="247.91343671551974" style="stroke:#7856FA;stroke-width:1"></line><line x1="164.97800469172685" y1="220.1606822304546" x2="212.80503704257364" y2="222.53341753634214" style="stroke:#7856FA;stroke-width:1"></line><line x1="181.42489667841383" y1="247.91343671551974" x2="212.80503704257364" y2="222.53341753634214" style="stroke:#7856FA;stroke-width:1"></line><line x1="189.4185017915601" y1="35.63893474891044" x2="191.33335975223784" y2="85.2057082133452" style="stroke:#7856FA;stroke-width:1"></line><line x1="189.4185017915601" y1="35.63893474891044" x2="220.6646163542319" y2="65.31215355214121" style="stroke:#7856FA;stroke-width:1"></line><line x1="191.33335975223784" y1="85.2057082133452" x2="220.6646163542319" y2="65.31215355214121" style="stroke:#7856FA;stroke-width:1"></line><line x1="191.33335975223784" y1="85.2057082133452" x2="220.6646163542319" y2="65.31215355214121" style="stroke:#7856FA;stroke-width:1"></line><line x1="191.33335975223784" y1="85.2057082133452" x2="234.4832753293578" y2="101.05928812367901" style="stroke:#7856FA;stroke-width:1"></line><line x1="220.6646163542319" y1="65.31215355214121" x2="234.4832753293578" y2="101.05928812367901" style="stroke:#7856FA;stroke-width:1"></line><line x1="181.42489667841383" y1="247.91343671551974" x2="212.80503704257364" y2="222.53341753634214" style="stroke:#7856FA;stroke-width:1"></line><line x1="181.42489667841383" y1="247.91343671551974" x2="216.73563649659218" y2="258.50858574377287" style="stroke:#7856FA;stroke-width:1"></line><line x1="212.80503704257364" y1="222.53341753634214" x2="216.73563649659218" y2="258.50858574377287" style="stroke:#7856FA;stroke-width:1"></line><line x1="226.32754590799183" y1="187.97827514110432" x2="259.24664682440465" y2="209.00452368409086" style="stroke:#7856FA;stroke-width:1"></line><line x1="226.32754590799183" y1="187.97827514110432" x2="263.0667088299008" y2="172.1555719120299" style="stroke:#7856FA;stroke-width:1"></line><line x1="259.24664682440465" y1="209.00452368409086" x2="263.0667088299008" y2="172.1555719120299" style="stroke:#7856FA;stroke-width:1"></line><line x1="189.4185017915601" y1="35.63893474891044" x2="220.6646163542319" y2="65.31215355214121" style="stroke:#7856FA;stroke-width:1"></line><line x1="189.4185017915601" y1="35.63893474891044" x2="222.50908971303414" y2="34.276667020213836" style="stroke:#7856FA;stroke-width:1"></line><line x1="220.6646163542319" y1="65.31215355214121" x2="222.50908971303414" y2="34.276667020213836" style="stroke:#7856FA;stroke-width:1"></line><line x1="220.6646163542319" y1="65.31215355214121" x2="234.4832753293578" y2="101.05928812367901" style="stroke:#7856FA;stroke-width:1"></line><line x1="220.6646163542319" y1="65.31215355214121" x2="256.80144241467985" y2="74.35758943540445" style="stroke:#7856FA;stroke-width:1"></line><line x1="234.4832753293578" y1="101.05928812367901" x2="256.80144241467985" y2="74.35758943540445" style="stroke:#7856FA;stroke-width:1"></line><line x1="212.80503704257364" y1="222.53341753634214" x2="216.73563649659218" y2="258.50858574377287" style="stroke:#7856FA;stroke-width:1"></line><line x1="212.80503704257364" y1="222.53341753634214" x2="244.85276940205867" y2="242.8672000909459" style="stroke:#7856FA;stroke-width:1"></line><line x1="216.73563649659218" y1="258.50858574377287" x2="244.85276940205867" y2="242.8672000909459" style="stroke:#7856FA;stroke-width:1"></line><line x1="259.24664682440465" y1="209.00452368409086" x2="299.0" y2="224.5" style="stroke:#7856FA;stroke-width:1"></line><line x1="259.24664682440465" y1="209.00452368409086" x2="299.0" y2="187.25" style="stroke:#7856FA;stroke-width:1"></line><line x1="299.0" y1="224.5" x2="299.0" y2="187.25" style="stroke:#7856FA;stroke-width:1"></line><line x1="220.6646163542319" y1="65.31215355214121" x2="222.50908971303414" y2="34.276667020213836" style="stroke:#7856FA;stroke-width:1"></line><line x1="220.6646163542319" y1="65.31215355214121" x2="248.47851295151548" y2="47.12513495867791" style="stroke:#7856FA;stroke-width:1"></line><line x1="222.50908971303414" y1="34.276667020213836" x2="248.47851295151548" y2="47.12513495867791" style="stroke:#7856FA;stroke-width:1"></line><line x1="220.6646163542319" y1="65.31215355214121" x2="248.47851295151548" y2="47.12513495867791" style="stroke:#7856FA;stroke-width:1"></line><line x1="220.6646163542319" y1="65.31215355214121" x2="256.80144241467985" y2="74.35758943540445" style="stroke:#7856FA;stroke-width:1"></line><line x1="248.47851295151548" y1="47.12513495867791" x2="256.80144241467985" y2="74.35758943540445" style="stroke:#7856FA;stroke-width:1"></line><line x1="1.0" y1="38.25" x2="1.0" y2="1.0" style="stroke:#7856FA;stroke-width:1"></line><line x1="1.0" y1="38.25" x2="24.380236574829798" y2="25.140027974013833" style="stroke:#7856FA;stroke-width:1"></line><line x1="1.0" y1="1.0" x2="24.380236574829798" y2="25.140027974013833" style="stroke:#7856FA;stroke-width:1"></line><line x1="216.73563649659218" y1="258.50858574377287" x2="243.0627505447516" y2="274.18712374093116" style="stroke:#7856FA;stroke-width:1"></line><line x1="216.73563649659218" y1="258.50858574377287" x2="244.85276940205867" y2="242.8672000909459" style="stroke:#7856FA;stroke-width:1"></line><line x1="243.0627505447516" y1="274.18712374093116" x2="244.85276940205867" y2="242.8672000909459" style="stroke:#7856FA;stroke-width:1"></line><line x1="259.24664682440465" y1="209.00452368409086" x2="274.42002867789535" y2="240.37870149887942" style="stroke:#7856FA;stroke-width:1"></line><line x1="259.24664682440465" y1="209.00452368409086" x2="299.0" y2="224.5" style="stroke:#7856FA;stroke-width:1"></line><line x1="274.42002867789535" y1="240.37870149887942" x2="299.0" y2="224.5" style="stroke:#7856FA;stroke-width:1"></line><line x1="35.79548680450128" y1="57.10737586958058" x2="51.407028315068544" y2="26.01017492102521" style="stroke:#7856FA;stroke-width:1"></line><line x1="35.79548680450128" y1="57.10737586958058" x2="74.38780914894294" y2="42.50162281765618" style="stroke:#7856FA;stroke-width:1"></line><line x1="51.407028315068544" y1="26.01017492102521" x2="74.38780914894294" y2="42.50162281765618" style="stroke:#7856FA;stroke-width:1"></line><line x1="222.50908971303414" y1="34.276667020213836" x2="245.66758884463297" y2="21.28072170473945" style="stroke:#7856FA;stroke-width:1"></line><line x1="222.50908971303414" y1="34.276667020213836" x2="248.47851295151548" y2="47.12513495867791" style="stroke:#7856FA;stroke-width:1"></line><line x1="245.66758884463297" y1="21.28072170473945" x2="248.47851295151548" y2="47.12513495867791" style="stroke:#7856FA;stroke-width:1"></line><line x1="248.47851295151548" y1="47.12513495867791" x2="256.80144241467985" y2="74.35758943540445" style="stroke:#7856FA;stroke-width:1"></line><line x1="248.47851295151548" y1="47.12513495867791" x2="276.15250831604345" y2="53.49911026319556" style="stroke:#7856FA;stroke-width:1"></line><line x1="256.80144241467985" y1="74.35758943540445" x2="276.15250831604345" y2="53.49911026319556" style="stroke:#7856FA;stroke-width:1"></line><line x1="1.0" y1="38.25" x2="24.380236574829798" y2="25.140027974013833" style="stroke:#7856FA;stroke-width:1"></line><line x1="1.0" y1="38.25" x2="35.79548680450128" y2="57.10737586958058" style="stroke:#7856FA;stroke-width:1"></line><line x1="24.380236574829798" y1="25.140027974013833" x2="35.79548680450128" y2="57.10737586958058" style="stroke:#7856FA;stroke-width:1"></line><line x1="216.73563649659218" y1="258.50858574377287" x2="224.5" y2="299.0" style="stroke:#7856FA;stroke-width:1"></line><line x1="216.73563649659218" y1="258.50858574377287" x2="243.0627505447516" y2="274.18712374093116" style="stroke:#7856FA;stroke-width:1"></line><line x1="224.5" y1="299.0" x2="243.0627505447516" y2="274.18712374093116" style="stroke:#7856FA;stroke-width:1"></line><line x1="244.85276940205867" y1="242.8672000909459" x2="259.24664682440465" y2="209.00452368409086" style="stroke:#7856FA;stroke-width:1"></line><line x1="244.85276940205867" y1="242.8672000909459" x2="274.42002867789535" y2="240.37870149887942" style="stroke:#7856FA;stroke-width:1"></line><line x1="259.24664682440465" y1="209.00452368409086" x2="274.42002867789535" y2="240.37870149887942" style="stroke:#7856FA;stroke-width:1"></line><line x1="51.407028315068544" y1="26.01017492102521" x2="74.38780914894294" y2="42.50162281765618" style="stroke:#7856FA;stroke-width:1"></line><line x1="51.407028315068544" y1="26.01017492102521" x2="75.5" y2="1.0" style="stroke:#7856FA;stroke-width:1"></line><line x1="74.38780914894294" y1="42.50162281765618" x2="75.5" y2="1.0" style="stroke:#7856FA;stroke-width:1"></line><line x1="222.50908971303414" y1="34.276667020213836" x2="224.5" y2="1.0" style="stroke:#7856FA;stroke-width:1"></line><line x1="222.50908971303414" y1="34.276667020213836" x2="245.66758884463297" y2="21.28072170473945" style="stroke:#7856FA;stroke-width:1"></line><line x1="224.5" y1="1.0" x2="245.66758884463297" y2="21.28072170473945" style="stroke:#7856FA;stroke-width:1"></line><line x1="256.80144241467985" y1="74.35758943540445" x2="276.15250831604345" y2="53.49911026319556" style="stroke:#7856FA;stroke-width:1"></line><line x1="256.80144241467985" y1="74.35758943540445" x2="299.0" y2="75.5" style="stroke:#7856FA;stroke-width:1"></line><line x1="276.15250831604345" y1="53.49911026319556" x2="299.0" y2="75.5" style="stroke:#7856FA;stroke-width:1"></line><line x1="1.0" y1="75.5" x2="1.0" y2="38.25" style="stroke:#7856FA;stroke-width:1"></line><line x1="1.0" y1="75.5" x2="35.79548680450128" y2="57.10737586958058" style="stroke:#7856FA;stroke-width:1"></line><line x1="1.0" y1="38.25" x2="35.79548680450128" y2="57.10737586958058" style="stroke:#7856FA;stroke-width:1"></line><line x1="212.80503704257364" y1="222.53341753634214" x2="244.85276940205867" y2="242.8672000909459" style="stroke:#7856FA;stroke-width:1"></line><line x1="212.80503704257364" y1="222.53341753634214" x2="259.24664682440465" y2="209.00452368409086" style="stroke:#7856FA;stroke-width:1"></line><line x1="244.85276940205867" y1="242.8672000909459" x2="259.24664682440465" y2="209.00452368409086" style="stroke:#7856FA;stroke-width:1"></line><line x1="74.38780914894294" y1="42.50162281765618" x2="75.5" y2="1.0" style="stroke:#7856FA;stroke-width:1"></line><line x1="74.38780914894294" y1="42.50162281765618" x2="115.12274879395311" y2="32.32061519584235" style="stroke:#7856FA;stroke-width:1"></line><line x1="75.5" y1="1.0" x2="115.12274879395311" y2="32.32061519584235" style="stroke:#7856FA;stroke-width:1"></line><line x1="189.4185017915601" y1="35.63893474891044" x2="222.50908971303414" y2="34.276667020213836" style="stroke:#7856FA;stroke-width:1"></line><line x1="189.4185017915601" y1="35.63893474891044" x2="224.5" y2="1.0" style="stroke:#7856FA;stroke-width:1"></line><line x1="222.50908971303414" y1="34.276667020213836" x2="224.5" y2="1.0" style="stroke:#7856FA;stroke-width:1"></line><line x1="35.79548680450128" y1="57.10737586958058" x2="64.95880865043578" y2="81.68125153060345" style="stroke:#7856FA;stroke-width:1"></line><line x1="35.79548680450128" y1="57.10737586958058" x2="74.38780914894294" y2="42.50162281765618" style="stroke:#7856FA;stroke-width:1"></line><line x1="64.95880865043578" y1="81.68125153060345" x2="74.38780914894294" y2="42.50162281765618" style="stroke:#7856FA;stroke-width:1"></line><line x1="212.80503704257364" y1="222.53341753634214" x2="226.32754590799183" y2="187.97827514110432" style="stroke:#7856FA;stroke-width:1"></line><line x1="212.80503704257364" y1="222.53341753634214" x2="259.24664682440465" y2="209.00452368409086" style="stroke:#7856FA;stroke-width:1"></line><line x1="226.32754590799183" y1="187.97827514110432" x2="259.24664682440465" y2="209.00452368409086" style="stroke:#7856FA;stroke-width:1"></line><line x1="251.44419463118425" y1="138.26053347987573" x2="263.0667088299008" y2="172.1555719120299" style="stroke:#7856FA;stroke-width:1"></line><line x1="251.44419463118425" y1="138.26053347987573" x2="299.0" y2="150.0" style="stroke:#7856FA;stroke-width:1"></line><line x1="263.0667088299008" y1="172.1555719120299" x2="299.0" y2="150.0" style="stroke:#7856FA;stroke-width:1"></line><line x1="105.3" y1="150.0" x2="113.63430403474409" y2="112.24858433376156" style="stroke:#7856FA;stroke-width:1"></line><line x1="105.3" y1="150.0" x2="134.39618678997442" y2="132.7258293787841" style="stroke:#7856FA;stroke-width:1"></line><line x1="113.63430403474409" y1="112.24858433376156" x2="134.39618678997442" y2="132.7258293787841" style="stroke:#7856FA;stroke-width:1"></line><line x1="82.52264668972202" y1="118.75958237259276" x2="105.3" y2="150.0" style="stroke:#7856FA;stroke-width:1"></line><line x1="82.52264668972202" y1="118.75958237259276" x2="113.63430403474409" y2="112.24858433376156" style="stroke:#7856FA;stroke-width:1"></line><line x1="105.3" y1="150.0" x2="113.63430403474409" y2="112.24858433376156" style="stroke:#7856FA;stroke-width:1"></line><line x1="226.32754590799183" y1="187.97827514110432" x2="228.60353269874525" y2="157.09476159250275" style="stroke:#7856FA;stroke-width:1"></line><line x1="226.32754590799183" y1="187.97827514110432" x2="263.0667088299008" y2="172.1555719120299" style="stroke:#7856FA;stroke-width:1"></line><line x1="228.60353269874525" y1="157.09476159250275" x2="263.0667088299008" y2="172.1555719120299" style="stroke:#7856FA;stroke-width:1"></line><line x1="113.63430403474409" y1="112.24858433376156" x2="126.85925097354554" y2="73.68482179204065" style="stroke:#7856FA;stroke-width:1"></line><line x1="113.63430403474409" y1="112.24858433376156" x2="141.65284031365718" y2="106.79639803355546" style="stroke:#7856FA;stroke-width:1"></line><line x1="126.85925097354554" y1="73.68482179204065" x2="141.65284031365718" y2="106.79639803355546" style="stroke:#7856FA;stroke-width:1"></line><line x1="96.41410133995677" y1="89.94127155704629" x2="113.63430403474409" y2="112.24858433376156" style="stroke:#7856FA;stroke-width:1"></line><line x1="96.41410133995677" y1="89.94127155704629" x2="126.85925097354554" y2="73.68482179204065" style="stroke:#7856FA;stroke-width:1"></line><line x1="113.63430403474409" y1="112.24858433376156" x2="126.85925097354554" y2="73.68482179204065" style="stroke:#7856FA;stroke-width:1"></line><line x1="209.66446151085248" y1="126.04057599128807" x2="228.60353269874525" y2="157.09476159250275" style="stroke:#7856FA;stroke-width:1"></line><line x1="209.66446151085248" y1="126.04057599128807" x2="251.44419463118425" y2="138.26053347987573" style="stroke:#7856FA;stroke-width:1"></line><line x1="228.60353269874525" y1="157.09476159250275" x2="251.44419463118425" y2="138.26053347987573" style="stroke:#7856FA;stroke-width:1"></line><line x1="134.39618678997442" y1="132.7258293787841" x2="141.65284031365718" y2="106.79639803355546" style="stroke:#7856FA;stroke-width:1"></line><line x1="134.39618678997442" y1="132.7258293787841" x2="170.42599554131502" y2="130.82219062331697" style="stroke:#7856FA;stroke-width:1"></line><line x1="141.65284031365718" y1="106.79639803355546" x2="170.42599554131502" y2="130.82219062331697" style="stroke:#7856FA;stroke-width:1"></line><line x1="64.95880865043578" y1="81.68125153060345" x2="82.52264668972202" y2="118.75958237259276" style="stroke:#7856FA;stroke-width:1"></line><line x1="64.95880865043578" y1="81.68125153060345" x2="96.41410133995677" y2="89.94127155704629" style="stroke:#7856FA;stroke-width:1"></line><line x1="82.52264668972202" y1="118.75958237259276" x2="96.41410133995677" y2="89.94127155704629" style="stroke:#7856FA;stroke-width:1"></line><line x1="228.60353269874525" y1="157.09476159250275" x2="251.44419463118425" y2="138.26053347987573" style="stroke:#7856FA;stroke-width:1"></line><line x1="228.60353269874525" y1="157.09476159250275" x2="263.0667088299008" y2="172.1555719120299" style="stroke:#7856FA;stroke-width:1"></line><line x1="251.44419463118425" y1="138.26053347987573" x2="263.0667088299008" y2="172.1555719120299" style="stroke:#7856FA;stroke-width:1"></line><line x1="113.63430403474409" y1="112.24858433376156" x2="134.39618678997442" y2="132.7258293787841" style="stroke:#7856FA;stroke-width:1"></line><line x1="113.63430403474409" y1="112.24858433376156" x2="141.65284031365718" y2="106.79639803355546" style="stroke:#7856FA;stroke-width:1"></line><line x1="134.39618678997442" y1="132.7258293787841" x2="141.65284031365718" y2="106.79639803355546" style="stroke:#7856FA;stroke-width:1"></line><line x1="82.52264668972202" y1="118.75958237259276" x2="96.41410133995677" y2="89.94127155704629" style="stroke:#7856FA;stroke-width:1"></line><line x1="82.52264668972202" y1="118.75958237259276" x2="113.63430403474409" y2="112.24858433376156" style="stroke:#7856FA;stroke-width:1"></line><line x1="96.41410133995677" y1="89.94127155704629" x2="113.63430403474409" y2="112.24858433376156" style="stroke:#7856FA;stroke-width:1"></line><line x1="105.3" y1="150.0" x2="111.68571428571428" y2="171.28571428571428" style="stroke:#7856FA;stroke-width:1"></line><line x1="105.3" y1="150.0" x2="138.05215485991067" y2="159.31661697525107" style="stroke:#7856FA;stroke-width:1"></line><line x1="111.68571428571428" y1="171.28571428571428" x2="138.05215485991067" y2="159.31661697525107" style="stroke:#7856FA;stroke-width:1"></line><line x1="158.98274031161557" y1="180.83529216319565" x2="164.97800469172685" y2="220.1606822304546" style="stroke:#7856FA;stroke-width:1"></line><line x1="158.98274031161557" y1="180.83529216319565" x2="191.25756684905647" y2="195.1494042063919" style="stroke:#7856FA;stroke-width:1"></line><line x1="164.97800469172685" y1="220.1606822304546" x2="191.25756684905647" y2="195.1494042063919" style="stroke:#7856FA;stroke-width:1"></line><line x1="158.98274031161557" y1="180.83529216319565" x2="170.42599554131502" y2="130.82219062331697" style="stroke:#7856FA;stroke-width:1"></line><line x1="158.98274031161557" y1="180.83529216319565" x2="194.9467065417515" y2="161.601583452153" style="stroke:#7856FA;stroke-width:1"></line><line x1="170.42599554131502" y1="130.82219062331697" x2="194.9467065417515" y2="161.601583452153" style="stroke:#7856FA;stroke-width:1"></line><line x1="105.3" y1="150.0" x2="134.39618678997442" y2="132.7258293787841" style="stroke:#7856FA;stroke-width:1"></line><line x1="105.3" y1="150.0" x2="138.05215485991067" y2="159.31661697525107" style="stroke:#7856FA;stroke-width:1"></line><line x1="134.39618678997442" y1="132.7258293787841" x2="138.05215485991067" y2="159.31661697525107" style="stroke:#7856FA;stroke-width:1"></line><line x1="158.98274031161557" y1="180.83529216319565" x2="191.25756684905647" y2="195.1494042063919" style="stroke:#7856FA;stroke-width:1"></line><line x1="158.98274031161557" y1="180.83529216319565" x2="194.9467065417515" y2="161.601583452153" style="stroke:#7856FA;stroke-width:1"></line><line x1="191.25756684905647" y1="195.1494042063919" x2="194.9467065417515" y2="161.601583452153" style="stroke:#7856FA;stroke-width:1"></line><line x1="194.9467065417515" y1="161.601583452153" x2="209.66446151085248" y2="126.04057599128807" style="stroke:#7856FA;stroke-width:1"></line><line x1="194.9467065417515" y1="161.601583452153" x2="228.60353269874525" y2="157.09476159250275" style="stroke:#7856FA;stroke-width:1"></line><line x1="209.66446151085248" y1="126.04057599128807" x2="228.60353269874525" y2="157.09476159250275" style="stroke:#7856FA;stroke-width:1"></line><line x1="134.39618678997442" y1="132.7258293787841" x2="138.05215485991067" y2="159.31661697525107" style="stroke:#7856FA;stroke-width:1"></line><line x1="134.39618678997442" y1="132.7258293787841" x2="170.42599554131502" y2="130.82219062331697" style="stroke:#7856FA;stroke-width:1"></line><line x1="138.05215485991067" y1="159.31661697525107" x2="170.42599554131502" y2="130.82219062331697" style="stroke:#7856FA;stroke-width:1"></line><line x1="191.25756684905647" y1="195.1494042063919" x2="194.9467065417515" y2="161.601583452153" style="stroke:#7856FA;stroke-width:1"></line><line x1="191.25756684905647" y1="195.1494042063919" x2="226.32754590799183" y2="187.97827514110432" style="stroke:#7856FA;stroke-width:1"></line><line x1="194.9467065417515" y1="161.601583452153" x2="226.32754590799183" y2="187.97827514110432" style="stroke:#7856FA;stroke-width:1"></line><line x1="194.9467065417515" y1="161.601583452153" x2="226.32754590799183" y2="187.97827514110432" style="stroke:#7856FA;stroke-width:1"></line><line x1="194.9467065417515" y1="161.601583452153" x2="228.60353269874525" y2="157.09476159250275" style="stroke:#7856FA;stroke-width:1"></line><line x1="226.32754590799183" y1="187.97827514110432" x2="228.60353269874525" y2="157.09476159250275" style="stroke:#7856FA;stroke-width:1"></line><line x1="141.65284031365718" y1="106.79639803355546" x2="159.46601557421127" y2="88.12741690626648" style="stroke:#7856FA;stroke-width:1"></line><line x1="141.65284031365718" y1="106.79639803355546" x2="170.42599554131502" y2="130.82219062331697" style="stroke:#7856FA;stroke-width:1"></line><line x1="159.46601557421127" y1="88.12741690626648" x2="170.42599554131502" y2="130.82219062331697" style="stroke:#7856FA;stroke-width:1"></line><line x1="64.95880865043578" y1="81.68125153060345" x2="96.01194336722429" y2="62.371909872348915" style="stroke:#7856FA;stroke-width:1"></line><line x1="64.95880865043578" y1="81.68125153060345" x2="96.41410133995677" y2="89.94127155704629" style="stroke:#7856FA;stroke-width:1"></line><line x1="96.01194336722429" y1="62.371909872348915" x2="96.41410133995677" y2="89.94127155704629" style="stroke:#7856FA;stroke-width:1"></line><line x1="126.85925097354554" y1="73.68482179204065" x2="141.65284031365718" y2="106.79639803355546" style="stroke:#7856FA;stroke-width:1"></line><line x1="126.85925097354554" y1="73.68482179204065" x2="159.46601557421127" y2="88.12741690626648" style="stroke:#7856FA;stroke-width:1"></line><line x1="141.65284031365718" y1="106.79639803355546" x2="159.46601557421127" y2="88.12741690626648" style="stroke:#7856FA;stroke-width:1"></line><line x1="96.01194336722429" y1="62.371909872348915" x2="96.41410133995677" y2="89.94127155704629" style="stroke:#7856FA;stroke-width:1"></line><line x1="96.01194336722429" y1="62.371909872348915" x2="126.85925097354554" y2="73.68482179204065" style="stroke:#7856FA;stroke-width:1"></line><line x1="96.41410133995677" y1="89.94127155704629" x2="126.85925097354554" y2="73.68482179204065" style="stroke:#7856FA;stroke-width:1"></line><line x1="126.85925097354554" y1="73.68482179204065" x2="155.53591906616865" y2="48.983994787783914" style="stroke:#7856FA;stroke-width:1"></line><line x1="126.85925097354554" y1="73.68482179204065" x2="159.46601557421127" y2="88.12741690626648" style="stroke:#7856FA;stroke-width:1"></line><line x1="155.53591906616865" y1="48.983994787783914" x2="159.46601557421127" y2="88.12741690626648" style="stroke:#7856FA;stroke-width:1"></line><line x1="96.01194336722429" y1="62.371909872348915" x2="115.12274879395311" y2="32.32061519584235" style="stroke:#7856FA;stroke-width:1"></line><line x1="96.01194336722429" y1="62.371909872348915" x2="126.85925097354554" y2="73.68482179204065" style="stroke:#7856FA;stroke-width:1"></line><line x1="115.12274879395311" y1="32.32061519584235" x2="126.85925097354554" y2="73.68482179204065" style="stroke:#7856FA;stroke-width:1"></line><line x1="111.68571428571428" y1="171.28571428571428" x2="118.07142857142857" y2="192.57142857142856" style="stroke:#7856FA;stroke-width:1"></line><line x1="111.68571428571428" y1="171.28571428571428" x2="138.05215485991067" y2="159.31661697525107" style="stroke:#7856FA;stroke-width:1"></line><line x1="118.07142857142857" y1="192.57142857142856" x2="138.05215485991067" y2="159.31661697525107" style="stroke:#7856FA;stroke-width:1"></line><line x1="82.52264668972202" y1="118.75958237259276" x2="84.44" y2="150.0" style="stroke:#7856FA;stroke-width:1"></line><line x1="82.52264668972202" y1="118.75958237259276" x2="105.3" y2="150.0" style="stroke:#7856FA;stroke-width:1"></line><line x1="84.44" y1="150.0" x2="105.3" y2="150.0" style="stroke:#7856FA;stroke-width:1"></line><line x1="159.46601557421127" y1="88.12741690626648" x2="170.42599554131502" y2="130.82219062331697" style="stroke:#7856FA;stroke-width:1"></line><line x1="159.46601557421127" y1="88.12741690626648" x2="191.33335975223784" y2="85.2057082133452" style="stroke:#7856FA;stroke-width:1"></line><line x1="170.42599554131502" y1="130.82219062331697" x2="191.33335975223784" y2="85.2057082133452" style="stroke:#7856FA;stroke-width:1"></line><line x1="263.0667088299008" y1="172.1555719120299" x2="299.0" y2="187.25" style="stroke:#7856FA;stroke-width:1"></line><line x1="263.0667088299008" y1="172.1555719120299" x2="299.0" y2="150.0" style="stroke:#7856FA;stroke-width:1"></line><line x1="299.0" y1="187.25" x2="299.0" y2="150.0" style="stroke:#7856FA;stroke-width:1"></line><line x1="164.97800469172685" y1="220.1606822304546" x2="191.25756684905647" y2="195.1494042063919" style="stroke:#7856FA;stroke-width:1"></line><line x1="164.97800469172685" y1="220.1606822304546" x2="212.80503704257364" y2="222.53341753634214" style="stroke:#7856FA;stroke-width:1"></line><line x1="191.25756684905647" y1="195.1494042063919" x2="212.80503704257364" y2="222.53341753634214" style="stroke:#7856FA;stroke-width:1"></line><line x1="64.95880865043578" y1="81.68125153060345" x2="74.38780914894294" y2="42.50162281765618" style="stroke:#7856FA;stroke-width:1"></line><line x1="64.95880865043578" y1="81.68125153060345" x2="96.01194336722429" y2="62.371909872348915" style="stroke:#7856FA;stroke-width:1"></line><line x1="74.38780914894294" y1="42.50162281765618" x2="96.01194336722429" y2="62.371909872348915" style="stroke:#7856FA;stroke-width:1"></line><line x1="138.05215485991067" y1="159.31661697525107" x2="158.98274031161557" y2="180.83529216319565" style="stroke:#7856FA;stroke-width:1"></line><line x1="138.05215485991067" y1="159.31661697525107" x2="170.42599554131502" y2="130.82219062331697" style="stroke:#7856FA;stroke-width:1"></line><line x1="158.98274031161557" y1="180.83529216319565" x2="170.42599554131502" y2="130.82219062331697" style="stroke:#7856FA;stroke-width:1"></line><line x1="52.71753112520094" y1="116.90102711731672" x2="64.95880865043578" y2="81.68125153060345" style="stroke:#7856FA;stroke-width:1"></line><line x1="52.71753112520094" y1="116.90102711731672" x2="82.52264668972202" y2="118.75958237259276" style="stroke:#7856FA;stroke-width:1"></line><line x1="64.95880865043578" y1="81.68125153060345" x2="82.52264668972202" y2="118.75958237259276" style="stroke:#7856FA;stroke-width:1"></line><line x1="155.53591906616865" y1="48.983994787783914" x2="159.46601557421127" y2="88.12741690626648" style="stroke:#7856FA;stroke-width:1"></line><line x1="155.53591906616865" y1="48.983994787783914" x2="191.33335975223784" y2="85.2057082133452" style="stroke:#7856FA;stroke-width:1"></line><line x1="159.46601557421127" y1="88.12741690626648" x2="191.33335975223784" y2="85.2057082133452" style="stroke:#7856FA;stroke-width:1"></line><line x1="209.66446151085248" y1="126.04057599128807" x2="234.4832753293578" y2="101.05928812367901" style="stroke:#7856FA;stroke-width:1"></line><line x1="209.66446151085248" y1="126.04057599128807" x2="251.44419463118425" y2="138.26053347987573" style="stroke:#7856FA;stroke-width:1"></line><line x1="234.4832753293578" y1="101.05928812367901" x2="251.44419463118425" y2="138.26053347987573" style="stroke:#7856FA;stroke-width:1"></line><line x1="259.24664682440465" y1="209.00452368409086" x2="263.0667088299008" y2="172.1555719120299" style="stroke:#7856FA;stroke-width:1"></line><line x1="259.24664682440465" y1="209.00452368409086" x2="299.0" y2="187.25" style="stroke:#7856FA;stroke-width:1"></line><line x1="263.0667088299008" y1="172.1555719120299" x2="299.0" y2="187.25" style="stroke:#7856FA;stroke-width:1"></line><line x1="191.25756684905647" y1="195.1494042063919" x2="212.80503704257364" y2="222.53341753634214" style="stroke:#7856FA;stroke-width:1"></line><line x1="191.25756684905647" y1="195.1494042063919" x2="226.32754590799183" y2="187.97827514110432" style="stroke:#7856FA;stroke-width:1"></line><line x1="212.80503704257364" y1="222.53341753634214" x2="226.32754590799183" y2="187.97827514110432" style="stroke:#7856FA;stroke-width:1"></line><line x1="74.38780914894294" y1="42.50162281765618" x2="96.01194336722429" y2="62.371909872348915" style="stroke:#7856FA;stroke-width:1"></line><line x1="74.38780914894294" y1="42.50162281765618" x2="115.12274879395311" y2="32.32061519584235" style="stroke:#7856FA;stroke-width:1"></line><line x1="96.01194336722429" y1="62.371909872348915" x2="115.12274879395311" y2="32.32061519584235" style="stroke:#7856FA;stroke-width:1"></line><line x1="1.0" y1="150.0" x2="1.0" y2="112.75" style="stroke:#7856FA;stroke-width:1"></line><line x1="1.0" y1="150.0" x2="25.095822478629906" y2="125.37628021743927" style="stroke:#7856FA;stroke-width:1"></line><line x1="1.0" y1="112.75" x2="25.095822478629906" y2="125.37628021743927" style="stroke:#7856FA;stroke-width:1"></line><line x1="150.0" y1="299.0" x2="167.75498448036168" y2="274.6526107024732" style="stroke:#7856FA;stroke-width:1"></line><line x1="150.0" y1="299.0" x2="187.25" y2="299.0" style="stroke:#7856FA;stroke-width:1"></line><line x1="167.75498448036168" y1="274.6526107024732" x2="187.25" y2="299.0" style="stroke:#7856FA;stroke-width:1"></line><line x1="270.79201028832335" y1="121.22008173076783" x2="299.0" y2="150.0" style="stroke:#7856FA;stroke-width:1"></line><line x1="270.79201028832335" y1="121.22008173076783" x2="299.0" y2="112.75" style="stroke:#7856FA;stroke-width:1"></line><line x1="299.0" y1="150.0" x2="299.0" y2="112.75" style="stroke:#7856FA;stroke-width:1"></line><line x1="25.095822478629906" y1="125.37628021743927" x2="30.482487040214256" y2="92.51229409276675" style="stroke:#7856FA;stroke-width:1"></line><line x1="25.095822478629906" y1="125.37628021743927" x2="52.71753112520094" y2="116.90102711731672" style="stroke:#7856FA;stroke-width:1"></line><line x1="30.482487040214256" y1="92.51229409276675" x2="52.71753112520094" y2="116.90102711731672" style="stroke:#7856FA;stroke-width:1"></line><line x1="167.75498448036168" y1="274.6526107024732" x2="181.42489667841383" y2="247.91343671551974" style="stroke:#7856FA;stroke-width:1"></line><line x1="167.75498448036168" y1="274.6526107024732" x2="197.01573488862704" y2="275.8519454153798" style="stroke:#7856FA;stroke-width:1"></line><line x1="181.42489667841383" y1="247.91343671551974" x2="197.01573488862704" y2="275.8519454153798" style="stroke:#7856FA;stroke-width:1"></line><line x1="234.4832753293578" y1="101.05928812367901" x2="270.79201028832335" y2="121.22008173076783" style="stroke:#7856FA;stroke-width:1"></line><line x1="234.4832753293578" y1="101.05928812367901" x2="271.97843813479767" y2="96.12329650822544" style="stroke:#7856FA;stroke-width:1"></line><line x1="270.79201028832335" y1="121.22008173076783" x2="271.97843813479767" y2="96.12329650822544" style="stroke:#7856FA;stroke-width:1"></line><line x1="1.0" y1="112.75" x2="1.0" y2="75.5" style="stroke:#7856FA;stroke-width:1"></line><line x1="1.0" y1="112.75" x2="30.482487040214256" y2="92.51229409276675" style="stroke:#7856FA;stroke-width:1"></line><line x1="1.0" y1="75.5" x2="30.482487040214256" y2="92.51229409276675" style="stroke:#7856FA;stroke-width:1"></line><line x1="187.25" y1="299.0" x2="197.01573488862704" y2="275.8519454153798" style="stroke:#7856FA;stroke-width:1"></line><line x1="187.25" y1="299.0" x2="224.5" y2="299.0" style="stroke:#7856FA;stroke-width:1"></line><line x1="197.01573488862704" y1="275.8519454153798" x2="224.5" y2="299.0" style="stroke:#7856FA;stroke-width:1"></line><line x1="271.97843813479767" y1="96.12329650822544" x2="299.0" y2="112.75" style="stroke:#7856FA;stroke-width:1"></line><line x1="271.97843813479767" y1="96.12329650822544" x2="299.0" y2="75.5" style="stroke:#7856FA;stroke-width:1"></line><line x1="299.0" y1="112.75" x2="299.0" y2="75.5" style="stroke:#7856FA;stroke-width:1"></line><line x1="1.0" y1="112.75" x2="25.095822478629906" y2="125.37628021743927" style="stroke:#7856FA;stroke-width:1"></line><line x1="1.0" y1="112.75" x2="30.482487040214256" y2="92.51229409276675" style="stroke:#7856FA;stroke-width:1"></line><line x1="25.095822478629906" y1="125.37628021743927" x2="30.482487040214256" y2="92.51229409276675" style="stroke:#7856FA;stroke-width:1"></line><line x1="167.75498448036168" y1="274.6526107024732" x2="187.25" y2="299.0" style="stroke:#7856FA;stroke-width:1"></line><line x1="167.75498448036168" y1="274.6526107024732" x2="197.01573488862704" y2="275.8519454153798" style="stroke:#7856FA;stroke-width:1"></line><line x1="187.25" y1="299.0" x2="197.01573488862704" y2="275.8519454153798" style="stroke:#7856FA;stroke-width:1"></line><line x1="270.79201028832335" y1="121.22008173076783" x2="271.97843813479767" y2="96.12329650822544" style="stroke:#7856FA;stroke-width:1"></line><line x1="270.79201028832335" y1="121.22008173076783" x2="299.0" y2="112.75" style="stroke:#7856FA;stroke-width:1"></line><line x1="271.97843813479767" y1="96.12329650822544" x2="299.0" y2="112.75" style="stroke:#7856FA;stroke-width:1"></line><line x1="1.0" y1="75.5" x2="30.482487040214256" y2="92.51229409276675" style="stroke:#7856FA;stroke-width:1"></line><line x1="1.0" y1="75.5" x2="35.79548680450128" y2="57.10737586958058" style="stroke:#7856FA;stroke-width:1"></line><line x1="30.482487040214256" y1="92.51229409276675" x2="35.79548680450128" y2="57.10737586958058" style="stroke:#7856FA;stroke-width:1"></line><line x1="143.6142857142857" y1="277.7142857142857" x2="150.0" y2="299.0" style="stroke:#7856FA;stroke-width:1"></line><line x1="143.6142857142857" y1="277.7142857142857" x2="167.75498448036168" y2="274.6526107024732" style="stroke:#7856FA;stroke-width:1"></line><line x1="150.0" y1="299.0" x2="167.75498448036168" y2="274.6526107024732" style="stroke:#7856FA;stroke-width:1"></line><line x1="1.0" y1="150.0" x2="21.86" y2="150.0" style="stroke:#7856FA;stroke-width:1"></line><line x1="1.0" y1="150.0" x2="25.095822478629906" y2="125.37628021743927" style="stroke:#7856FA;stroke-width:1"></line><line x1="21.86" y1="150.0" x2="25.095822478629906" y2="125.37628021743927" style="stroke:#7856FA;stroke-width:1"></line><line x1="197.01573488862704" y1="275.8519454153798" x2="216.73563649659218" y2="258.50858574377287" style="stroke:#7856FA;stroke-width:1"></line><line x1="197.01573488862704" y1="275.8519454153798" x2="224.5" y2="299.0" style="stroke:#7856FA;stroke-width:1"></line><line x1="216.73563649659218" y1="258.50858574377287" x2="224.5" y2="299.0" style="stroke:#7856FA;stroke-width:1"></line><line x1="256.80144241467985" y1="74.35758943540445" x2="271.97843813479767" y2="96.12329650822544" style="stroke:#7856FA;stroke-width:1"></line><line x1="256.80144241467985" y1="74.35758943540445" x2="299.0" y2="75.5" style="stroke:#7856FA;stroke-width:1"></line><line x1="271.97843813479767" y1="96.12329650822544" x2="299.0" y2="75.5" style="stroke:#7856FA;stroke-width:1"></line><line x1="251.44419463118425" y1="138.26053347987573" x2="270.79201028832335" y2="121.22008173076783" style="stroke:#7856FA;stroke-width:1"></line><line x1="251.44419463118425" y1="138.26053347987573" x2="299.0" y2="150.0" style="stroke:#7856FA;stroke-width:1"></line><line x1="270.79201028832335" y1="121.22008173076783" x2="299.0" y2="150.0" style="stroke:#7856FA;stroke-width:1"></line><line x1="30.482487040214256" y1="92.51229409276675" x2="35.79548680450128" y2="57.10737586958058" style="stroke:#7856FA;stroke-width:1"></line><line x1="30.482487040214256" y1="92.51229409276675" x2="64.95880865043578" y2="81.68125153060345" style="stroke:#7856FA;stroke-width:1"></line><line x1="35.79548680450128" y1="57.10737586958058" x2="64.95880865043578" y2="81.68125153060345" style="stroke:#7856FA;stroke-width:1"></line><line x1="137.22857142857143" y1="256.42857142857144" x2="167.75498448036168" y2="274.6526107024732" style="stroke:#7856FA;stroke-width:1"></line><line x1="137.22857142857143" y1="256.42857142857144" x2="181.42489667841383" y2="247.91343671551974" style="stroke:#7856FA;stroke-width:1"></line><line x1="167.75498448036168" y1="274.6526107024732" x2="181.42489667841383" y2="247.91343671551974" style="stroke:#7856FA;stroke-width:1"></line><line x1="25.095822478629906" y1="125.37628021743927" x2="42.72" y2="150.0" style="stroke:#7856FA;stroke-width:1"></line><line x1="25.095822478629906" y1="125.37628021743927" x2="52.71753112520094" y2="116.90102711731672" style="stroke:#7856FA;stroke-width:1"></line><line x1="42.72" y1="150.0" x2="52.71753112520094" y2="116.90102711731672" style="stroke:#7856FA;stroke-width:1"></line><line x1="181.42489667841383" y1="247.91343671551974" x2="197.01573488862704" y2="275.8519454153798" style="stroke:#7856FA;stroke-width:1"></line><line x1="181.42489667841383" y1="247.91343671551974" x2="216.73563649659218" y2="258.50858574377287" style="stroke:#7856FA;stroke-width:1"></line><line x1="197.01573488862704" y1="275.8519454153798" x2="216.73563649659218" y2="258.50858574377287" style="stroke:#7856FA;stroke-width:1"></line><line x1="234.4832753293578" y1="101.05928812367901" x2="256.80144241467985" y2="74.35758943540445" style="stroke:#7856FA;stroke-width:1"></line><line x1="234.4832753293578" y1="101.05928812367901" x2="271.97843813479767" y2="96.12329650822544" style="stroke:#7856FA;stroke-width:1"></line><line x1="256.80144241467985" y1="74.35758943540445" x2="271.97843813479767" y2="96.12329650822544" style="stroke:#7856FA;stroke-width:1"></line><line x1="234.4832753293578" y1="101.05928812367901" x2="251.44419463118425" y2="138.26053347987573" style="stroke:#7856FA;stroke-width:1"></line><line x1="234.4832753293578" y1="101.05928812367901" x2="270.79201028832335" y2="121.22008173076783" style="stroke:#7856FA;stroke-width:1"></line><line x1="251.44419463118425" y1="138.26053347987573" x2="270.79201028832335" y2="121.22008173076783" style="stroke:#7856FA;stroke-width:1"></line></svg>
